<?xml version="1.0" encoding="UTF-8" standalone="no"?>
<!DOCTYPE svg PUBLIC "-//W3C//DTD SVG 1.1//EN"
 "http://www.w3.org/Graphics/SVG/1.1/DTD/svg11.dtd">
<!-- Generated by graphviz version 14.1.5 (20260411.2331)
 -->
<!-- Title: EcommercePlugin Pages: 1 -->
<svg width="3061pt" height="1291pt"
 viewBox="0.00 0.00 3061.00 1291.00" xmlns="http://www.w3.org/2000/svg" xmlns:xlink="http://www.w3.org/1999/xlink">
<g id="graph0" class="graph" transform="scale(1 1) rotate(0) translate(86.4 1204.81)">
<title>EcommercePlugin</title>
<polygon fill="#f8fafc" stroke="none" points="-86.4,86.4 -86.4,-1204.81 2974.68,-1204.81 2974.68,86.4 -86.4,86.4"/>
<g id="clust1" class="cluster">
<title>cluster_legend</title>
<path fill="#ffffff" stroke="#bdc3c7" stroke-width="1.5" d="M20,-374.51C20,-374.51 276,-374.51 276,-374.51 282,-374.51 288,-380.51 288,-386.51 288,-386.51 288,-1098.41 288,-1098.41 288,-1104.41 282,-1110.41 276,-1110.41 276,-1110.41 20,-1110.41 20,-1110.41 14,-1110.41 8,-1104.41 8,-1098.41 8,-1098.41 8,-386.51 8,-386.51 8,-380.51 14,-374.51 20,-374.51"/>
<text xml:space="preserve" text-anchor="middle" x="148" y="-1095.96" font-family="Arial Bold, Helvetica Bold, sans-serif" font-size="11.00">Legend</text>
</g>
<g id="clust4" class="cluster">
<title>cluster_popup</title>
<path fill="#ebf5fb" stroke="#2980b9" stroke-width="2" d="M1821,-848.83C1821,-848.83 2203,-848.83 2203,-848.83 2209,-848.83 2215,-854.83 2215,-860.83 2215,-860.83 2215,-940.12 2215,-940.12 2215,-946.12 2209,-952.12 2203,-952.12 2203,-952.12 1821,-952.12 1821,-952.12 1815,-952.12 1809,-946.12 1809,-940.12 1809,-940.12 1809,-860.83 1809,-860.83 1809,-854.83 1815,-848.83 1821,-848.83"/>
<text xml:space="preserve" text-anchor="middle" x="2012" y="-936.72" font-family="Arial Bold, Helvetica Bold, sans-serif" font-size="12.00" fill="#1a5276">Popup Layer</text>
</g>
<g id="clust5" class="cluster">
<title>cluster_content</title>
<path fill="#e9f7ef" stroke="#1e8449" stroke-width="2" d="M2625,-848.83C2625,-848.83 2787,-848.83 2787,-848.83 2793,-848.83 2799,-854.83 2799,-860.83 2799,-860.83 2799,-940.12 2799,-940.12 2799,-946.12 2793,-952.12 2787,-952.12 2787,-952.12 2625,-952.12 2625,-952.12 2619,-952.12 2613,-946.12 2613,-940.12 2613,-940.12 2613,-860.83 2613,-860.83 2613,-854.83 2619,-848.83 2625,-848.83"/>
<text xml:space="preserve" text-anchor="middle" x="2706" y="-936.72" font-family="Arial Bold, Helvetica Bold, sans-serif" font-size="12.00" fill="#145a32">Content Layer</text>
</g>
<g id="clust8" class="cluster">
<title>cluster_background</title>
<path fill="#f4ecf7" stroke="#6c3483" stroke-width="2.5" d="M373,-8C373,-8 2109,-8 2109,-8 2115,-8 2121,-14 2121,-20 2121,-20 2121,-636.02 2121,-636.02 2121,-642.02 2115,-648.02 2109,-648.02 2109,-648.02 373,-648.02 373,-648.02 367,-648.02 361,-642.02 361,-636.02 361,-636.02 361,-20 361,-20 361,-14 367,-8 373,-8"/>
<text xml:space="preserve" text-anchor="middle" x="1241" y="-632.62" font-family="Arial Bold, Helvetica Bold, sans-serif" font-size="12.00" fill="#4a235a">Background Service Worker &#160;(background.js)</text>
</g>
<g id="clust9" class="cluster">
<title>cluster_listeners</title>
<path fill="#ead8f5" stroke="#9b59b6" stroke-width="1.5" d="M1488,-527.98C1488,-527.98 2054,-527.98 2054,-527.98 2060,-527.98 2066,-533.98 2066,-539.98 2066,-539.98 2066,-604.27 2066,-604.27 2066,-610.27 2060,-616.27 2054,-616.27 2054,-616.27 1488,-616.27 1488,-616.27 1482,-616.27 1476,-610.27 1476,-604.27 1476,-604.27 1476,-539.98 1476,-539.98 1476,-533.98 1482,-527.98 1488,-527.98"/>
<text xml:space="preserve" text-anchor="middle" x="1771" y="-601.82" font-family="Arial Bold, Helvetica Bold, sans-serif" font-size="11.00" fill="#4a235a">Chrome Runtime Listeners</text>
</g>
<g id="clust11" class="cluster">
<title>cluster_tools</title>
<path fill="#ead8f5" stroke="#5b2c6f" stroke-width="1.5" d="M446,-16C446,-16 2101,-16 2101,-16 2107,-16 2113,-22 2113,-28 2113,-28 2113,-283.83 2113,-283.83 2113,-289.83 2107,-295.83 2101,-295.83 2101,-295.83 446,-295.83 446,-295.83 440,-295.83 434,-289.83 434,-283.83 434,-283.83 434,-28 434,-28 434,-22 440,-16 446,-16"/>
<text xml:space="preserve" text-anchor="middle" x="1273.5" y="-281.38" font-family="Arial Bold, Helvetica Bold, sans-serif" font-size="11.00" fill="#4a235a">Tool Registry</text>
</g>
<g id="clust13" class="cluster">
<title>cluster_external</title>
<path fill="#fdedec" stroke="#c0392b" stroke-width="2" d="M137,-22.75C137,-22.75 341,-22.75 341,-22.75 347,-22.75 353,-28.75 353,-34.75 353,-34.75 353,-114.04 353,-114.04 353,-120.04 347,-126.04 341,-126.04 341,-126.04 137,-126.04 137,-126.04 131,-126.04 125,-120.04 125,-114.04 125,-114.04 125,-34.75 125,-34.75 125,-28.75 131,-22.75 137,-22.75"/>
<text xml:space="preserve" text-anchor="middle" x="239" y="-110.64" font-family="Arial Bold, Helvetica Bold, sans-serif" font-size="12.00" fill="#7b241c">External Services</text>
</g>
<g id="clust14" class="cluster">
<title>cluster_browser</title>
<path fill="#f2f3f4" stroke="#7f8c8d" stroke-width="2" d="M2141,-29.5C2141,-29.5 2656,-29.5 2656,-29.5 2662,-29.5 2668,-35.5 2668,-41.5 2668,-41.5 2668,-107.29 2668,-107.29 2668,-113.29 2662,-119.29 2656,-119.29 2656,-119.29 2141,-119.29 2141,-119.29 2135,-119.29 2129,-113.29 2129,-107.29 2129,-107.29 2129,-41.5 2129,-41.5 2129,-35.5 2135,-29.5 2141,-29.5"/>
<text xml:space="preserve" text-anchor="middle" x="2398.5" y="-103.89" font-family="Arial Bold, Helvetica Bold, sans-serif" font-size="12.00" fill="#2c3e50">Chrome Browser APIs</text>
</g>
<!-- L1 -->
<g id="node1" class="node">
<title>L1</title>
<path fill="#e5e8e8" stroke="black" stroke-width="1.5" d="M244,-1080.16C244,-1080.16 52,-1080.16 52,-1080.16 46,-1080.16 40,-1074.16 40,-1068.16 40,-1068.16 40,-1055.62 40,-1055.62 40,-1049.62 46,-1043.62 52,-1043.62 52,-1043.62 244,-1043.62 244,-1043.62 250,-1043.62 256,-1049.62 256,-1055.62 256,-1055.62 256,-1068.16 256,-1068.16 256,-1074.16 250,-1080.16 244,-1080.16"/>
<text xml:space="preserve" text-anchor="middle" x="148" y="-1058.19" font-family="Arial, Helvetica, sans-serif" font-size="11.00" fill="#2c3e50">Chrome message / call</text>
</g>
<!-- L2 -->
<g id="node2" class="node">
<title>L2</title>
<path fill="#ead8f5" stroke="#7d3c98" stroke-width="2.5" d="M244,-906.87C244,-906.87 52,-906.87 52,-906.87 46,-906.87 40,-900.87 40,-894.87 40,-894.87 40,-882.33 40,-882.33 40,-876.33 46,-870.33 52,-870.33 52,-870.33 244,-870.33 244,-870.33 250,-870.33 256,-876.33 256,-882.33 256,-882.33 256,-894.87 256,-894.87 256,-900.87 250,-906.87 244,-906.87"/>
<text xml:space="preserve" text-anchor="middle" x="148" y="-884.89" font-family="Arial, Helvetica, sans-serif" font-size="11.00" fill="#4a235a">Long&#45;lived Port connection</text>
</g>
<!-- L1&#45;&gt;L2 -->
<!-- L3 -->
<g id="node3" class="node">
<title>L3</title>
<path fill="#fad7a0" stroke="#e67e22" stroke-width="2.5" d="M244.28,-739.69C244.28,-739.69 51.72,-739.69 51.72,-739.69 45.72,-739.69 39.72,-733.69 39.72,-727.69 39.72,-727.69 39.72,-715.15 39.72,-715.15 39.72,-709.15 45.72,-703.15 51.72,-703.15 51.72,-703.15 244.28,-703.15 244.28,-703.15 250.28,-703.15 256.28,-709.15 256.28,-715.15 256.28,-715.15 256.28,-727.69 256.28,-727.69 256.28,-733.69 250.28,-739.69 244.28,-739.69"/>
<text xml:space="preserve" text-anchor="middle" x="148" y="-717.72" font-family="Arial, Helvetica, sans-serif" font-size="11.00" fill="#784212">LLM via Tool &#160;(invokeTool dispatcher)</text>
</g>
<!-- L2&#45;&gt;L3 -->
<!-- L4 -->
<g id="node4" class="node">
<title>L4</title>
<path fill="#fadbd8" stroke="#c0392b" stroke-width="3" d="M268.28,-579.27C268.28,-579.27 27.72,-579.27 27.72,-579.27 21.72,-579.27 15.72,-573.27 15.72,-567.27 15.72,-567.27 15.72,-554.73 15.72,-554.73 15.72,-548.73 21.72,-542.73 27.72,-542.73 27.72,-542.73 268.28,-542.73 268.28,-542.73 274.28,-542.73 280.28,-548.73 280.28,-554.73 280.28,-554.73 280.28,-567.27 280.28,-567.27 280.28,-573.27 274.28,-579.27 268.28,-579.27"/>
<text xml:space="preserve" text-anchor="middle" x="148" y="-557.3" font-family="Arial, Helvetica, sans-serif" font-size="11.00" fill="#7b241c">Pure LLM Call &#160;(direct fn, bypasses dispatcher)</text>
</g>
<!-- L3&#45;&gt;L4 -->
<!-- L5 -->
<g id="node5" class="node">
<title>L5</title>
<path fill="#d5f5e3" stroke="#1e8449" d="M244,-419.05C244,-419.05 52,-419.05 52,-419.05 46,-419.05 40,-413.05 40,-407.05 40,-407.05 40,-394.51 40,-394.51 40,-388.51 46,-382.51 52,-382.51 52,-382.51 244,-382.51 244,-382.51 250,-382.51 256,-388.51 256,-394.51 256,-394.51 256,-407.05 256,-407.05 256,-413.05 250,-419.05 244,-419.05"/>
<text xml:space="preserve" text-anchor="middle" x="148" y="-397.08" font-family="Arial, Helvetica, sans-serif" font-size="11.00" fill="#145a32">No&#45;LLM / Utility</text>
</g>
<!-- L4&#45;&gt;L5 -->
<!-- _r0 -->
<!-- _r1 -->
<!-- _r0&#45;&gt;_r1 -->
<!-- _r2 -->
<!-- _r1&#45;&gt;_r2 -->
<!-- _r3 -->
<!-- _r2&#45;&gt;_r3 -->
<!-- _r4 -->
<!-- _r3&#45;&gt;_r4 -->
<!-- _r5 -->
<!-- _r4&#45;&gt;_r5 -->
<!-- User -->
<g id="node12" class="node">
<title>User</title>
<ellipse fill="#2c3e50" stroke="black" stroke-width="0" cx="1864" cy="-1061.89" rx="40.53" ry="40.53"/>
<text xml:space="preserve" text-anchor="middle" x="1864" y="-1057.04" font-family="Arial, Helvetica, sans-serif" font-size="13.00" fill="#ffffff">User</text>
</g>
<!-- PopupHTML -->
<g id="node13" class="node">
<title>PopupHTML</title>
<path fill="#aed6f1" stroke="black" stroke-width="1.5" d="M1898.79,-913.62C1898.79,-913.62 1829.21,-913.62 1829.21,-913.62 1823.21,-913.62 1817.21,-907.62 1817.21,-901.62 1817.21,-901.62 1817.21,-875.58 1817.21,-875.58 1817.21,-869.58 1823.21,-863.58 1829.21,-863.58 1829.21,-863.58 1898.79,-863.58 1898.79,-863.58 1904.79,-863.58 1910.79,-869.58 1910.79,-875.58 1910.79,-875.58 1910.79,-901.62 1910.79,-901.62 1910.79,-907.62 1904.79,-913.62 1898.79,-913.62"/>
<text xml:space="preserve" text-anchor="middle" x="1864" y="-891.64" font-family="Arial, Helvetica, sans-serif" font-size="11.00" fill="#1a5276">popup.html</text>
<text xml:space="preserve" text-anchor="middle" x="1864" y="-878.14" font-family="Arial, Helvetica, sans-serif" font-size="11.00" fill="#1a5276">UI Shell</text>
</g>
<!-- User&#45;&gt;PopupHTML -->
<g id="edge10" class="edge">
<title>User&#45;&gt;PopupHTML</title>
<path fill="none" stroke="#566573" stroke-width="1.5" d="M1864,-1021.7C1864,-1021.7 1864,-923.66 1864,-923.66"/>
<polygon fill="#566573" stroke="#566573" stroke-width="1.5" points="1864,-916.16 1867.38,-923.66 1864.25,-918.08 1864.25,-923.66 1864,-923.66 1863.75,-923.66 1863.75,-918.08 1860.63,-923.66 1864,-916.16"/>
<text xml:space="preserve" text-anchor="middle" x="1837" y="-974.63" font-family="Arial, Helvetica, sans-serif" font-size="9.00" fill="#566573">opens popup</text>
</g>
<!-- PopupJS -->
<g id="node14" class="node">
<title>PopupJS</title>
<path fill="#2e86c1" stroke="black" stroke-width="1.5" d="M2195.03,-920.37C2195.03,-920.37 1994.96,-920.37 1994.96,-920.37 1988.96,-920.37 1982.96,-914.37 1982.96,-908.37 1982.96,-908.37 1982.96,-868.83 1982.96,-868.83 1982.96,-862.83 1988.96,-856.83 1994.96,-856.83 1994.96,-856.83 2195.03,-856.83 2195.03,-856.83 2201.03,-856.83 2207.03,-862.83 2207.03,-868.83 2207.03,-868.83 2207.03,-908.37 2207.03,-908.37 2207.03,-914.37 2201.03,-920.37 2195.03,-920.37"/>
<text xml:space="preserve" text-anchor="middle" x="2095" y="-898.39" font-family="Arial, Helvetica, sans-serif" font-size="11.00" fill="#ffffff">popup.js</text>
<text xml:space="preserve" text-anchor="middle" x="2095" y="-884.89" font-family="Arial, Helvetica, sans-serif" font-size="11.00" fill="#ffffff">UI Controller &#160;&amp; &#160;Orchestrator</text>
<text xml:space="preserve" text-anchor="middle" x="2095" y="-871.39" font-family="Arial, Helvetica, sans-serif" font-size="11.00" fill="#ffffff">[Compare button] &#160;[Summarize button]</text>
</g>
<!-- PopupHTML&#45;&gt;PopupJS -->
<g id="edge11" class="edge">
<title>PopupHTML&#45;&gt;PopupJS</title>
<path fill="none" stroke="#2e86c1" stroke-width="1.5" d="M1911.3,-889C1911.3,-889 1973.09,-889 1973.09,-889"/>
<polygon fill="#2e86c1" stroke="#2e86c1" stroke-width="1.5" points="1980.59,-889 1973.09,-892.38 1978.67,-889.25 1973.09,-889.25 1973.09,-889 1973.09,-888.75 1978.67,-888.75 1973.09,-885.63 1980.59,-889"/>
<text xml:space="preserve" text-anchor="middle" x="1918.57" y="-890.95" font-family="Arial, Helvetica, sans-serif" font-size="9.00" fill="#2e86c1">click events</text>
</g>
<!-- PortListener -->
<g id="node17" class="node">
<title>PortListener</title>
<path fill="#d7bde2" stroke="black" stroke-width="1.5" d="M2046.28,-586.02C2046.28,-586.02 1913.71,-586.02 1913.71,-586.02 1907.71,-586.02 1901.71,-580.02 1901.71,-574.02 1901.71,-574.02 1901.71,-547.98 1901.71,-547.98 1901.71,-541.98 1907.71,-535.98 1913.71,-535.98 1913.71,-535.98 2046.28,-535.98 2046.28,-535.98 2052.28,-535.98 2058.28,-541.98 2058.28,-547.98 2058.28,-547.98 2058.28,-574.02 2058.28,-574.02 2058.28,-580.02 2052.28,-586.02 2046.28,-586.02"/>
<text xml:space="preserve" text-anchor="middle" x="1980" y="-564.05" font-family="Arial, Helvetica, sans-serif" font-size="11.00" fill="#4a235a">onConnect Listener</text>
<text xml:space="preserve" text-anchor="middle" x="1980" y="-550.55" font-family="Arial, Helvetica, sans-serif" font-size="11.00" fill="#4a235a">Port: &#39;compareProgress&#39;</text>
</g>
<!-- PopupJS&#45;&gt;PortListener -->
<g id="edge18" class="edge">
<title>PopupJS&#45;&gt;PortListener</title>
<path fill="none" stroke="#7d3c98" stroke-width="2.5" d="M2043.22,-856.29C2043.22,-856.29 2043.22,-597.15 2043.22,-597.15"/>
<polygon fill="#7d3c98" stroke="#7d3c98" stroke-width="2.5" points="2043.22,-589.65 2046.6,-597.15 2043.97,-590.36 2043.97,-597.15 2043.22,-597.15 2042.47,-597.15 2042.47,-590.36 2039.85,-597.15 2043.22,-589.65"/>
<text xml:space="preserve" text-anchor="middle" x="1937.1" y="-728.67" font-family="Arial, Helvetica, sans-serif" font-size="9.00" fill="#7d3c98">Compare: runtime.connect() &#160;Port: compareProgress</text>
</g>
<!-- MsgListener -->
<g id="node18" class="node">
<title>MsgListener</title>
<path fill="#d7bde2" stroke="black" stroke-width="1.5" d="M1818.16,-586.02C1818.16,-586.02 1495.84,-586.02 1495.84,-586.02 1489.84,-586.02 1483.84,-580.02 1483.84,-574.02 1483.84,-574.02 1483.84,-547.98 1483.84,-547.98 1483.84,-541.98 1489.84,-535.98 1495.84,-535.98 1495.84,-535.98 1818.16,-535.98 1818.16,-535.98 1824.16,-535.98 1830.16,-541.98 1830.16,-547.98 1830.16,-547.98 1830.16,-574.02 1830.16,-574.02 1830.16,-580.02 1824.16,-586.02 1818.16,-586.02"/>
<text xml:space="preserve" text-anchor="middle" x="1657" y="-564.05" font-family="Arial, Helvetica, sans-serif" font-size="11.00" fill="#4a235a">onMessage Listener</text>
<text xml:space="preserve" text-anchor="middle" x="1657" y="-550.55" font-family="Arial, Helvetica, sans-serif" font-size="11.00" fill="#4a235a">summarizeProducts &#160;| &#160;productDetected &#160;| &#160;getDetectedProducts</text>
</g>
<!-- PopupJS&#45;&gt;MsgListener -->
<g id="edge21" class="edge">
<title>PopupJS&#45;&gt;MsgListener</title>
<path fill="none" stroke="#c0392b" stroke-width="2.5" d="M1998.03,-856.18C1998.03,-839.66 1998.03,-823 1998.03,-823 1998.03,-823 1820.45,-823 1820.45,-823 1820.45,-823 1820.45,-597.14 1820.45,-597.14"/>
<polygon fill="#c0392b" stroke="#c0392b" stroke-width="2.5" points="1820.45,-589.64 1823.83,-597.14 1821.2,-590.35 1821.2,-597.14 1820.45,-597.14 1819.7,-597.14 1819.7,-590.35 1817.08,-597.14 1820.45,-589.64"/>
<text xml:space="preserve" text-anchor="middle" x="1721.45" y="-817.4" font-family="Arial, Helvetica, sans-serif" font-size="9.00" fill="#c0392b">Summarize: sendMessage (summarizeProducts)</text>
</g>
<!-- ChromeTabs -->
<g id="node30" class="node">
<title>ChromeTabs</title>
<path fill="#bdc3c7" stroke="black" stroke-width="1.5" d="M2456.91,-87.54C2456.91,-87.54 2361.09,-87.54 2361.09,-87.54 2355.09,-87.54 2349.09,-81.54 2349.09,-75.54 2349.09,-75.54 2349.09,-49.5 2349.09,-49.5 2349.09,-43.5 2355.09,-37.5 2361.09,-37.5 2361.09,-37.5 2456.91,-37.5 2456.91,-37.5 2462.91,-37.5 2468.91,-43.5 2468.91,-49.5 2468.91,-49.5 2468.91,-75.54 2468.91,-75.54 2468.91,-81.54 2462.91,-87.54 2456.91,-87.54"/>
<text xml:space="preserve" text-anchor="middle" x="2409" y="-65.57" font-family="Arial, Helvetica, sans-serif" font-size="11.00" fill="#2c3e50">chrome.tabs</text>
<text xml:space="preserve" text-anchor="middle" x="2409" y="-52.07" font-family="Arial, Helvetica, sans-serif" font-size="11.00" fill="#2c3e50">Query open tabs</text>
</g>
<!-- PopupJS&#45;&gt;ChromeTabs -->
<g id="edge12" class="edge">
<title>PopupJS&#45;&gt;ChromeTabs</title>
<path fill="none" stroke="#7f8c8d" stroke-width="1.5" stroke-dasharray="5,2" d="M2207.47,-878C2297.57,-878 2409,-878 2409,-878 2409,-878 2409,-97.6 2409,-97.6"/>
<polygon fill="#7f8c8d" stroke="#7f8c8d" stroke-width="1.5" points="2409,-90.1 2412.38,-97.6 2409.25,-92.02 2409.25,-97.6 2409,-97.6 2408.75,-97.6 2408.75,-92.02 2405.63,-97.6 2409,-90.1"/>
<text xml:space="preserve" text-anchor="middle" x="2384.62" y="-590.51" font-family="Arial, Helvetica, sans-serif" font-size="9.00" fill="#7f8c8d">tabs.query()</text>
</g>
<!-- ChromeScripting -->
<g id="node31" class="node">
<title>ChromeScripting</title>
<path fill="#bdc3c7" stroke="black" stroke-width="1.5" d="M2647.53,-87.54C2647.53,-87.54 2552.47,-87.54 2552.47,-87.54 2546.47,-87.54 2540.47,-81.54 2540.47,-75.54 2540.47,-75.54 2540.47,-49.5 2540.47,-49.5 2540.47,-43.5 2546.47,-37.5 2552.47,-37.5 2552.47,-37.5 2647.53,-37.5 2647.53,-37.5 2653.53,-37.5 2659.53,-43.5 2659.53,-49.5 2659.53,-49.5 2659.53,-75.54 2659.53,-75.54 2659.53,-81.54 2653.53,-87.54 2647.53,-87.54"/>
<text xml:space="preserve" text-anchor="middle" x="2600" y="-65.57" font-family="Arial, Helvetica, sans-serif" font-size="11.00" fill="#2c3e50">chrome.scripting</text>
<text xml:space="preserve" text-anchor="middle" x="2600" y="-52.07" font-family="Arial, Helvetica, sans-serif" font-size="11.00" fill="#2c3e50">executeScript()</text>
</g>
<!-- PopupJS&#45;&gt;ChromeScripting -->
<g id="edge13" class="edge">
<title>PopupJS&#45;&gt;ChromeScripting</title>
<path fill="none" stroke="#7f8c8d" stroke-width="1.5" stroke-dasharray="5,2" d="M2207.62,-899C2322.05,-899 2482.56,-899 2482.56,-899 2482.56,-899 2482.56,-63 2482.56,-63 2482.56,-63 2530.58,-63 2530.58,-63"/>
<polygon fill="#7f8c8d" stroke="#7f8c8d" stroke-width="1.5" points="2538.08,-63 2530.58,-66.38 2536.16,-63.25 2530.58,-63.25 2530.58,-63 2530.58,-62.75 2536.16,-62.75 2530.58,-59.63 2538.08,-63"/>
<text xml:space="preserve" text-anchor="middle" x="2451.81" y="-596.41" font-family="Arial, Helvetica, sans-serif" font-size="9.00" fill="#7f8c8d">executeScript()</text>
</g>
<!-- ContentJS -->
<g id="node15" class="node">
<title>ContentJS</title>
<path fill="#27ae60" stroke="black" stroke-width="1.5" d="M2779.03,-920.37C2779.03,-920.37 2632.97,-920.37 2632.97,-920.37 2626.97,-920.37 2620.97,-914.37 2620.97,-908.37 2620.97,-908.37 2620.97,-868.83 2620.97,-868.83 2620.97,-862.83 2626.97,-856.83 2632.97,-856.83 2632.97,-856.83 2779.03,-856.83 2779.03,-856.83 2785.03,-856.83 2791.03,-862.83 2791.03,-868.83 2791.03,-868.83 2791.03,-908.37 2791.03,-908.37 2791.03,-914.37 2785.03,-920.37 2779.03,-920.37"/>
<text xml:space="preserve" text-anchor="middle" x="2706" y="-898.39" font-family="Arial, Helvetica, sans-serif" font-size="11.00" fill="#ffffff">content.js</text>
<text xml:space="preserve" text-anchor="middle" x="2706" y="-884.89" font-family="Arial, Helvetica, sans-serif" font-size="11.00" fill="#ffffff">Passive Product Detector</text>
<text xml:space="preserve" text-anchor="middle" x="2706" y="-871.39" font-family="Arial, Helvetica, sans-serif" font-size="11.00" fill="#ffffff">(auto&#45;injected on all pages)</text>
</g>
<!-- WebPages -->
<g id="node16" class="node">
<title>WebPages</title>
<path fill="#fae5d3" stroke="#ca6f1e" stroke-width="1.5" d="M2703.78,-749.57C2703.78,-753.02 2657.27,-755.83 2600,-755.83 2542.73,-755.83 2496.22,-753.02 2496.22,-749.57 2496.22,-749.57 2496.22,-693.27 2496.22,-693.27 2496.22,-689.82 2542.73,-687.02 2600,-687.02 2657.27,-687.02 2703.78,-689.82 2703.78,-693.27 2703.78,-693.27 2703.78,-749.57 2703.78,-749.57"/>
<path fill="none" stroke="#ca6f1e" stroke-width="1.5" d="M2703.78,-749.57C2703.78,-746.12 2657.27,-743.32 2600,-743.32 2542.73,-743.32 2496.22,-746.12 2496.22,-749.57"/>
<text xml:space="preserve" text-anchor="middle" x="2600" y="-724.47" font-family="Arial, Helvetica, sans-serif" font-size="11.00" fill="#784212">Web Pages &#160;/ &#160;DOM</text>
<text xml:space="preserve" text-anchor="middle" x="2600" y="-710.97" font-family="Arial, Helvetica, sans-serif" font-size="11.00" fill="#784212">(Amazon · eBay · any product site)</text>
</g>
<!-- ContentJS&#45;&gt;WebPages -->
<g id="edge16" class="edge">
<title>ContentJS&#45;&gt;WebPages</title>
<path fill="none" stroke="#27ae60" stroke-width="1.5" stroke-dasharray="5,2" d="M2676.18,-846.59C2676.18,-846.59 2676.18,-755.28 2676.18,-755.28"/>
<polygon fill="#27ae60" stroke="#27ae60" stroke-width="1.5" points="2673.55,-846.59 2676.18,-854.09 2678.8,-846.59 2673.55,-846.59"/>
<text xml:space="preserve" text-anchor="middle" x="2629.3" y="-802.88" font-family="Arial, Helvetica, sans-serif" font-size="9.00" fill="#27ae60">observes DOM on load</text>
</g>
<!-- ContentJS&#45;&gt;MsgListener -->
<g id="edge17" class="edge">
<title>ContentJS&#45;&gt;MsgListener</title>
<path fill="none" stroke="#27ae60" stroke-width="1.5" d="M2648.57,-856.26C2648.57,-827.18 2648.57,-789 2648.57,-789 2648.57,-789 1823.69,-789 1823.69,-789 1823.69,-789 1823.69,-596.04 1823.69,-596.04"/>
<polygon fill="#27ae60" stroke="#27ae60" stroke-width="1.5" points="1823.69,-588.54 1827.06,-596.04 1823.94,-590.46 1823.94,-596.04 1823.69,-596.04 1823.44,-596.04 1823.44,-590.46 1820.31,-596.04 1823.69,-588.54"/>
<text xml:space="preserve" text-anchor="middle" x="2106.53" y="-790.95" font-family="Arial, Helvetica, sans-serif" font-size="9.00" fill="#27ae60">productDetected (sendMessage)</text>
</g>
<!-- WebPages&#45;&gt;PopupJS -->
<g id="edge15" class="edge">
<title>WebPages&#45;&gt;PopupJS</title>
<path fill="none" stroke="#ca6f1e" stroke-width="1.5" stroke-dasharray="5,2" d="M2495.53,-748C2368.77,-748 2171.81,-748 2171.81,-748 2171.81,-748 2171.81,-847.01 2171.81,-847.01"/>
<polygon fill="#ca6f1e" stroke="#ca6f1e" stroke-width="1.5" points="2171.81,-854.51 2168.44,-847.01 2171.56,-852.59 2171.56,-847.01 2171.81,-847.01 2172.06,-847.01 2172.06,-852.59 2175.19,-847.01 2171.81,-854.51"/>
<text xml:space="preserve" text-anchor="middle" x="2247.41" y="-749.95" font-family="Arial, Helvetica, sans-serif" font-size="9.00" fill="#ca6f1e">{ name, price, url }</text>
</g>
<!-- PortListener&#45;&gt;PopupJS -->
<g id="edge19" class="edge">
<title>PortListener&#45;&gt;PopupJS</title>
<path fill="none" stroke="#7d3c98" stroke-width="1.5" stroke-dasharray="5,2" d="M2028.16,-586.71C2028.16,-586.71 2028.16,-846.79 2028.16,-846.79"/>
<polygon fill="#7d3c98" stroke="#7d3c98" stroke-width="1.5" points="2028.16,-854.29 2024.78,-846.79 2027.91,-852.36 2027.91,-846.79 2028.16,-846.79 2028.41,-846.79 2028.41,-852.36 2031.53,-846.79 2028.16,-854.29"/>
<text xml:space="preserve" text-anchor="middle" x="1967.03" y="-718.7" font-family="Arial, Helvetica, sans-serif" font-size="9.00" fill="#7d3c98">port: { progress / result / error }</text>
</g>
<!-- Dispatcher -->
<g id="node19" class="node">
<title>Dispatcher</title>
<path fill="#6c3483" stroke="black" stroke-width="2" d="M1603.39,-431.93C1603.39,-431.93 1496.27,-403.83 1496.27,-403.83 1490.47,-402.3 1490.47,-399.26 1496.27,-397.73 1496.27,-397.73 1603.39,-369.63 1603.39,-369.63 1609.2,-368.1 1620.8,-368.1 1626.61,-369.63 1626.61,-369.63 1733.73,-397.73 1733.73,-397.73 1739.53,-399.26 1739.53,-402.3 1733.73,-403.83 1733.73,-403.83 1626.61,-431.93 1626.61,-431.93 1620.8,-433.46 1609.2,-433.46 1603.39,-431.93"/>
<text xml:space="preserve" text-anchor="middle" x="1615" y="-397.08" font-family="Arial, Helvetica, sans-serif" font-size="11.00" fill="#ffffff">invokeTool() &#160;Dispatcher</text>
</g>
<!-- PortListener&#45;&gt;Dispatcher -->
<g id="edge20" class="edge">
<title>PortListener&#45;&gt;Dispatcher</title>
<path fill="none" stroke="#5b2c6f" stroke-width="1.5" d="M1912.25,-535.39C1912.25,-492.78 1912.25,-412 1912.25,-412 1912.25,-412 1715.53,-412 1715.53,-412"/>
<polygon fill="#5b2c6f" stroke="#5b2c6f" stroke-width="1.5" points="1708.03,-412 1715.53,-408.63 1709.95,-411.75 1715.53,-411.75 1715.53,-412 1715.53,-412.25 1709.95,-412.25 1715.53,-415.38 1708.03,-412"/>
<text xml:space="preserve" text-anchor="middle" x="1766.83" y="-413.95" font-family="Arial, Helvetica, sans-serif" font-size="9.00" fill="#5b2c6f">action: invokeTool &#160;&#45;&gt; &#160;compareProductsWithProgress</text>
</g>
<!-- MsgListener&#45;&gt;PopupJS -->
<g id="edge22" class="edge">
<title>MsgListener&#45;&gt;PopupJS</title>
<path fill="none" stroke="#c0392b" stroke-width="1.5" stroke-dasharray="5,2" d="M1826.92,-586.73C1826.92,-608.78 1826.92,-637 1826.92,-637 1826.92,-637 2013.09,-637 2013.09,-637 2013.09,-637 2013.09,-846.89 2013.09,-846.89"/>
<polygon fill="#c0392b" stroke="#c0392b" stroke-width="1.5" points="2013.09,-854.39 2009.72,-846.89 2012.84,-852.47 2012.84,-846.89 2013.09,-846.89 2013.34,-846.89 2013.34,-852.47 2016.47,-846.89 2013.09,-854.39"/>
<text xml:space="preserve" text-anchor="middle" x="1939.82" y="-638.95" font-family="Arial, Helvetica, sans-serif" font-size="9.00" fill="#c0392b">sendResponse { summaries }</text>
</g>
<!-- ToolSummarize -->
<g id="node26" class="node">
<title>ToolSummarize</title>
<path fill="#8e44ad" stroke="black" stroke-width="1.5" d="M646.28,-258.83C646.28,-258.83 453.72,-258.83 453.72,-258.83 447.72,-258.83 441.72,-252.83 441.72,-246.83 441.72,-246.83 441.72,-220.79 441.72,-220.79 441.72,-214.79 447.72,-208.79 453.72,-208.79 453.72,-208.79 646.28,-208.79 646.28,-208.79 652.28,-208.79 658.28,-214.79 658.28,-220.79 658.28,-220.79 658.28,-246.83 658.28,-246.83 658.28,-252.83 652.28,-258.83 646.28,-258.83"/>
<text xml:space="preserve" text-anchor="middle" x="550" y="-236.86" font-family="Arial, Helvetica, sans-serif" font-size="11.00" fill="#ffffff">summarizeProducts</text>
<text xml:space="preserve" text-anchor="middle" x="550" y="-223.36" font-family="Arial, Helvetica, sans-serif" font-size="11.00" fill="#ffffff">LLM Tool (wraps summarizeProduct)</text>
</g>
<!-- MsgListener&#45;&gt;ToolSummarize -->
<g id="edge32" class="edge">
<title>MsgListener&#45;&gt;ToolSummarize</title>
<path fill="none" stroke="#c0392b" stroke-width="1.5" d="M1483.12,-551C1171.47,-551 550,-551 550,-551 550,-551 550,-268.83 550,-268.83"/>
<polygon fill="#c0392b" stroke="#c0392b" stroke-width="1.5" points="550,-261.33 553.38,-268.83 550.25,-263.25 550.25,-268.83 550,-268.83 549.75,-268.83 549.75,-263.25 546.63,-268.83 550,-261.33"/>
<text xml:space="preserve" text-anchor="middle" x="821.85" y="-552.95" font-family="Arial, Helvetica, sans-serif" font-size="9.00" fill="#c0392b">tool_summarizeProducts()</text>
</g>
<!-- ToolOrch -->
<g id="node20" class="node">
<title>ToolOrch</title>
<path fill="#8e44ad" stroke="black" stroke-width="1.5" d="M1168.16,-258.83C1168.16,-258.83 1001.84,-258.83 1001.84,-258.83 995.84,-258.83 989.84,-252.83 989.84,-246.83 989.84,-246.83 989.84,-220.79 989.84,-220.79 989.84,-214.79 995.84,-208.79 1001.84,-208.79 1001.84,-208.79 1168.16,-208.79 1168.16,-208.79 1174.16,-208.79 1180.16,-214.79 1180.16,-220.79 1180.16,-220.79 1180.16,-246.83 1180.16,-246.83 1180.16,-252.83 1174.16,-258.83 1168.16,-258.83"/>
<text xml:space="preserve" text-anchor="middle" x="1085" y="-236.86" font-family="Arial, Helvetica, sans-serif" font-size="11.00" fill="#ffffff">compareProductsWithProgress</text>
<text xml:space="preserve" text-anchor="middle" x="1085" y="-223.36" font-family="Arial, Helvetica, sans-serif" font-size="11.00" fill="#ffffff">Orchestrator Tool</text>
</g>
<!-- Dispatcher&#45;&gt;ToolOrch -->
<g id="edge23" class="edge">
<title>Dispatcher&#45;&gt;ToolOrch</title>
<path fill="none" stroke="#7d3c98" stroke-width="1.5" d="M1594.22,-371C1499.92,-371 1116.72,-371 1116.72,-371 1116.72,-371 1116.72,-268.62 1116.72,-268.62"/>
<polygon fill="#7d3c98" stroke="#7d3c98" stroke-width="1.5" points="1116.72,-261.12 1120.1,-268.62 1116.97,-263.04 1116.97,-268.62 1116.72,-268.62 1116.47,-268.62 1116.47,-263.04 1113.35,-268.62 1116.72,-261.12"/>
</g>
<!-- ToolPair -->
<g id="node21" class="node">
<title>ToolPair</title>
<path fill="#8e44ad" stroke="black" stroke-width="1.5" d="M1685.41,-258.83C1685.41,-258.83 1544.59,-258.83 1544.59,-258.83 1538.59,-258.83 1532.59,-252.83 1532.59,-246.83 1532.59,-246.83 1532.59,-220.79 1532.59,-220.79 1532.59,-214.79 1538.59,-208.79 1544.59,-208.79 1544.59,-208.79 1685.41,-208.79 1685.41,-208.79 1691.41,-208.79 1697.41,-214.79 1697.41,-220.79 1697.41,-220.79 1697.41,-246.83 1697.41,-246.83 1697.41,-252.83 1691.41,-258.83 1685.41,-258.83"/>
<text xml:space="preserve" text-anchor="middle" x="1615" y="-236.86" font-family="Arial, Helvetica, sans-serif" font-size="11.00" fill="#ffffff">compareProductPair</text>
<text xml:space="preserve" text-anchor="middle" x="1615" y="-223.36" font-family="Arial, Helvetica, sans-serif" font-size="11.00" fill="#ffffff">Heuristic &#160;+ &#160;LLM Fallback</text>
</g>
<!-- Dispatcher&#45;&gt;ToolPair -->
<g id="edge24" class="edge">
<title>Dispatcher&#45;&gt;ToolPair</title>
<path fill="none" stroke="#7d3c98" stroke-width="1.5" d="M1642.47,-372.83C1642.47,-372.83 1642.47,-268.71 1642.47,-268.71"/>
<polygon fill="#7d3c98" stroke="#7d3c98" stroke-width="1.5" points="1642.47,-261.21 1645.85,-268.71 1642.72,-263.13 1642.72,-268.71 1642.47,-268.71 1642.22,-268.71 1642.22,-263.13 1639.1,-268.71 1642.47,-261.21"/>
</g>
<!-- ToolGemini -->
<g id="node22" class="node">
<title>ToolGemini</title>
<path fill="#e67e22" stroke="#a04000" stroke-width="3" d="M1448.16,-265.58C1448.16,-265.58 1263.84,-265.58 1263.84,-265.58 1257.84,-265.58 1251.84,-259.58 1251.84,-253.58 1251.84,-253.58 1251.84,-214.04 1251.84,-214.04 1251.84,-208.04 1257.84,-202.04 1263.84,-202.04 1263.84,-202.04 1448.16,-202.04 1448.16,-202.04 1454.16,-202.04 1460.16,-208.04 1460.16,-214.04 1460.16,-214.04 1460.16,-253.58 1460.16,-253.58 1460.16,-259.58 1454.16,-265.58 1448.16,-265.58"/>
<text xml:space="preserve" text-anchor="middle" x="1356" y="-243.61" font-family="Arial, Helvetica, sans-serif" font-size="11.00" fill="#ffffff">callGemini</text>
<text xml:space="preserve" text-anchor="middle" x="1356" y="-230.11" font-family="Arial, Helvetica, sans-serif" font-size="11.00" fill="#ffffff">LLM Tool</text>
<text xml:space="preserve" text-anchor="middle" x="1356" y="-216.61" font-family="Arial, Helvetica, sans-serif" font-size="11.00" fill="#ffffff">342230205 Gemini REST endpoint</text>
</g>
<!-- Dispatcher&#45;&gt;ToolGemini -->
<g id="edge25" class="edge">
<title>Dispatcher&#45;&gt;ToolGemini</title>
<path fill="none" stroke="#e67e22" stroke-width="2.5" d="M1508.63,-393.61C1508.63,-361.69 1508.63,-234 1508.63,-234 1508.63,-234 1472.13,-234 1472.13,-234"/>
<polygon fill="#e67e22" stroke="#e67e22" stroke-width="2.5" points="1464.63,-234 1472.13,-230.63 1465.34,-233.25 1472.13,-233.25 1472.13,-234 1472.13,-234.75 1465.34,-234.75 1472.13,-237.38 1464.63,-234"/>
<text xml:space="preserve" text-anchor="middle" x="1482.75" y="-297.51" font-family="Arial, Helvetica, sans-serif" font-size="9.00" fill="#e67e22">LLM via Tool</text>
</g>
<!-- ToolCsv -->
<g id="node23" class="node">
<title>ToolCsv</title>
<path fill="#8e44ad" stroke="black" stroke-width="1.5" d="M2093.03,-258.83C2093.03,-258.83 2006.96,-258.83 2006.96,-258.83 2000.96,-258.83 1994.96,-252.83 1994.96,-246.83 1994.96,-246.83 1994.96,-220.79 1994.96,-220.79 1994.96,-214.79 2000.96,-208.79 2006.96,-208.79 2006.96,-208.79 2093.03,-208.79 2093.03,-208.79 2099.03,-208.79 2105.03,-214.79 2105.03,-220.79 2105.03,-220.79 2105.03,-246.83 2105.03,-246.83 2105.03,-252.83 2099.03,-258.83 2093.03,-258.83"/>
<text xml:space="preserve" text-anchor="middle" x="2050" y="-236.86" font-family="Arial, Helvetica, sans-serif" font-size="11.00" fill="#ffffff">generateCsv</text>
<text xml:space="preserve" text-anchor="middle" x="2050" y="-223.36" font-family="Arial, Helvetica, sans-serif" font-size="11.00" fill="#ffffff">Formatter Tool</text>
</g>
<!-- Dispatcher&#45;&gt;ToolCsv -->
<g id="edge26" class="edge">
<title>Dispatcher&#45;&gt;ToolCsv</title>
<path fill="none" stroke="#7d3c98" stroke-width="1.5" d="M1704.32,-389C1825.38,-389 2026.62,-389 2026.62,-389 2026.62,-389 2026.62,-268.76 2026.62,-268.76"/>
<polygon fill="#7d3c98" stroke="#7d3c98" stroke-width="1.5" points="2026.63,-261.26 2030,-268.76 2026.88,-263.19 2026.88,-268.76 2026.63,-268.76 2026.38,-268.76 2026.38,-263.19 2023.25,-268.76 2026.63,-261.26"/>
</g>
<!-- ToolDownload -->
<g id="node24" class="node">
<title>ToolDownload</title>
<path fill="#8e44ad" stroke="black" stroke-width="1.5" d="M1910.79,-258.83C1910.79,-258.83 1781.21,-258.83 1781.21,-258.83 1775.21,-258.83 1769.21,-252.83 1769.21,-246.83 1769.21,-246.83 1769.21,-220.79 1769.21,-220.79 1769.21,-214.79 1775.21,-208.79 1781.21,-208.79 1781.21,-208.79 1910.79,-208.79 1910.79,-208.79 1916.79,-208.79 1922.79,-214.79 1922.79,-220.79 1922.79,-220.79 1922.79,-246.83 1922.79,-246.83 1922.79,-252.83 1916.79,-258.83 1910.79,-258.83"/>
<text xml:space="preserve" text-anchor="middle" x="1846" y="-236.86" font-family="Arial, Helvetica, sans-serif" font-size="11.00" fill="#ffffff">downloadCsv</text>
<text xml:space="preserve" text-anchor="middle" x="1846" y="-223.36" font-family="Arial, Helvetica, sans-serif" font-size="11.00" fill="#ffffff">Chrome Download Tool</text>
</g>
<!-- Dispatcher&#45;&gt;ToolDownload -->
<g id="edge27" class="edge">
<title>Dispatcher&#45;&gt;ToolDownload</title>
<path fill="none" stroke="#7d3c98" stroke-width="1.5" d="M1721.37,-393.61C1721.37,-361.69 1721.37,-234 1721.37,-234 1721.37,-234 1759.16,-234 1759.16,-234"/>
<polygon fill="#7d3c98" stroke="#7d3c98" stroke-width="1.5" points="1766.66,-234 1759.16,-237.38 1764.74,-234.25 1759.16,-234.25 1759.16,-234 1759.16,-233.75 1764.74,-233.75 1759.16,-230.63 1766.66,-234"/>
</g>
<!-- ToolSummary -->
<g id="node25" class="node">
<title>ToolSummary</title>
<path fill="#8e44ad" stroke="black" stroke-width="1.5" d="M906.03,-258.83C906.03,-258.83 741.97,-258.83 741.97,-258.83 735.97,-258.83 729.97,-252.83 729.97,-246.83 729.97,-246.83 729.97,-220.79 729.97,-220.79 729.97,-214.79 735.97,-208.79 741.97,-208.79 741.97,-208.79 906.03,-208.79 906.03,-208.79 912.03,-208.79 918.03,-214.79 918.03,-220.79 918.03,-220.79 918.03,-246.83 918.03,-246.83 918.03,-252.83 912.03,-258.83 906.03,-258.83"/>
<text xml:space="preserve" text-anchor="middle" x="824" y="-236.86" font-family="Arial, Helvetica, sans-serif" font-size="11.00" fill="#ffffff">generateComparisonSummary</text>
<text xml:space="preserve" text-anchor="middle" x="824" y="-223.36" font-family="Arial, Helvetica, sans-serif" font-size="11.00" fill="#ffffff">Formatter Tool</text>
</g>
<!-- Dispatcher&#45;&gt;ToolSummary -->
<g id="edge28" class="edge">
<title>Dispatcher&#45;&gt;ToolSummary</title>
<path fill="none" stroke="#7d3c98" stroke-width="1.5" d="M1564.01,-379C1389.08,-379 824,-379 824,-379 824,-379 824,-268.76 824,-268.76"/>
<polygon fill="#7d3c98" stroke="#7d3c98" stroke-width="1.5" points="824,-261.26 827.38,-268.76 824.25,-263.18 824.25,-268.76 824,-268.76 823.75,-268.76 823.75,-263.18 820.63,-268.76 824,-261.26"/>
</g>
<!-- ToolOrch&#45;&gt;Dispatcher -->
<g id="edge29" class="edge">
<title>ToolOrch&#45;&gt;Dispatcher</title>
<path fill="none" stroke="#9b59b6" stroke-width="1.5" stroke-dasharray="5,2" d="M1053.28,-259.38C1053.28,-300.07 1053.28,-375 1053.28,-375 1053.28,-375 1569.68,-375 1569.68,-375"/>
<polygon fill="#9b59b6" stroke="#9b59b6" stroke-width="1.5" points="1577.18,-375 1569.68,-378.38 1575.26,-375.25 1569.68,-375.25 1569.68,-375 1569.68,-374.75 1575.26,-374.75 1569.68,-371.63 1577.18,-375"/>
<text xml:space="preserve" text-anchor="middle" x="1166.29" y="-376.95" font-family="Arial, Helvetica, sans-serif" font-size="9.00" fill="#9b59b6">invokeTool(compareProductPair) &#160;x N pairs</text>
</g>
<!-- ToolPair&#45;&gt;Dispatcher -->
<g id="edge31" class="edge">
<title>ToolPair&#45;&gt;Dispatcher</title>
<path fill="none" stroke="#e67e22" stroke-width="1.5" stroke-dasharray="5,2" d="M1587.53,-259.53C1587.53,-259.53 1587.53,-363.47 1587.53,-363.47"/>
<polygon fill="#e67e22" stroke="#e67e22" stroke-width="1.5" points="1587.53,-370.97 1584.16,-363.47 1587.28,-369.05 1587.28,-363.47 1587.53,-363.47 1587.78,-363.47 1587.78,-369.05 1590.91,-363.47 1587.53,-370.97"/>
<text xml:space="preserve" text-anchor="middle" x="1517.78" y="-313.45" font-family="Arial, Helvetica, sans-serif" font-size="9.00" fill="#e67e22">2nd: invokeTool(callGemini) if fails</text>
</g>
<!-- ToolHeuristic -->
<g id="node27" class="node">
<title>ToolHeuristic</title>
<path fill="#d7bde2" stroke="black" stroke-dasharray="5,2" d="M1685.41,-87.54C1685.41,-87.54 1544.59,-87.54 1544.59,-87.54 1538.59,-87.54 1532.59,-81.54 1532.59,-75.54 1532.59,-75.54 1532.59,-49.5 1532.59,-49.5 1532.59,-43.5 1538.59,-37.5 1544.59,-37.5 1544.59,-37.5 1685.41,-37.5 1685.41,-37.5 1691.41,-37.5 1697.41,-43.5 1697.41,-49.5 1697.41,-49.5 1697.41,-75.54 1697.41,-75.54 1697.41,-81.54 1691.41,-87.54 1685.41,-87.54"/>
<text xml:space="preserve" text-anchor="middle" x="1615" y="-65.57" font-family="Arial, Helvetica, sans-serif" font-size="11.00" fill="#4a235a">hasSharedProductType()</text>
<text xml:space="preserve" text-anchor="middle" x="1615" y="-52.07" font-family="Arial, Helvetica, sans-serif" font-size="11.00" fill="#4a235a">Keyword Match &#160;(no LLM)</text>
</g>
<!-- ToolPair&#45;&gt;ToolHeuristic -->
<g id="edge30" class="edge">
<title>ToolPair&#45;&gt;ToolHeuristic</title>
<path fill="none" stroke="#2e86c1" stroke-width="1.5" d="M1615,-208.17C1615,-208.17 1615,-97.11 1615,-97.11"/>
<polygon fill="#2e86c1" stroke="#2e86c1" stroke-width="1.5" points="1615,-89.61 1618.38,-97.11 1615.25,-91.53 1615.25,-97.11 1615,-97.11 1614.75,-97.11 1614.75,-91.53 1611.63,-97.11 1615,-89.61"/>
<text xml:space="preserve" text-anchor="middle" x="1576" y="-154.59" font-family="Arial, Helvetica, sans-serif" font-size="9.00" fill="#2e86c1">1st: keyword match</text>
</g>
<!-- GeminiAPI -->
<g id="node29" class="node">
<title>GeminiAPI</title>
<path fill="#e74c3c" stroke="#922b21" stroke-width="2.5" d="M333.41,-94.29C333.41,-94.29 144.59,-94.29 144.59,-94.29 138.59,-94.29 132.59,-88.29 132.59,-82.29 132.59,-82.29 132.59,-42.75 132.59,-42.75 132.59,-36.75 138.59,-30.75 144.59,-30.75 144.59,-30.75 333.41,-30.75 333.41,-30.75 339.41,-30.75 345.41,-36.75 345.41,-42.75 345.41,-42.75 345.41,-82.29 345.41,-82.29 345.41,-88.29 339.41,-94.29 333.41,-94.29"/>
<text xml:space="preserve" text-anchor="middle" x="239" y="-72.32" font-family="Arial, Helvetica, sans-serif" font-size="11.00" fill="#ffffff">Google Gemini API</text>
<text xml:space="preserve" text-anchor="middle" x="239" y="-58.82" font-family="Arial, Helvetica, sans-serif" font-size="11.00" fill="#ffffff">gemini&#45;2.5&#45;flash</text>
<text xml:space="preserve" text-anchor="middle" x="239" y="-45.32" font-family="Arial, Helvetica, sans-serif" font-size="11.00" fill="#ffffff">generativelanguage.googleapis.com</text>
</g>
<!-- ToolGemini&#45;&gt;GeminiAPI -->
<g id="edge35" class="edge">
<title>ToolGemini&#45;&gt;GeminiAPI</title>
<path fill="none" stroke="#a04000" stroke-width="3" d="M1303.92,-200.58C1303.92,-168.91 1303.92,-126 1303.92,-126 1303.92,-126 323.7,-126 323.7,-126 323.7,-126 323.7,-106.53 323.7,-106.53"/>
<polygon fill="#a04000" stroke="#a04000" stroke-width="3" points="323.7,-99.03 327.08,-106.53 324.7,-99.13 324.7,-106.53 323.7,-106.53 322.7,-106.53 322.7,-99.13 320.33,-106.53 323.7,-99.03"/>
<text xml:space="preserve" text-anchor="middle" x="736.37" y="-127.95" font-family="Arial, Helvetica, sans-serif" font-size="9.00" fill="#a04000">POST /v1/models/gemini&#45;2.5&#45;flash:generateContent</text>
</g>
<!-- ChromeDownloads -->
<g id="node32" class="node">
<title>ChromeDownloads</title>
<path fill="#bdc3c7" stroke="black" stroke-width="1.5" d="M2265.41,-87.54C2265.41,-87.54 2148.59,-87.54 2148.59,-87.54 2142.59,-87.54 2136.59,-81.54 2136.59,-75.54 2136.59,-75.54 2136.59,-49.5 2136.59,-49.5 2136.59,-43.5 2142.59,-37.5 2148.59,-37.5 2148.59,-37.5 2265.41,-37.5 2265.41,-37.5 2271.41,-37.5 2277.41,-43.5 2277.41,-49.5 2277.41,-49.5 2277.41,-75.54 2277.41,-75.54 2277.41,-81.54 2271.41,-87.54 2265.41,-87.54"/>
<text xml:space="preserve" text-anchor="middle" x="2207" y="-65.57" font-family="Arial, Helvetica, sans-serif" font-size="11.00" fill="#2c3e50">chrome.downloads</text>
<text xml:space="preserve" text-anchor="middle" x="2207" y="-52.07" font-family="Arial, Helvetica, sans-serif" font-size="11.00" fill="#2c3e50">File download trigger</text>
</g>
<!-- ToolDownload&#45;&gt;ChromeDownloads -->
<g id="edge37" class="edge">
<title>ToolDownload&#45;&gt;ChromeDownloads</title>
<path fill="none" stroke="#7f8c8d" stroke-width="1.5" stroke-dasharray="5,2" d="M1846,-208.24C1846,-160.59 1846,-63 1846,-63 1846,-63 2126.78,-63 2126.78,-63"/>
<polygon fill="#7f8c8d" stroke="#7f8c8d" stroke-width="1.5" points="2134.28,-63 2126.78,-66.38 2132.36,-63.25 2126.78,-63.25 2126.78,-63 2126.78,-62.75 2132.36,-62.75 2126.78,-59.63 2134.28,-63"/>
<text xml:space="preserve" text-anchor="middle" x="1850.4" y="-64.95" font-family="Arial, Helvetica, sans-serif" font-size="9.00" fill="#7f8c8d">chrome.downloads.download()</text>
</g>
<!-- SummarizeProduct -->
<g id="node28" class="node">
<title>SummarizeProduct</title>
<path fill="#c0392b" stroke="#7b241c" stroke-width="3" d="M1055.79,-101.04C1055.79,-101.04 848.22,-101.04 848.22,-101.04 842.22,-101.04 836.22,-95.04 836.22,-89.04 836.22,-89.04 836.22,-36 836.22,-36 836.22,-30 842.22,-24 848.22,-24 848.22,-24 1055.79,-24 1055.79,-24 1061.79,-24 1067.79,-30 1067.79,-36 1067.79,-36 1067.79,-89.04 1067.79,-89.04 1067.79,-95.04 1061.79,-101.04 1055.79,-101.04"/>
<text xml:space="preserve" text-anchor="middle" x="952" y="-79.07" font-family="Arial, Helvetica, sans-serif" font-size="11.00" fill="#ffffff">summarizeProduct()</text>
<text xml:space="preserve" text-anchor="middle" x="952" y="-65.57" font-family="Arial, Helvetica, sans-serif" font-size="11.00" fill="#ffffff">Pure LLM Helper</text>
<text xml:space="preserve" text-anchor="middle" x="952" y="-52.07" font-family="Arial, Helvetica, sans-serif" font-size="11.00" fill="#ffffff">342230205 Calls callGemini DIRECTLY</text>
<text xml:space="preserve" text-anchor="middle" x="952" y="-38.57" font-family="Arial, Helvetica, sans-serif" font-size="11.00" fill="#ffffff">(bypasses invokeTool dispatcher)</text>
</g>
<!-- ToolSummarize&#45;&gt;SummarizeProduct -->
<g id="edge33" class="edge">
<title>ToolSummarize&#45;&gt;SummarizeProduct</title>
<path fill="none" stroke="#c0392b" stroke-width="1.5" d="M550,-208.24C550,-160.59 550,-63 550,-63 550,-63 825.59,-63 825.59,-63"/>
<polygon fill="#c0392b" stroke="#c0392b" stroke-width="1.5" points="833.09,-63 825.59,-66.38 831.16,-63.25 825.59,-63.25 825.59,-63 825.59,-62.75 831.16,-62.75 825.59,-59.63 833.09,-63"/>
<text xml:space="preserve" text-anchor="middle" x="591.92" y="-64.95" font-family="Arial, Helvetica, sans-serif" font-size="9.00" fill="#c0392b">per product</text>
</g>
<!-- SummarizeProduct&#45;&gt;ToolGemini -->
<g id="edge34" class="edge">
<title>SummarizeProduct&#45;&gt;ToolGemini</title>
<path fill="none" stroke="#c0392b" stroke-width="3" d="M1069.16,-92C1204.29,-92 1408.08,-92 1408.08,-92 1408.08,-92 1408.08,-189.41 1408.08,-189.41"/>
<polygon fill="#c0392b" stroke="#c0392b" stroke-width="3" points="1408.08,-196.91 1404.71,-189.41 1407.08,-196.81 1407.08,-189.41 1408.08,-189.41 1409.08,-189.41 1409.08,-196.81 1411.46,-189.41 1408.08,-196.91"/>
<text xml:space="preserve" text-anchor="middle" x="1233.32" y="-114.95" font-family="Arial, Helvetica, sans-serif" font-size="9.00" fill="#c0392b">PURE LLM CALL</text>
<text xml:space="preserve" text-anchor="middle" x="1233.32" y="-104.45" font-family="Arial, Helvetica, sans-serif" font-size="9.00" fill="#c0392b">tool_callGemini() direct</text>
<text xml:space="preserve" text-anchor="middle" x="1233.32" y="-93.95" font-family="Arial, Helvetica, sans-serif" font-size="9.00" fill="#c0392b">(no invokeTool dispatcher)</text>
</g>
<!-- GeminiAPI&#45;&gt;ToolGemini -->
<g id="edge36" class="edge">
<title>GeminiAPI&#45;&gt;ToolGemini</title>
<path fill="none" stroke="#a04000" stroke-width="1.5" stroke-dasharray="5,2" d="M301.99,-95.33C301.99,-120.87 301.99,-152 301.99,-152 301.99,-152 1356,-152 1356,-152 1356,-152 1356,-191.68 1356,-191.68"/>
<polygon fill="#a04000" stroke="#a04000" stroke-width="1.5" points="1356,-199.18 1352.63,-191.68 1355.75,-197.26 1355.75,-191.68 1356,-191.68 1356.25,-191.68 1356.25,-197.26 1359.38,-191.68 1356,-199.18"/>
<text xml:space="preserve" text-anchor="middle" x="793.13" y="-153.95" font-family="Arial, Helvetica, sans-serif" font-size="9.00" fill="#a04000">text response</text>
</g>
<!-- ChromeScripting&#45;&gt;WebPages -->
<g id="edge14" class="edge">
<title>ChromeScripting&#45;&gt;WebPages</title>
<path fill="none" stroke="#ca6f1e" stroke-width="1.5" stroke-dasharray="5,2" d="M2600,-87.95C2600,-87.95 2600,-677.2 2600,-677.2"/>
<polygon fill="#ca6f1e" stroke="#ca6f1e" stroke-width="1.5" points="2600,-684.7 2596.63,-677.2 2599.75,-682.78 2599.75,-677.2 2600,-677.2 2600.25,-677.2 2600.25,-682.78 2603.38,-677.2 2600,-684.7"/>
<text xml:space="preserve" text-anchor="middle" x="2563.25" y="-384.52" font-family="Arial, Helvetica, sans-serif" font-size="9.00" fill="#ca6f1e">injects extractor fn</text>
</g>
<!-- CSVOutput -->
<g id="node33" class="node">
<title>CSVOutput</title>
<polygon fill="#a9dfbf" stroke="#1e8449" stroke-width="1.5" points="2882.28,-87.54 2731.72,-87.54 2731.72,-37.5 2888.28,-37.5 2888.28,-81.54 2882.28,-87.54"/>
<polyline fill="none" stroke="#1e8449" stroke-width="1.5" points="2882.28,-87.54 2882.28,-81.54"/>
<polyline fill="none" stroke="#1e8449" stroke-width="1.5" points="2888.28,-81.54 2882.28,-81.54"/>
<text xml:space="preserve" text-anchor="middle" x="2810" y="-65.57" font-family="Arial, Helvetica, sans-serif" font-size="11.00" fill="#145a32">product_comparison.csv</text>
<text xml:space="preserve" text-anchor="middle" x="2810" y="-52.07" font-family="Arial, Helvetica, sans-serif" font-size="11.00" fill="#145a32">User Downloads Folder</text>
</g>
<!-- ChromeDownloads&#45;&gt;CSVOutput -->
<g id="edge38" class="edge">
<title>ChromeDownloads&#45;&gt;CSVOutput</title>
<path fill="none" stroke="#1e8449" stroke-width="1.5" d="M2242.22,-87.94C2242.22,-93.11 2242.22,-97 2242.22,-97 2242.22,-97 2761.38,-97 2761.38,-97 2761.38,-97 2761.38,-96.09 2761.38,-96.09"/>
<polygon fill="#1e8449" stroke="#1e8449" stroke-width="1.5" points="2761.38,-89.77 2764.75,-97.27 2761.63,-91.69 2761.63,-97.27 2761.38,-97.27 2761.13,-97.27 2761.13,-91.69 2758,-97.27 2761.38,-89.77"/>
<text xml:space="preserve" text-anchor="middle" x="2478.6" y="-98.95" font-family="Arial, Helvetica, sans-serif" font-size="9.00" fill="#1e8449">saves file</text>
</g>
</g>
</svg>
