<?xml version="1.0" encoding="UTF-8" standalone="no"?>
<!DOCTYPE svg PUBLIC "-//W3C//DTD SVG 1.1//EN"
 "http://www.w3.org/Graphics/SVG/1.1/DTD/svg11.dtd">
<!-- Generated by graphviz version 14.1.5 (20260411.2331)
 -->
<!-- Title: EcommercePlugin Pages: 1 -->
<svg width="1597pt" height="1702pt"
 viewBox="0.00 0.00 1597.00 1702.00" xmlns="http://www.w3.org/2000/svg" xmlns:xlink="http://www.w3.org/1999/xlink">
<g id="graph0" class="graph" transform="scale(1 1) rotate(0) translate(86.4 1615.5)">
<title>EcommercePlugin</title>
<polygon fill="#f8fafc" stroke="none" points="-86.4,86.4 -86.4,-1615.5 1510.4,-1615.5 1510.4,86.4 -86.4,86.4"/>
<g id="clust1" class="cluster">
<title>cluster_popup</title>
<path fill="#ebf5fb" stroke="#2980b9" stroke-width="2.5" d="M371,-1262.55C371,-1262.55 745,-1262.55 745,-1262.55 751,-1262.55 757,-1268.55 757,-1274.55 757,-1274.55 757,-1389.15 757,-1389.15 757,-1395.15 751,-1401.15 745,-1401.15 745,-1401.15 371,-1401.15 371,-1401.15 365,-1401.15 359,-1395.15 359,-1389.15 359,-1389.15 359,-1274.55 359,-1274.55 359,-1268.55 365,-1262.55 371,-1262.55"/>
<text xml:space="preserve" text-anchor="middle" x="558" y="-1385.75" font-family="Arial Bold" font-size="12.00" fill="#1a5276">Popup &#160;(popup.html + popup.js)</text>
</g>
<g id="clust2" class="cluster">
<title>cluster_scan</title>
<path fill="#f2f3f4" stroke="#7f8c8d" stroke-width="1.5" d="M20,-1114.7C20,-1114.7 397,-1114.7 397,-1114.7 403,-1114.7 409,-1120.7 409,-1126.7 409,-1126.7 409,-1202.3 409,-1202.3 409,-1208.3 403,-1214.3 397,-1214.3 397,-1214.3 20,-1214.3 20,-1214.3 14,-1214.3 8,-1208.3 8,-1202.3 8,-1202.3 8,-1126.7 8,-1126.7 8,-1120.7 14,-1114.7 20,-1114.7"/>
<text xml:space="preserve" text-anchor="middle" x="208.5" y="-1199.85" font-family="Arial Bold" font-size="11.00">Browser APIs &#160;(Scan flow only)</text>
</g>
<g id="clust3" class="cluster">
<title>cluster_background</title>
<path fill="#f4ecf7" stroke="#6c3483" stroke-width="3" d="M670,-419.95C670,-419.95 1404,-419.95 1404,-419.95 1410,-419.95 1416,-425.95 1416,-431.95 1416,-431.95 1416,-1210.55 1416,-1210.55 1416,-1216.55 1410,-1222.55 1404,-1222.55 1404,-1222.55 670,-1222.55 670,-1222.55 664,-1222.55 658,-1216.55 658,-1210.55 658,-1210.55 658,-431.95 658,-431.95 658,-425.95 664,-419.95 670,-419.95"/>
<text xml:space="preserve" text-anchor="middle" x="1037" y="-1206.2" font-family="Arial Bold" font-size="13.00" fill="#4a235a">Background Service Worker &#160;(background.js)</text>
</g>
<g id="clust4" class="cluster">
<title>cluster_external</title>
<path fill="#fdedec" stroke="#c0392b" stroke-width="2.5" d="M757,-151.25C757,-151.25 979,-151.25 979,-151.25 985,-151.25 991,-157.25 991,-163.25 991,-163.25 991,-239.6 991,-239.6 991,-245.6 985,-251.6 979,-251.6 979,-251.6 757,-251.6 757,-251.6 751,-251.6 745,-245.6 745,-239.6 745,-239.6 745,-163.25 745,-163.25 745,-157.25 751,-151.25 757,-151.25"/>
<text xml:space="preserve" text-anchor="middle" x="868" y="-236.2" font-family="Arial Bold" font-size="12.00" fill="#7b241c">External Services</text>
</g>
<!-- Legend -->
<g id="node1" class="node">
<title>Legend</title>
<path fill="lightgrey" stroke="none" stroke-width="1.5" d="M1407.88,-80.25C1407.88,-80.25 718.12,-80.25 718.12,-80.25 712.12,-80.25 706.12,-74.25 706.12,-68.25 706.12,-68.25 706.12,-12 706.12,-12 706.12,-6 712.12,0 718.12,0 718.12,0 1407.88,0 1407.88,0 1413.88,0 1419.88,-6 1419.88,-12 1419.88,-12 1419.88,-68.25 1419.88,-68.25 1419.88,-74.25 1413.88,-80.25 1407.88,-80.25"/>
<polygon fill="#ffffff" stroke="none" points="706.12,0 706.12,-80.25 1419.88,-80.25 1419.88,0 706.12,0"/>
<polygon fill="#2c3e50" stroke="none" points="708.12,-44 708.12,-78.25 1417.88,-78.25 1417.88,-44 708.12,-44"/>
<polygon fill="none" stroke="#7f8c8d" points="708.12,-44 708.12,-78.25 1417.88,-78.25 1417.88,-44 708.12,-44"/>
<text xml:space="preserve" text-anchor="start" x="1004.5" y="-57.85" font-family="Arial" font-size="11.00"> &#160;&#160;&#160;&#160;&#160;&#160;&#160;&#160;&#160;</text>
<text xml:space="preserve" text-anchor="start" x="1034.5" y="-57.85" font-family="Arial" font-weight="bold" font-size="12.00" fill="#ffffff"> &#160;LEGEND &#160;</text>
<text xml:space="preserve" text-anchor="start" x="1097.5" y="-57.85" font-family="Arial" font-size="11.00"> &#160;&#160;&#160;&#160;&#160;&#160;&#160;</text>
<polygon fill="#e8e8e8" stroke="none" points="708.12,-2 708.12,-44 855.62,-44 855.62,-2 708.12,-2"/>
<polygon fill="none" stroke="#7f8c8d" points="708.12,-2 708.12,-44 855.62,-44 855.62,-2 708.12,-2"/>
<text xml:space="preserve" text-anchor="start" x="718.12" y="-20.3" font-family="Arial" font-size="11.00"> &#160;&#160;&#160;&#160;&#160;&#160;&#160;&#160;&#160;</text>
<text xml:space="preserve" text-anchor="start" x="748.12" y="-20.3" font-family="Arial" font-size="9.00" fill="#2c3e50">▪  Chrome API call</text>
<text xml:space="preserve" text-anchor="start" x="821.62" y="-20.3" font-family="Arial" font-size="11.00"> &#160;&#160;&#160;&#160;&#160;&#160;&#160;</text>
<polygon fill="#d9eaf5" stroke="none" points="855.62,-2 855.62,-44 984.38,-44 984.38,-2 855.62,-2"/>
<polygon fill="none" stroke="#7f8c8d" points="855.62,-2 855.62,-44 984.38,-44 984.38,-2 855.62,-2"/>
<text xml:space="preserve" text-anchor="start" x="872" y="-24.55" font-family="Arial" font-size="11.00"> &#160;&#160;&#160;&#160;&#160;&#160;&#160;&#160;&#160;</text>
<text xml:space="preserve" text-anchor="start" x="902" y="-24.55" font-family="Arial" font-size="9.00" fill="#1a5276">▪  Persistent port</text>
<text xml:space="preserve" text-anchor="start" x="865.62" y="-13.55" font-family="Arial" font-size="9.00" fill="#1a5276">(streaming progress)</text>
<text xml:space="preserve" text-anchor="start" x="950.38" y="-13.55" font-family="Arial" font-size="11.00"> &#160;&#160;&#160;&#160;&#160;&#160;&#160;</text>
<polygon fill="#fad7a0" stroke="none" points="984.38,-2 984.38,-44 1138.62,-44 1138.62,-2 984.38,-2"/>
<polygon fill="none" stroke="#7f8c8d" points="984.38,-2 984.38,-44 1138.62,-44 1138.62,-2 984.38,-2"/>
<text xml:space="preserve" text-anchor="start" x="994.38" y="-24.55" font-family="Arial" font-size="11.00"> &#160;&#160;&#160;&#160;&#160;&#160;&#160;&#160;&#160;</text>
<text xml:space="preserve" text-anchor="start" x="1024.38" y="-24.55" font-family="Arial" font-weight="bold" font-size="9.00" fill="#784212">★  LLM via Tool Router</text>
<text xml:space="preserve" text-anchor="start" x="996.25" y="-13.55" font-family="Arial" font-size="9.00" fill="#784212">(goes through invokeTool)</text>
<text xml:space="preserve" text-anchor="start" x="1102.75" y="-13.55" font-family="Arial" font-size="11.00"> &#160;&#160;&#160;&#160;&#160;&#160;&#160;</text>
<polygon fill="#fadbd8" stroke="none" points="1138.62,-2 1138.62,-44 1277.12,-44 1277.12,-2 1138.62,-2"/>
<polygon fill="none" stroke="#7f8c8d" points="1138.62,-2 1138.62,-44 1277.12,-44 1277.12,-2 1138.62,-2"/>
<text xml:space="preserve" text-anchor="start" x="1150.88" y="-24.55" font-family="Arial" font-size="11.00"> &#160;&#160;&#160;&#160;&#160;&#160;&#160;&#160;&#160;</text>
<text xml:space="preserve" text-anchor="start" x="1180.88" y="-24.55" font-family="Arial" font-weight="bold" font-size="9.00" fill="#7b241c">★  Direct LLM call</text>
<text xml:space="preserve" text-anchor="start" x="1148.62" y="-13.55" font-family="Arial" font-size="9.00" fill="#7b241c">(bypasses Tool Router)</text>
<text xml:space="preserve" text-anchor="start" x="1243.12" y="-13.55" font-family="Arial" font-size="11.00"> &#160;&#160;&#160;&#160;&#160;&#160;&#160;</text>
<polygon fill="#d5f5e3" stroke="none" points="1277.12,-2 1277.12,-44 1417.88,-44 1417.88,-2 1277.12,-2"/>
<polygon fill="none" stroke="#7f8c8d" points="1277.12,-2 1277.12,-44 1417.88,-44 1417.88,-2 1277.12,-2"/>
<text xml:space="preserve" text-anchor="start" x="1287.12" y="-20.3" font-family="Arial" font-size="11.00"> &#160;&#160;&#160;&#160;&#160;&#160;&#160;&#160;&#160;</text>
<text xml:space="preserve" text-anchor="start" x="1317.12" y="-20.3" font-family="Arial" font-size="9.00" fill="#145a32">▪  No AI involved</text>
<text xml:space="preserve" text-anchor="start" x="1383.88" y="-20.3" font-family="Arial" font-size="11.00"> &#160;&#160;&#160;&#160;&#160;&#160;&#160;</text>
<polygon fill="none" stroke="#7f8c8d" stroke-width="2" points="707.12,-1 707.12,-79.25 1418.88,-79.25 1418.88,-1 707.12,-1"/>
</g>
<!-- User -->
<g id="node2" class="node">
<title>User</title>
<ellipse fill="#2c3e50" stroke="black" stroke-width="0" cx="558" cy="-1489.5" rx="39.6" ry="39.6"/>
<text xml:space="preserve" text-anchor="middle" x="558" y="-1484.65" font-family="Arial" font-size="13.00" fill="#ffffff">User</text>
</g>
<!-- Popup -->
<g id="node3" class="node">
<title>Popup</title>
<path fill="#2e86c1" stroke="black" stroke-width="1.5" d="M737.25,-1370.9C737.25,-1370.9 378.75,-1370.9 378.75,-1370.9 372.75,-1370.9 366.75,-1364.9 366.75,-1358.9 366.75,-1358.9 366.75,-1282.55 366.75,-1282.55 366.75,-1276.55 372.75,-1270.55 378.75,-1270.55 378.75,-1270.55 737.25,-1270.55 737.25,-1270.55 743.25,-1270.55 749.25,-1276.55 749.25,-1282.55 749.25,-1282.55 749.25,-1358.9 749.25,-1358.9 749.25,-1364.9 743.25,-1370.9 737.25,-1370.9"/>
<text xml:space="preserve" text-anchor="middle" x="558" y="-1349.65" font-family="Arial" font-size="11.00" fill="#ffffff">Popup UI &amp; Controller</text>
<text xml:space="preserve" text-anchor="middle" x="558" y="-1336.15" font-family="Arial" font-size="11.00" fill="#ffffff">━━━━━━━━━━━━━━━━━━━━━━</text>
<text xml:space="preserve" text-anchor="middle" x="558" y="-1324.9" font-family="Arial" font-size="11.00" fill="#ffffff">Scan Tabs button</text>
<text xml:space="preserve" text-anchor="middle" x="558" y="-1311.4" font-family="Arial" font-size="11.00" fill="#ffffff">Compare &amp; CSV button</text>
<text xml:space="preserve" text-anchor="middle" x="558" y="-1297.9" font-family="Arial" font-size="11.00" fill="#ffffff">Summarize button</text>
<text xml:space="preserve" text-anchor="middle" x="558" y="-1284.4" font-family="Arial" font-size="11.00" fill="#ffffff">API Key settings panel</text>
</g>
<!-- User&#45;&gt;Popup -->
<g id="edge3" class="edge">
<title>User&#45;&gt;Popup</title>
<path fill="none" stroke="#566573" stroke-width="1.5" d="M558,-1449.93C558,-1449.93 558,-1381.41 558,-1381.41"/>
<polygon fill="#566573" stroke="#566573" stroke-width="1.5" points="558,-1373.41 561.6,-1381.41 558.25,-1375.58 558.25,-1381.41 558,-1381.41 557.75,-1381.41 557.75,-1375.58 554.4,-1381.41 558,-1373.41"/>
<text xml:space="preserve" text-anchor="middle" x="531" y="-1417.62" font-family="Arial" font-size="9.00" fill="#566573">opens popup</text>
</g>
<!-- ChromeTabs -->
<g id="node4" class="node">
<title>ChromeTabs</title>
<path fill="#bdc3c7" stroke="black" stroke-width="1.5" d="M162.2,-1178.05C162.2,-1178.05 27.8,-1178.05 27.8,-1178.05 21.8,-1178.05 15.8,-1172.05 15.8,-1166.05 15.8,-1166.05 15.8,-1141.45 15.8,-1141.45 15.8,-1135.45 21.8,-1129.45 27.8,-1129.45 27.8,-1129.45 162.2,-1129.45 162.2,-1129.45 168.2,-1129.45 174.2,-1135.45 174.2,-1141.45 174.2,-1141.45 174.2,-1166.05 174.2,-1166.05 174.2,-1172.05 168.2,-1178.05 162.2,-1178.05"/>
<text xml:space="preserve" text-anchor="middle" x="95" y="-1156.8" font-family="Arial" font-size="11.00" fill="#2c3e50">chrome.tabs</text>
<text xml:space="preserve" text-anchor="middle" x="95" y="-1143.3" font-family="Arial" font-size="11.00" fill="#2c3e50">Find all open tabs</text>
</g>
<!-- Popup&#45;&gt;ChromeTabs -->
<g id="edge4" class="edge">
<title>Popup&#45;&gt;ChromeTabs</title>
<path fill="none" stroke="#7f8c8d" stroke-width="1.5" stroke-dasharray="5,2" d="M366,-1321C238.71,-1321 95,-1321 95,-1321 95,-1321 95,-1188.62 95,-1188.62"/>
<polygon fill="#7f8c8d" stroke="#7f8c8d" stroke-width="1.5" points="95,-1180.62 98.6,-1188.62 95.25,-1182.79 95.25,-1188.62 95,-1188.62 94.75,-1188.62 94.75,-1182.79 91.4,-1188.62 95,-1180.62"/>
<text xml:space="preserve" text-anchor="middle" x="126.44" y="-1322.95" font-family="Arial" font-size="9.00" fill="#7f8c8d">1. query open tabs</text>
</g>
<!-- ChromeScripting -->
<g id="node5" class="node">
<title>ChromeScripting</title>
<path fill="#bdc3c7" stroke="black" stroke-width="1.5" d="M389,-1184.8C389,-1184.8 233,-1184.8 233,-1184.8 227,-1184.8 221,-1178.8 221,-1172.8 221,-1172.8 221,-1134.7 221,-1134.7 221,-1128.7 227,-1122.7 233,-1122.7 233,-1122.7 389,-1122.7 389,-1122.7 395,-1122.7 401,-1128.7 401,-1134.7 401,-1134.7 401,-1172.8 401,-1172.8 401,-1178.8 395,-1184.8 389,-1184.8"/>
<text xml:space="preserve" text-anchor="middle" x="311" y="-1163.55" font-family="Arial" font-size="11.00" fill="#2c3e50">chrome.scripting</text>
<text xml:space="preserve" text-anchor="middle" x="311" y="-1150.05" font-family="Arial" font-size="11.00" fill="#2c3e50">Inject extractor script</text>
<text xml:space="preserve" text-anchor="middle" x="311" y="-1136.55" font-family="Arial" font-size="11.00" fill="#2c3e50">into each product tab</text>
</g>
<!-- Popup&#45;&gt;ChromeScripting -->
<g id="edge5" class="edge">
<title>Popup&#45;&gt;ChromeScripting</title>
<path fill="none" stroke="#7f8c8d" stroke-width="1.5" stroke-dasharray="5,2" d="M383.88,-1270.17C383.88,-1270.17 383.88,-1195.31 383.88,-1195.31"/>
<polygon fill="#7f8c8d" stroke="#7f8c8d" stroke-width="1.5" points="383.88,-1187.31 387.48,-1195.31 384.13,-1189.48 384.13,-1195.31 383.88,-1195.31 383.63,-1195.31 383.63,-1189.48 380.28,-1195.31 383.88,-1187.31"/>
<text xml:space="preserve" text-anchor="middle" x="349.38" y="-1234.69" font-family="Arial" font-size="9.00" fill="#7f8c8d">2. inject extractor</text>
</g>
<!-- PortListener -->
<g id="node8" class="node">
<title>PortListener</title>
<path fill="#d7bde2" stroke="black" stroke-width="1.5" d="M901,-1191.55C901,-1191.55 709,-1191.55 709,-1191.55 703,-1191.55 697,-1185.55 697,-1179.55 697,-1179.55 697,-1127.95 697,-1127.95 697,-1121.95 703,-1115.95 709,-1115.95 709,-1115.95 901,-1115.95 901,-1115.95 907,-1115.95 913,-1121.95 913,-1127.95 913,-1127.95 913,-1179.55 913,-1179.55 913,-1185.55 907,-1191.55 901,-1191.55"/>
<text xml:space="preserve" text-anchor="middle" x="805" y="-1170.3" font-family="Arial" font-size="11.00" fill="#4a235a">Port Listener</text>
<text xml:space="preserve" text-anchor="middle" x="805" y="-1156.8" font-family="Arial" font-size="11.00" fill="#4a235a">&#39;compareProgress&#39; channel</text>
<text xml:space="preserve" text-anchor="middle" x="805" y="-1143.3" font-family="Arial" font-size="11.00" fill="#4a235a">Receives the compare request;</text>
<text xml:space="preserve" text-anchor="middle" x="805" y="-1129.8" font-family="Arial" font-size="11.00" fill="#4a235a">streams progress events back</text>
</g>
<!-- Popup&#45;&gt;PortListener -->
<g id="edge9" class="edge">
<title>Popup&#45;&gt;PortListener</title>
<path fill="none" stroke="#7d3c98" stroke-width="2.5" d="M723.12,-1259.13C723.12,-1259.13 723.12,-1203.24 723.12,-1203.24"/>
<polygon fill="#7d3c98" stroke="#7d3c98" stroke-width="2.5" points="723.13,-1267.13 719.53,-1259.13 722.38,-1266.17 722.38,-1259.13 723.13,-1259.13 723.88,-1259.13 723.88,-1266.17 726.73,-1259.13 723.13,-1267.13"/>
<polygon fill="#7d3c98" stroke="#7d3c98" stroke-width="2.5" points="723.13,-1195.24 726.73,-1203.24 723.88,-1196.19 723.88,-1203.24 723.13,-1203.24 722.38,-1203.24 722.38,-1196.19 719.53,-1203.24 723.13,-1195.24"/>
<text xml:space="preserve" text-anchor="middle" x="638.38" y="-1233.13" font-family="Arial" font-size="9.00" fill="#7d3c98">runtime.connect() &#160;&#39;compareProgress&#39; port</text>
</g>
<!-- MsgListener -->
<g id="node9" class="node">
<title>MsgListener</title>
<path fill="#d7bde2" stroke="black" stroke-width="1.5" d="M873,-999.15C873,-999.15 681,-999.15 681,-999.15 675,-999.15 669,-993.15 669,-987.15 669,-987.15 669,-935.55 669,-935.55 669,-929.55 675,-923.55 681,-923.55 681,-923.55 873,-923.55 873,-923.55 879,-923.55 885,-929.55 885,-935.55 885,-935.55 885,-987.15 885,-987.15 885,-993.15 879,-999.15 873,-999.15"/>
<text xml:space="preserve" text-anchor="middle" x="777" y="-977.9" font-family="Arial" font-size="11.00" fill="#4a235a">Message Listener</text>
<text xml:space="preserve" text-anchor="middle" x="777" y="-964.4" font-family="Arial" font-size="11.00" fill="#4a235a">Handles: summarizeProducts</text>
<text xml:space="preserve" text-anchor="middle" x="777" y="-950.9" font-family="Arial" font-size="11.00" fill="#4a235a">productDetected</text>
<text xml:space="preserve" text-anchor="middle" x="777" y="-937.4" font-family="Arial" font-size="11.00" fill="#4a235a">getDetectedProducts</text>
</g>
<!-- Popup&#45;&gt;MsgListener -->
<g id="edge19" class="edge">
<title>Popup&#45;&gt;MsgListener</title>
<path fill="none" stroke="#c0392b" stroke-width="2.5" d="M687.67,-1258.95C687.67,-1258.95 687.67,-1010.76 687.67,-1010.76"/>
<polygon fill="#c0392b" stroke="#c0392b" stroke-width="2.5" points="687.67,-1266.95 684.07,-1258.95 686.92,-1266 686.92,-1258.95 687.67,-1258.95 688.42,-1258.95 688.42,-1266 691.27,-1258.95 687.67,-1266.95"/>
<polygon fill="#c0392b" stroke="#c0392b" stroke-width="2.5" points="687.67,-1002.76 691.27,-1010.76 688.42,-1003.71 688.42,-1010.76 687.67,-1010.76 686.92,-1010.76 686.92,-1003.71 684.07,-1010.76 687.67,-1002.76"/>
<text xml:space="preserve" text-anchor="middle" x="651.85" y="-1126.31" font-family="Arial" font-size="9.00" fill="#c0392b">sendMessage &#160;summarizeProducts</text>
</g>
<!-- WebPages -->
<g id="node6" class="node">
<title>WebPages</title>
<path fill="#fae5d3" stroke="#ca6f1e" stroke-width="1.5" d="M520,-1003.88C520,-1009.09 471.59,-1013.33 412,-1013.33 352.41,-1013.33 304,-1009.09 304,-1003.88 304,-1003.88 304,-918.83 304,-918.83 304,-913.61 352.41,-909.38 412,-909.38 471.59,-909.38 520,-913.61 520,-918.83 520,-918.83 520,-1003.88 520,-1003.88"/>
<path fill="none" stroke="#ca6f1e" stroke-width="1.5" d="M520,-1003.88C520,-998.66 471.59,-994.42 412,-994.42 352.41,-994.42 304,-998.66 304,-1003.88"/>
<text xml:space="preserve" text-anchor="middle" x="412" y="-977.9" font-family="Arial" font-size="11.00" fill="#784212">Product Page DOM</text>
<text xml:space="preserve" text-anchor="middle" x="412" y="-964.4" font-family="Arial" font-size="11.00" fill="#784212">(Amazon · eBay · any site)</text>
<text xml:space="preserve" text-anchor="middle" x="412" y="-950.9" font-family="Arial" font-size="11.00" fill="#784212">Script extracts: name, price,</text>
<text xml:space="preserve" text-anchor="middle" x="412" y="-937.4" font-family="Arial" font-size="11.00" fill="#784212">category, URL — returns to Popup</text>
</g>
<!-- ChromeScripting&#45;&gt;WebPages -->
<g id="edge6" class="edge">
<title>ChromeScripting&#45;&gt;WebPages</title>
<path fill="none" stroke="#ca6f1e" stroke-width="1.5" stroke-dasharray="5,2" d="M352.5,-1111.71C352.5,-1111.71 352.5,-1023.7 352.5,-1023.7"/>
<polygon fill="#ca6f1e" stroke="#ca6f1e" stroke-width="1.5" points="349.7,-1111.71 352.5,-1119.71 355.3,-1111.71 349.7,-1111.71"/>
<polygon fill="#ca6f1e" stroke="#ca6f1e" stroke-width="1.5" points="352.5,-1015.7 356.1,-1023.7 352.75,-1017.87 352.75,-1023.7 352.5,-1023.7 352.25,-1023.7 352.25,-1017.87 348.9,-1023.7 352.5,-1015.7"/>
<text xml:space="preserve" text-anchor="middle" x="283.88" y="-1069.65" font-family="Arial" font-size="9.00" fill="#ca6f1e">runs script → returns product data</text>
</g>
<!-- ContentJS -->
<g id="node7" class="node">
<title>ContentJS</title>
<path fill="#1e8449" stroke="black" stroke-width="1.5" d="M637.8,-1191.55C637.8,-1191.55 460.2,-1191.55 460.2,-1191.55 454.2,-1191.55 448.2,-1185.55 448.2,-1179.55 448.2,-1179.55 448.2,-1127.95 448.2,-1127.95 448.2,-1121.95 454.2,-1115.95 460.2,-1115.95 460.2,-1115.95 637.8,-1115.95 637.8,-1115.95 643.8,-1115.95 649.8,-1121.95 649.8,-1127.95 649.8,-1127.95 649.8,-1179.55 649.8,-1179.55 649.8,-1185.55 643.8,-1191.55 637.8,-1191.55"/>
<text xml:space="preserve" text-anchor="middle" x="549" y="-1170.3" font-family="Arial" font-size="11.00" fill="#ffffff">content.js</text>
<text xml:space="preserve" text-anchor="middle" x="549" y="-1156.8" font-family="Arial" font-size="11.00" fill="#ffffff">Passive product detector</text>
<text xml:space="preserve" text-anchor="middle" x="549" y="-1143.3" font-family="Arial" font-size="11.00" fill="#ffffff">Runs automatically on every</text>
<text xml:space="preserve" text-anchor="middle" x="549" y="-1129.8" font-family="Arial" font-size="11.00" fill="#ffffff">page load &#160;(no user action)</text>
</g>
<!-- ContentJS&#45;&gt;WebPages -->
<g id="edge7" class="edge">
<title>ContentJS&#45;&gt;WebPages</title>
<path fill="none" stroke="#1e8449" stroke-width="1.5" stroke-dasharray="5,2" d="M484.1,-1115.28C484.1,-1115.28 484.1,-1022.71 484.1,-1022.71"/>
<polygon fill="#1e8449" stroke="#1e8449" stroke-width="1.5" points="484.1,-1014.71 487.7,-1022.71 484.35,-1016.88 484.35,-1022.71 484.1,-1022.71 483.85,-1022.71 483.85,-1016.88 480.5,-1022.71 484.1,-1014.71"/>
<text xml:space="preserve" text-anchor="middle" x="444.35" y="-1070.94" font-family="Arial" font-size="9.00" fill="#1e8449">reads DOM on load</text>
</g>
<!-- ContentJS&#45;&gt;MsgListener -->
<g id="edge8" class="edge">
<title>ContentJS&#45;&gt;MsgListener</title>
<path fill="none" stroke="#27ae60" stroke-width="1.5" d="M650.27,-1154C666.63,-1154 678.33,-1154 678.33,-1154 678.33,-1154 678.33,-1009.7 678.33,-1009.7"/>
<polygon fill="#27ae60" stroke="#27ae60" stroke-width="1.5" points="678.33,-1001.7 681.93,-1009.7 678.58,-1003.87 678.58,-1009.7 678.33,-1009.7 678.08,-1009.7 678.08,-1003.87 674.73,-1009.7 678.33,-1001.7"/>
<text xml:space="preserve" text-anchor="middle" x="631.08" y="-1097.83" font-family="Arial" font-size="9.00" fill="#27ae60">sends productDetected</text>
</g>
<!-- Dispatcher -->
<g id="node10" class="node">
<title>Dispatcher</title>
<path fill="#6c3483" stroke="black" stroke-width="2.5" d="M1067.34,-1031.44C1067.34,-1031.44 942.41,-966.86 942.41,-966.86 937.08,-964.11 937.08,-958.59 942.41,-955.84 942.41,-955.84 1067.34,-891.26 1067.34,-891.26 1072.67,-888.51 1083.33,-888.51 1088.66,-891.26 1088.66,-891.26 1213.59,-955.84 1213.59,-955.84 1218.92,-958.59 1218.92,-964.11 1213.59,-966.86 1213.59,-966.86 1088.66,-1031.44 1088.66,-1031.44 1083.33,-1034.19 1072.67,-1034.19 1067.34,-1031.44"/>
<text xml:space="preserve" text-anchor="middle" x="1078" y="-977.9" font-family="Arial" font-size="11.00" fill="#ffffff">Tool Router</text>
<text xml:space="preserve" text-anchor="middle" x="1078" y="-964.4" font-family="Arial" font-size="11.00" fill="#ffffff">(invokeTool dispatcher)</text>
<text xml:space="preserve" text-anchor="middle" x="1078" y="-950.9" font-family="Arial" font-size="11.00" fill="#ffffff">Looks up tool by name</text>
<text xml:space="preserve" text-anchor="middle" x="1078" y="-937.4" font-family="Arial" font-size="11.00" fill="#ffffff">and calls it</text>
</g>
<!-- PortListener&#45;&gt;Dispatcher -->
<g id="edge10" class="edge">
<title>PortListener&#45;&gt;Dispatcher</title>
<path fill="none" stroke="#5b2c6f" stroke-width="2" d="M900.93,-1115.47C900.93,-1077.52 900.93,-1025 900.93,-1025 900.93,-1025 1041.82,-1025 1041.82,-1025"/>
<polygon fill="#5b2c6f" stroke="#5b2c6f" stroke-width="2" points="1049.82,-1025 1041.82,-1028.6 1048.25,-1025.5 1041.82,-1025.5 1041.82,-1025 1041.82,-1024.5 1048.25,-1024.5 1041.82,-1021.4 1049.82,-1025"/>
<text xml:space="preserve" text-anchor="middle" x="880.77" y="-1026.95" font-family="Arial" font-size="9.00" fill="#5b2c6f">routes to compare tool</text>
</g>
<!-- ToolSummarize -->
<g id="node14" class="node">
<title>ToolSummarize</title>
<path fill="#8e44ad" stroke="black" stroke-width="1.5" d="M875,-806.75C875,-806.75 683,-806.75 683,-806.75 677,-806.75 671,-800.75 671,-794.75 671,-794.75 671,-743.15 671,-743.15 671,-737.15 677,-731.15 683,-731.15 683,-731.15 875,-731.15 875,-731.15 881,-731.15 887,-737.15 887,-743.15 887,-743.15 887,-794.75 887,-794.75 887,-800.75 881,-806.75 875,-806.75"/>
<text xml:space="preserve" text-anchor="middle" x="779" y="-785.5" font-family="Arial" font-size="11.00" fill="#ffffff">Summarize Products</text>
<text xml:space="preserve" text-anchor="middle" x="779" y="-772" font-family="Arial" font-size="11.00" fill="#ffffff">(entry point)</text>
<text xml:space="preserve" text-anchor="middle" x="779" y="-758.5" font-family="Arial" font-size="11.00" fill="#ffffff">Loops over selected products;</text>
<text xml:space="preserve" text-anchor="middle" x="779" y="-745" font-family="Arial" font-size="11.00" fill="#ffffff">collects per&#45;product summaries</text>
</g>
<!-- MsgListener&#45;&gt;ToolSummarize -->
<g id="edge20" class="edge">
<title>MsgListener&#45;&gt;ToolSummarize</title>
<path fill="none" stroke="#c0392b" stroke-width="2" d="M778,-922.88C778,-922.88 778,-817.79 778,-817.79"/>
<polygon fill="#c0392b" stroke="#c0392b" stroke-width="2" points="778,-809.79 781.6,-817.79 778.5,-811.36 778.5,-817.79 778,-817.79 777.5,-817.79 777.5,-811.36 774.4,-817.79 778,-809.79"/>
<text xml:space="preserve" text-anchor="middle" x="742.38" y="-872.29" font-family="Arial" font-size="9.00" fill="#c0392b">dispatches to tool</text>
</g>
<!-- ToolOrch -->
<g id="node11" class="node">
<title>ToolOrch</title>
<path fill="#8e44ad" stroke="black" stroke-width="1.5" d="M1174,-806.75C1174,-806.75 982,-806.75 982,-806.75 976,-806.75 970,-800.75 970,-794.75 970,-794.75 970,-743.15 970,-743.15 970,-737.15 976,-731.15 982,-731.15 982,-731.15 1174,-731.15 1174,-731.15 1180,-731.15 1186,-737.15 1186,-743.15 1186,-743.15 1186,-794.75 1186,-794.75 1186,-800.75 1180,-806.75 1174,-806.75"/>
<text xml:space="preserve" text-anchor="middle" x="1078" y="-785.5" font-family="Arial" font-size="11.00" fill="#ffffff">Compare Products</text>
<text xml:space="preserve" text-anchor="middle" x="1078" y="-772" font-family="Arial" font-size="11.00" fill="#ffffff">(orchestrator)</text>
<text xml:space="preserve" text-anchor="middle" x="1078" y="-758.5" font-family="Arial" font-size="11.00" fill="#ffffff">Loops over every tab pair;</text>
<text xml:space="preserve" text-anchor="middle" x="1078" y="-745" font-family="Arial" font-size="11.00" fill="#ffffff">collects results then exports</text>
</g>
<!-- Dispatcher&#45;&gt;ToolOrch -->
<g id="edge11" class="edge">
<title>Dispatcher&#45;&gt;ToolOrch</title>
<path fill="none" stroke="#7d3c98" stroke-width="2" d="M1078,-884.48C1078,-884.48 1078,-817.84 1078,-817.84"/>
<polygon fill="#7d3c98" stroke="#7d3c98" stroke-width="2" points="1078,-809.84 1081.6,-817.84 1078.5,-811.4 1078.5,-817.84 1078,-817.84 1077.5,-817.84 1077.5,-811.4 1074.4,-817.84 1078,-809.84"/>
<text xml:space="preserve" text-anchor="middle" x="1014.62" y="-853.11" font-family="Arial" font-size="9.00" fill="#7d3c98">compareProductsWithProgress</text>
</g>
<!-- ToolPair -->
<g id="node12" class="node">
<title>ToolPair</title>
<path fill="#8e44ad" stroke="black" stroke-width="1.5" d="M1161.2,-648.4C1161.2,-648.4 954.8,-648.4 954.8,-648.4 948.8,-648.4 942.8,-642.4 942.8,-636.4 942.8,-636.4 942.8,-598.3 942.8,-598.3 942.8,-592.3 948.8,-586.3 954.8,-586.3 954.8,-586.3 1161.2,-586.3 1161.2,-586.3 1167.2,-586.3 1173.2,-592.3 1173.2,-598.3 1173.2,-598.3 1173.2,-636.4 1173.2,-636.4 1173.2,-642.4 1167.2,-648.4 1161.2,-648.4"/>
<text xml:space="preserve" text-anchor="middle" x="1058" y="-627.15" font-family="Arial" font-size="11.00" fill="#ffffff">Compare Pair</text>
<text xml:space="preserve" text-anchor="middle" x="1058" y="-613.65" font-family="Arial" font-size="11.00" fill="#ffffff">Step 1 — keyword match &#160;(no LLM)</text>
<text xml:space="preserve" text-anchor="middle" x="1058" y="-600.15" font-family="Arial" font-size="11.00" fill="#ffffff">Step 2 — LLM if keywords disagree</text>
</g>
<!-- ToolOrch&#45;&gt;ToolPair -->
<g id="edge12" class="edge">
<title>ToolOrch&#45;&gt;ToolPair</title>
<path fill="none" stroke="#9b59b6" stroke-width="1.5" stroke-dasharray="5,2" d="M1071.6,-730.69C1071.6,-730.69 1071.6,-658.77 1071.6,-658.77"/>
<polygon fill="#9b59b6" stroke="#9b59b6" stroke-width="1.5" points="1071.6,-650.77 1075.2,-658.77 1071.85,-652.95 1071.85,-658.77 1071.6,-658.77 1071.35,-658.77 1071.35,-652.95 1068,-658.77 1071.6,-650.77"/>
<text xml:space="preserve" text-anchor="middle" x="1038.6" y="-696.68" font-family="Arial" font-size="9.00" fill="#9b59b6">for each tab pair</text>
</g>
<!-- ToolCsv -->
<g id="node17" class="node">
<title>ToolCsv</title>
<path fill="#8e44ad" stroke="black" stroke-width="1.5" d="M1395.6,-648.4C1395.6,-648.4 1232.4,-648.4 1232.4,-648.4 1226.4,-648.4 1220.4,-642.4 1220.4,-636.4 1220.4,-636.4 1220.4,-598.3 1220.4,-598.3 1220.4,-592.3 1226.4,-586.3 1232.4,-586.3 1232.4,-586.3 1395.6,-586.3 1395.6,-586.3 1401.6,-586.3 1407.6,-592.3 1407.6,-598.3 1407.6,-598.3 1407.6,-636.4 1407.6,-636.4 1407.6,-642.4 1401.6,-648.4 1395.6,-648.4"/>
<text xml:space="preserve" text-anchor="middle" x="1314" y="-627.15" font-family="Arial" font-size="11.00" fill="#ffffff">Build CSV</text>
<text xml:space="preserve" text-anchor="middle" x="1314" y="-613.65" font-family="Arial" font-size="11.00" fill="#ffffff">Formats comparison results</text>
<text xml:space="preserve" text-anchor="middle" x="1314" y="-600.15" font-family="Arial" font-size="11.00" fill="#ffffff">into a .csv string</text>
</g>
<!-- ToolOrch&#45;&gt;ToolCsv -->
<g id="edge15" class="edge">
<title>ToolOrch&#45;&gt;ToolCsv</title>
<path fill="none" stroke="#7d3c98" stroke-width="1.5" d="M1179.6,-730.61C1179.6,-685.59 1179.6,-617 1179.6,-617 1179.6,-617 1210.1,-617 1210.1,-617"/>
<polygon fill="#7d3c98" stroke="#7d3c98" stroke-width="1.5" points="1218.1,-617 1210.1,-620.6 1215.92,-617.25 1210.1,-617.25 1210.1,-617 1210.1,-616.75 1215.92,-616.75 1210.1,-613.4 1218.1,-617"/>
<text xml:space="preserve" text-anchor="middle" x="1153.35" y="-660.5" font-family="Arial" font-size="9.00" fill="#7d3c98">after all pairs</text>
</g>
<!-- ToolHeuristic -->
<g id="node13" class="node">
<title>ToolHeuristic</title>
<path fill="#d7bde2" stroke="black" stroke-dasharray="5,2" d="M1146.8,-496.8C1146.8,-496.8 969.2,-496.8 969.2,-496.8 963.2,-496.8 957.2,-490.8 957.2,-484.8 957.2,-484.8 957.2,-446.7 957.2,-446.7 957.2,-440.7 963.2,-434.7 969.2,-434.7 969.2,-434.7 1146.8,-434.7 1146.8,-434.7 1152.8,-434.7 1158.8,-440.7 1158.8,-446.7 1158.8,-446.7 1158.8,-484.8 1158.8,-484.8 1158.8,-490.8 1152.8,-496.8 1146.8,-496.8"/>
<text xml:space="preserve" text-anchor="middle" x="1058" y="-475.55" font-family="Arial" font-size="11.00" fill="#4a235a">Category Matcher</text>
<text xml:space="preserve" text-anchor="middle" x="1058" y="-462.05" font-family="Arial" font-size="11.00" fill="#4a235a">Keyword heuristic &#160;— &#160;no LLM</text>
<text xml:space="preserve" text-anchor="middle" x="1058" y="-448.55" font-family="Arial" font-size="11.00" fill="#4a235a">Fast; runs first for every pair</text>
</g>
<!-- ToolPair&#45;&gt;ToolHeuristic -->
<g id="edge13" class="edge">
<title>ToolPair&#45;&gt;ToolHeuristic</title>
<path fill="none" stroke="#2e86c1" stroke-width="1.5" d="M1058,-585.57C1058,-585.57 1058,-507.06 1058,-507.06"/>
<polygon fill="#2e86c1" stroke="#2e86c1" stroke-width="1.5" points="1058,-499.06 1061.6,-507.06 1058.25,-501.23 1058.25,-507.06 1058,-507.06 1057.75,-507.06 1057.75,-501.23 1054.4,-507.06 1058,-499.06"/>
<text xml:space="preserve" text-anchor="middle" x="992.38" y="-548.26" font-family="Arial" font-size="9.00" fill="#2e86c1">step 1: keyword check &#160;(no LLM)</text>
</g>
<!-- ToolGemini -->
<g id="node16" class="node">
<title>ToolGemini</title>
<path fill="#e67e22" stroke="#7d3c00" stroke-width="4" d="M898.4,-503.55C898.4,-503.55 677.6,-503.55 677.6,-503.55 671.6,-503.55 665.6,-497.55 665.6,-491.55 665.6,-491.55 665.6,-439.95 665.6,-439.95 665.6,-433.95 671.6,-427.95 677.6,-427.95 677.6,-427.95 898.4,-427.95 898.4,-427.95 904.4,-427.95 910.4,-433.95 910.4,-439.95 910.4,-439.95 910.4,-491.55 910.4,-491.55 910.4,-497.55 904.4,-503.55 898.4,-503.55"/>
<text xml:space="preserve" text-anchor="middle" x="788" y="-482.3" font-family="Arial" font-size="11.00" fill="#ffffff">callGemini &#160;— &#160;★ LLM Gateway</text>
<text xml:space="preserve" text-anchor="middle" x="788" y="-468.8" font-family="Arial" font-size="11.00" fill="#ffffff">All AI requests pass through here</text>
<text xml:space="preserve" text-anchor="middle" x="788" y="-455.3" font-family="Arial" font-size="11.00" fill="#ffffff">Reads API key from chrome.storage</text>
<text xml:space="preserve" text-anchor="middle" x="788" y="-441.8" font-family="Arial" font-size="11.00" fill="#ffffff">Calls Gemini REST API</text>
</g>
<!-- ToolPair&#45;&gt;ToolGemini -->
<g id="edge14" class="edge">
<title>ToolPair&#45;&gt;ToolGemini</title>
<path fill="none" stroke="#e67e22" stroke-width="2.8" stroke-dasharray="5,2" d="M942.15,-617C921.11,-617 905.67,-617 905.67,-617 905.67,-617 905.67,-516.9 905.67,-516.9"/>
<polygon fill="#e67e22" stroke="#e67e22" stroke-width="2.8" points="905.67,-508.9 909.27,-516.9 906.57,-509.49 906.57,-516.9 905.67,-516.9 904.77,-516.9 904.77,-509.49 902.07,-516.9 905.67,-508.9"/>
<text xml:space="preserve" text-anchor="middle" x="991.17" y="-576.64" font-family="Arial" font-size="9.00" fill="#e67e22">step 2: ★ LLM fallback &#160;(via Tool Router)</text>
</g>
<!-- SummarizeProduct -->
<g id="node15" class="node">
<title>SummarizeProduct</title>
<path fill="#c0392b" stroke="#7b241c" stroke-width="3.5" d="M884.2,-652.15C884.2,-652.15 677.8,-652.15 677.8,-652.15 671.8,-652.15 665.8,-646.15 665.8,-640.15 665.8,-640.15 665.8,-594.55 665.8,-594.55 665.8,-588.55 671.8,-582.55 677.8,-582.55 677.8,-582.55 884.2,-582.55 884.2,-582.55 890.2,-582.55 896.2,-588.55 896.2,-594.55 896.2,-594.55 896.2,-640.15 896.2,-640.15 896.2,-646.15 890.2,-652.15 884.2,-652.15"/>
<text xml:space="preserve" text-anchor="middle" x="781" y="-631.85" font-family="Arial" font-size="10.00" fill="#ffffff">Summarize Single Product</text>
<text xml:space="preserve" text-anchor="middle" x="781" y="-619.85" font-family="Arial" font-size="10.00" fill="#ffffff">★ &#160;DIRECT LLM CALL</text>
<text xml:space="preserve" text-anchor="middle" x="781" y="-607.85" font-family="Arial" font-size="10.00" fill="#ffffff">Calls callGemini() directly</text>
<text xml:space="preserve" text-anchor="middle" x="781" y="-595.85" font-family="Arial" font-size="10.00" fill="#ffffff">— skips Tool Router entirely</text>
</g>
<!-- ToolSummarize&#45;&gt;SummarizeProduct -->
<g id="edge21" class="edge">
<title>ToolSummarize&#45;&gt;SummarizeProduct</title>
<path fill="none" stroke="#c0392b" stroke-width="1.5" d="M779,-730.69C779,-730.69 779,-663.59 779,-663.59"/>
<polygon fill="#c0392b" stroke="#c0392b" stroke-width="1.5" points="779,-655.59 782.6,-663.59 779.25,-657.76 779.25,-663.59 779,-663.59 778.75,-663.59 778.75,-657.76 775.4,-663.59 779,-655.59"/>
<text xml:space="preserve" text-anchor="middle" x="744.5" y="-699.09" font-family="Arial" font-size="9.00" fill="#c0392b">once per product</text>
</g>
<!-- SummarizeProduct&#45;&gt;ToolGemini -->
<g id="edge22" class="edge">
<title>SummarizeProduct&#45;&gt;ToolGemini</title>
<path fill="none" stroke="#c0392b" stroke-width="3.5" d="M781,-581.04C781,-581.04 781,-517.45 781,-517.45"/>
<polygon fill="#c0392b" stroke="#c0392b" stroke-width="3.5" points="781,-509.45 784.94,-517.45 782.25,-509.49 782.25,-517.45 781,-517.45 779.75,-517.45 779.75,-509.49 777.06,-517.45 781,-509.45"/>
<text xml:space="preserve" text-anchor="middle" x="700.75" y="-551.95" font-family="Arial" font-size="9.00" fill="#c0392b">★ Direct call — bypasses Tool Router</text>
</g>
<!-- GeminiAPI -->
<g id="node19" class="node">
<title>GeminiAPI</title>
<path fill="#e74c3c" stroke="#922b21" stroke-width="2.5" d="M971.2,-221.35C971.2,-221.35 764.8,-221.35 764.8,-221.35 758.8,-221.35 752.8,-215.35 752.8,-209.35 752.8,-209.35 752.8,-171.25 752.8,-171.25 752.8,-165.25 758.8,-159.25 764.8,-159.25 764.8,-159.25 971.2,-159.25 971.2,-159.25 977.2,-159.25 983.2,-165.25 983.2,-171.25 983.2,-171.25 983.2,-209.35 983.2,-209.35 983.2,-215.35 977.2,-221.35 971.2,-221.35"/>
<text xml:space="preserve" text-anchor="middle" x="868" y="-200.1" font-family="Arial" font-size="11.00" fill="#ffffff">Google Gemini API</text>
<text xml:space="preserve" text-anchor="middle" x="868" y="-186.6" font-family="Arial" font-size="11.00" fill="#ffffff">gemini&#45;2.5&#45;flash</text>
<text xml:space="preserve" text-anchor="middle" x="868" y="-173.1" font-family="Arial" font-size="11.00" fill="#ffffff">generativelanguage.googleapis.com</text>
</g>
<!-- ToolGemini&#45;&gt;GeminiAPI -->
<g id="edge23" class="edge">
<title>ToolGemini&#45;&gt;GeminiAPI</title>
<path fill="none" stroke="#922b21" stroke-width="3" d="M831.6,-414.34C831.6,-414.34 831.6,-233.98 831.6,-233.98"/>
<polygon fill="#922b21" stroke="#922b21" stroke-width="3" points="831.6,-422.34 828,-414.34 830.6,-421.99 830.6,-414.34 831.6,-414.34 832.6,-414.34 832.6,-421.99 835.2,-414.34 831.6,-422.34"/>
<polygon fill="#922b21" stroke="#922b21" stroke-width="3" points="831.6,-225.98 835.2,-233.98 832.6,-226.32 832.6,-233.98 831.6,-233.98 830.6,-233.98 830.6,-226.32 828,-233.98 831.6,-225.98"/>
<text xml:space="preserve" text-anchor="middle" x="725.47" y="-326.11" font-family="Arial" font-size="9.00" fill="#922b21">POST &#160;/v1/models/gemini&#45;2.5&#45;flash:generateContent</text>
</g>
<!-- ToolDownload -->
<g id="node18" class="node">
<title>ToolDownload</title>
<path fill="#8e44ad" stroke="black" stroke-width="1.5" d="M1395.8,-496.8C1395.8,-496.8 1218.2,-496.8 1218.2,-496.8 1212.2,-496.8 1206.2,-490.8 1206.2,-484.8 1206.2,-484.8 1206.2,-446.7 1206.2,-446.7 1206.2,-440.7 1212.2,-434.7 1218.2,-434.7 1218.2,-434.7 1395.8,-434.7 1395.8,-434.7 1401.8,-434.7 1407.8,-440.7 1407.8,-446.7 1407.8,-446.7 1407.8,-484.8 1407.8,-484.8 1407.8,-490.8 1401.8,-496.8 1395.8,-496.8"/>
<text xml:space="preserve" text-anchor="middle" x="1307" y="-475.55" font-family="Arial" font-size="11.00" fill="#ffffff">Trigger Download</text>
<text xml:space="preserve" text-anchor="middle" x="1307" y="-462.05" font-family="Arial" font-size="11.00" fill="#ffffff">Calls chrome.downloads API</text>
<text xml:space="preserve" text-anchor="middle" x="1307" y="-448.55" font-family="Arial" font-size="11.00" fill="#ffffff">to save the file to disk</text>
</g>
<!-- ToolCsv&#45;&gt;ToolDownload -->
<g id="edge16" class="edge">
<title>ToolCsv&#45;&gt;ToolDownload</title>
<path fill="none" stroke="#7d3c98" stroke-width="1.5" d="M1314,-585.57C1314,-585.57 1314,-507.32 1314,-507.32"/>
<polygon fill="#7d3c98" stroke="#7d3c98" stroke-width="1.5" points="1314,-499.32 1317.6,-507.32 1314.25,-501.49 1314.25,-507.32 1314,-507.32 1313.75,-507.32 1313.75,-501.49 1310.4,-507.32 1314,-499.32"/>
</g>
<!-- ChromeDownloads -->
<g id="node20" class="node">
<title>ChromeDownloads</title>
<path fill="#bdc3c7" stroke="black" stroke-width="1.5" d="M1372.6,-348.95C1372.6,-348.95 1209.4,-348.95 1209.4,-348.95 1203.4,-348.95 1197.4,-342.95 1197.4,-336.95 1197.4,-336.95 1197.4,-312.35 1197.4,-312.35 1197.4,-306.35 1203.4,-300.35 1209.4,-300.35 1209.4,-300.35 1372.6,-300.35 1372.6,-300.35 1378.6,-300.35 1384.6,-306.35 1384.6,-312.35 1384.6,-312.35 1384.6,-336.95 1384.6,-336.95 1384.6,-342.95 1378.6,-348.95 1372.6,-348.95"/>
<text xml:space="preserve" text-anchor="middle" x="1291" y="-327.7" font-family="Arial" font-size="11.00" fill="#2c3e50">chrome.downloads</text>
<text xml:space="preserve" text-anchor="middle" x="1291" y="-314.2" font-family="Arial" font-size="11.00" fill="#2c3e50">Saves file to disk</text>
</g>
<!-- ToolDownload&#45;&gt;ChromeDownloads -->
<g id="edge17" class="edge">
<title>ToolDownload&#45;&gt;ChromeDownloads</title>
<path fill="none" stroke="#7f8c8d" stroke-width="1.5" stroke-dasharray="5,2" d="M1295.4,-434.08C1295.4,-434.08 1295.4,-359.47 1295.4,-359.47"/>
<polygon fill="#7f8c8d" stroke="#7f8c8d" stroke-width="1.5" points="1295.4,-351.47 1299,-359.47 1295.65,-353.64 1295.65,-359.47 1295.4,-359.47 1295.15,-359.47 1295.15,-353.64 1291.8,-359.47 1295.4,-351.47"/>
<text xml:space="preserve" text-anchor="middle" x="1232.03" y="-398.73" font-family="Arial" font-size="9.00" fill="#7f8c8d">chrome.downloads.download()</text>
</g>
<!-- GeminiAPI&#45;&gt;Legend -->
<!-- CSVOutput -->
<g id="node21" class="node">
<title>CSVOutput</title>
<polygon fill="#a9dfbf" stroke="#1e8449" stroke-width="1.5" points="1353.8,-214.6 1158.2,-214.6 1158.2,-166 1359.8,-166 1359.8,-208.6 1353.8,-214.6"/>
<polyline fill="none" stroke="#1e8449" stroke-width="1.5" points="1353.8,-214.6 1353.8,-208.6"/>
<polyline fill="none" stroke="#1e8449" stroke-width="1.5" points="1359.8,-208.6 1353.8,-208.6"/>
<text xml:space="preserve" text-anchor="middle" x="1259" y="-193.35" font-family="Arial" font-size="11.00" fill="#145a32">product_comparison.csv</text>
<text xml:space="preserve" text-anchor="middle" x="1259" y="-179.85" font-family="Arial" font-size="11.00" fill="#145a32">saved to Downloads folder</text>
</g>
<!-- ChromeDownloads&#45;&gt;CSVOutput -->
<g id="edge18" class="edge">
<title>ChromeDownloads&#45;&gt;CSVOutput</title>
<path fill="none" stroke="#1e8449" stroke-width="1.5" d="M1278.6,-299.69C1278.6,-299.69 1278.6,-224.95 1278.6,-224.95"/>
<polygon fill="#1e8449" stroke="#1e8449" stroke-width="1.5" points="1278.6,-216.95 1282.2,-224.95 1278.85,-219.12 1278.85,-224.95 1278.6,-224.95 1278.35,-224.95 1278.35,-219.12 1275,-224.95 1278.6,-216.95"/>
<text xml:space="preserve" text-anchor="middle" x="1259.1" y="-264.27" font-family="Arial" font-size="9.00" fill="#1e8449">file saved</text>
</g>
<!-- CSVOutput&#45;&gt;Legend -->
</g>
</svg>
