<?xml version="1.0" encoding="UTF-8" standalone="no"?>
<!DOCTYPE svg PUBLIC "-//W3C//DTD SVG 1.1//EN"
 "http://www.w3.org/Graphics/SVG/1.1/DTD/svg11.dtd">
<!-- Generated by graphviz version 14.1.5 (20260411.2331)
 -->
<!-- Title: EcommercePlugin Pages: 1 -->
<svg width="2606pt" height="2189pt"
 viewBox="0.00 0.00 2606.00 2189.00" xmlns="http://www.w3.org/2000/svg" xmlns:xlink="http://www.w3.org/1999/xlink">
<g id="graph0" class="graph" transform="scale(1 1) rotate(0) translate(129.6 2058.98)">
<title>EcommercePlugin</title>
<polygon fill="#f8fafc" stroke="none" points="-129.6,129.6 -129.6,-2058.98 2476.8,-2058.98 2476.8,129.6 -129.6,129.6"/>
<g id="clust2" class="cluster">
<title>cluster_popup</title>
<path fill="#ebf5fb" stroke="#2980b9" stroke-width="2.5" d="M1524,-1384.85C1524,-1384.85 1818,-1384.85 1818,-1384.85 1824,-1384.85 1830,-1390.85 1830,-1396.85 1830,-1396.85 1830,-1694.95 1830,-1694.95 1830,-1700.95 1824,-1706.95 1818,-1706.95 1818,-1706.95 1524,-1706.95 1524,-1706.95 1518,-1706.95 1512,-1700.95 1512,-1694.95 1512,-1694.95 1512,-1396.85 1512,-1396.85 1512,-1390.85 1518,-1384.85 1524,-1384.85"/>
<text xml:space="preserve" text-anchor="middle" x="1671" y="-1690.6" font-family="Arial Bold" font-size="13.00" fill="#1a5276">Popup Layer</text>
</g>
<g id="clust3" class="cluster">
<title>cluster_content</title>
<path fill="#e9f7ef" stroke="#1e8449" stroke-width="2.5" d="M893,-1384.85C893,-1384.85 1101,-1384.85 1101,-1384.85 1107,-1384.85 1113,-1390.85 1113,-1396.85 1113,-1396.85 1113,-1481.15 1113,-1481.15 1113,-1487.15 1107,-1493.15 1101,-1493.15 1101,-1493.15 893,-1493.15 893,-1493.15 887,-1493.15 881,-1487.15 881,-1481.15 881,-1481.15 881,-1396.85 881,-1396.85 881,-1390.85 887,-1384.85 893,-1384.85"/>
<text xml:space="preserve" text-anchor="middle" x="997" y="-1476.8" font-family="Arial Bold" font-size="13.00" fill="#145a32">Content Layer</text>
</g>
<g id="clust4" class="cluster">
<title>cluster_scan</title>
<path fill="#f2f3f4" stroke="#7f8c8d" stroke-width="1.5" d="M1833,-1171.05C1833,-1171.05 2314,-1171.05 2314,-1171.05 2320,-1171.05 2326,-1177.05 2326,-1183.05 2326,-1183.05 2326,-1253.1 2326,-1253.1 2326,-1259.1 2320,-1265.1 2314,-1265.1 2314,-1265.1 1833,-1265.1 1833,-1265.1 1827,-1265.1 1821,-1259.1 1821,-1253.1 1821,-1253.1 1821,-1183.05 1821,-1183.05 1821,-1177.05 1827,-1171.05 1833,-1171.05"/>
<text xml:space="preserve" text-anchor="middle" x="2073.5" y="-1249.7" font-family="Arial Bold" font-size="12.00">Scan APIs</text>
</g>
<g id="clust5" class="cluster">
<title>cluster_background</title>
<path fill="#f4ecf7" stroke="#6c3483" stroke-width="3" d="M20,-227.17C20,-227.17 1801,-227.17 1801,-227.17 1807,-227.17 1813,-233.17 1813,-239.17 1813,-239.17 1813,-1284.85 1813,-1284.85 1813,-1290.85 1807,-1296.85 1801,-1296.85 1801,-1296.85 20,-1296.85 20,-1296.85 14,-1296.85 8,-1290.85 8,-1284.85 8,-1284.85 8,-239.17 8,-239.17 8,-233.17 14,-227.17 20,-227.17"/>
<text xml:space="preserve" text-anchor="middle" x="910.5" y="-1279.55" font-family="Arial Bold" font-size="14.00" fill="#4a235a">Background Service Worker &#160;(background.js)</text>
</g>
<g id="clust6" class="cluster">
<title>cluster_listeners</title>
<path fill="#ead8f5" stroke="#9b59b6" stroke-width="2" d="M822,-1171.05C822,-1171.05 1532,-1171.05 1532,-1171.05 1538,-1171.05 1544,-1177.05 1544,-1183.05 1544,-1183.05 1544,-1253.1 1544,-1253.1 1544,-1259.1 1538,-1265.1 1532,-1265.1 1532,-1265.1 822,-1265.1 822,-1265.1 816,-1265.1 810,-1259.1 810,-1253.1 810,-1253.1 810,-1183.05 810,-1183.05 810,-1177.05 816,-1171.05 822,-1171.05"/>
<text xml:space="preserve" text-anchor="middle" x="1177" y="-1249.7" font-family="Arial Bold" font-size="12.00" fill="#4a235a">Chrome Runtime Listeners</text>
</g>
<g id="clust7" class="cluster">
<title>cluster_tools</title>
<path fill="#ead8f5" stroke="#5b2c6f" stroke-width="2" d="M158,-235.17C158,-235.17 1793,-235.17 1793,-235.17 1799,-235.17 1805,-241.17 1805,-247.17 1805,-247.17 1805,-817.2 1805,-817.2 1805,-823.2 1799,-829.2 1793,-829.2 1793,-829.2 158,-829.2 158,-829.2 152,-829.2 146,-823.2 146,-817.2 146,-817.2 146,-247.17 146,-247.17 146,-241.17 152,-235.17 158,-235.17"/>
<text xml:space="preserve" text-anchor="middle" x="975.5" y="-813.8" font-family="Arial Bold" font-size="12.00" fill="#4a235a">Tool Registry</text>
</g>
<g id="clust8" class="cluster">
<title>cluster_cmp_tools</title>
<path fill="#e8daef" stroke="#8e44ad" stroke-width="1.5" d="M512,-243.17C512,-243.17 762,-243.17 762,-243.17 768,-243.17 774,-249.17 774,-255.17 774,-255.17 774,-786.95 774,-786.95 774,-792.95 768,-798.95 762,-798.95 762,-798.95 512,-798.95 512,-798.95 506,-798.95 500,-792.95 500,-786.95 500,-786.95 500,-255.17 500,-255.17 500,-249.17 506,-243.17 512,-243.17"/>
<text xml:space="preserve" text-anchor="middle" x="637" y="-784.5" font-family="Arial Bold" font-size="11.00" fill="#4a235a">Comparison Flow</text>
</g>
<g id="clust9" class="cluster">
<title>cluster_sum_tools</title>
<path fill="#fadbd8" stroke="#c0392b" stroke-width="1.5" d="M166,-464.85C166,-464.85 388,-464.85 388,-464.85 394,-464.85 400,-470.85 400,-476.85 400,-476.85 400,-786.95 400,-786.95 400,-792.95 394,-798.95 388,-798.95 388,-798.95 166,-798.95 166,-798.95 160,-798.95 154,-792.95 154,-786.95 154,-786.95 154,-476.85 154,-476.85 154,-470.85 160,-464.85 166,-464.85"/>
<text xml:space="preserve" text-anchor="middle" x="277" y="-784.5" font-family="Arial Bold" font-size="11.00" fill="#4a235a">Summarize Flow</text>
</g>
<g id="clust10" class="cluster">
<title>cluster_util_tools</title>
<path fill="#e8daef" stroke="#8e44ad" stroke-width="1.5" d="M901,-705.65C901,-705.65 1785,-705.65 1785,-705.65 1791,-705.65 1797,-711.65 1797,-717.65 1797,-717.65 1797,-786.95 1797,-786.95 1797,-792.95 1791,-798.95 1785,-798.95 1785,-798.95 901,-798.95 901,-798.95 895,-798.95 889,-792.95 889,-786.95 889,-786.95 889,-717.65 889,-717.65 889,-711.65 895,-705.65 901,-705.65"/>
<text xml:space="preserve" text-anchor="middle" x="1343" y="-784.5" font-family="Arial Bold" font-size="11.00" fill="#4a235a">Utility Tools &#160;(no LLM)</text>
</g>
<g id="clust11" class="cluster">
<title>cluster_external</title>
<path fill="#fdedec" stroke="#c0392b" stroke-width="2.5" d="M151,-8C151,-8 403,-8 403,-8 409,-8 415,-14 415,-20 415,-20 415,-104.3 415,-104.3 415,-110.3 409,-116.3 403,-116.3 403,-116.3 151,-116.3 151,-116.3 145,-116.3 139,-110.3 139,-104.3 139,-104.3 139,-20 139,-20 139,-14 145,-8 151,-8"/>
<text xml:space="preserve" text-anchor="middle" x="277" y="-99.95" font-family="Arial Bold" font-size="13.00" fill="#7b241c">External Services</text>
</g>
<g id="clust12" class="cluster">
<title>cluster_dl_api</title>
<path fill="#f2f3f4" stroke="#7f8c8d" stroke-width="1.5" d="M1833,-478.35C1833,-478.35 2013,-478.35 2013,-478.35 2019,-478.35 2025,-484.35 2025,-490.35 2025,-490.35 2025,-560.4 2025,-560.4 2025,-566.4 2019,-572.4 2013,-572.4 2013,-572.4 1833,-572.4 1833,-572.4 1827,-572.4 1821,-566.4 1821,-560.4 1821,-560.4 1821,-490.35 1821,-490.35 1821,-484.35 1827,-478.35 1833,-478.35"/>
<text xml:space="preserve" text-anchor="middle" x="1923" y="-557" font-family="Arial Bold" font-size="12.00">Chrome Download API</text>
</g>
<!-- Legend -->
<g id="node1" class="node">
<title>Legend</title>
<path fill="lightgrey" stroke="none" stroke-width="1.5" d="M1467.5,-1919.54C1467.5,-1919.54 420.5,-1919.54 420.5,-1919.54 414.5,-1919.54 408.5,-1913.54 408.5,-1907.54 408.5,-1907.54 408.5,-1855.79 408.5,-1855.79 408.5,-1849.79 414.5,-1843.79 420.5,-1843.79 420.5,-1843.79 1467.5,-1843.79 1467.5,-1843.79 1473.5,-1843.79 1479.5,-1849.79 1479.5,-1855.79 1479.5,-1855.79 1479.5,-1907.54 1479.5,-1907.54 1479.5,-1913.54 1473.5,-1919.54 1467.5,-1919.54"/>
<polygon fill="#ffffff" stroke="none" points="408.5,-1843.79 408.5,-1919.54 1479.5,-1919.54 1479.5,-1843.79 408.5,-1843.79"/>
<polygon fill="#2c3e50" stroke="none" points="410.5,-1881.29 410.5,-1917.54 1477.5,-1917.54 1477.5,-1881.29 410.5,-1881.29"/>
<polygon fill="none" stroke="#7f8c8d" points="410.5,-1881.29 410.5,-1917.54 1477.5,-1917.54 1477.5,-1881.29 410.5,-1881.29"/>
<text xml:space="preserve" text-anchor="start" x="885.5" y="-1896.14" font-family="Arial" font-size="11.00"> &#160;&#160;&#160;&#160;&#160;&#160;&#160;&#160;&#160;</text>
<text xml:space="preserve" text-anchor="start" x="915.5" y="-1896.14" font-family="Arial" font-weight="bold" font-size="12.00" fill="#ffffff">  LEGEND  </text>
<text xml:space="preserve" text-anchor="start" x="978.5" y="-1896.14" font-family="Arial" font-size="11.00"> &#160;&#160;&#160;&#160;&#160;&#160;&#160;</text>
<polygon fill="#e5e8e8" stroke="none" points="410.5,-1845.79 410.5,-1881.29 595.25,-1881.29 595.25,-1845.79 410.5,-1845.79"/>
<polygon fill="none" stroke="#7f8c8d" points="410.5,-1845.79 410.5,-1881.29 595.25,-1881.29 595.25,-1845.79 410.5,-1845.79"/>
<text xml:space="preserve" text-anchor="start" x="421.5" y="-1860.84" font-family="Arial" font-size="11.00"> &#160;&#160;&#160;&#160;&#160;&#160;&#160;&#160;&#160;</text>
<text xml:space="preserve" text-anchor="start" x="451.5" y="-1860.84" font-family="Arial" font-size="10.00" fill="#2c3e50">▪ Chrome API / message</text>
<text xml:space="preserve" text-anchor="start" x="560.25" y="-1860.84" font-family="Arial" font-size="11.00"> &#160;&#160;&#160;&#160;&#160;&#160;&#160;</text>
<polygon fill="#ead8f5" stroke="none" points="595.25,-1845.79 595.25,-1881.29 807,-1881.29 807,-1845.79 595.25,-1845.79"/>
<polygon fill="none" stroke="#7f8c8d" points="595.25,-1845.79 595.25,-1881.29 807,-1881.29 807,-1845.79 595.25,-1845.79"/>
<text xml:space="preserve" text-anchor="start" x="606.25" y="-1860.84" font-family="Arial" font-size="11.00"> &#160;&#160;&#160;&#160;&#160;&#160;&#160;&#160;&#160;</text>
<text xml:space="preserve" text-anchor="start" x="636.25" y="-1860.84" font-family="Arial" font-size="10.00" fill="#4a235a">▪ Long&#45;lived Port &#160;(bidirectional)</text>
<text xml:space="preserve" text-anchor="start" x="772" y="-1860.84" font-family="Arial" font-size="11.00"> &#160;&#160;&#160;&#160;&#160;&#160;&#160;</text>
<polygon fill="#fad7a0" stroke="none" points="807,-1845.79 807,-1881.29 1065.25,-1881.29 1065.25,-1845.79 807,-1845.79"/>
<polygon fill="none" stroke="#7f8c8d" points="807,-1845.79 807,-1881.29 1065.25,-1881.29 1065.25,-1845.79 807,-1845.79"/>
<text xml:space="preserve" text-anchor="start" x="818" y="-1860.84" font-family="Arial" font-size="11.00"> &#160;&#160;&#160;&#160;&#160;&#160;&#160;&#160;&#160;</text>
<text xml:space="preserve" text-anchor="start" x="848" y="-1860.84" font-family="Arial" font-weight="bold" font-size="10.00" fill="#784212">★ LLM via Tool</text>
<text xml:space="preserve" text-anchor="start" x="926.75" y="-1860.84" font-family="Arial" font-size="10.00" fill="#784212"> (invokeTool dispatcher)</text>
<text xml:space="preserve" text-anchor="start" x="1030.25" y="-1860.84" font-family="Arial" font-size="11.00"> &#160;&#160;&#160;&#160;&#160;&#160;&#160;</text>
<polygon fill="#fadbd8" stroke="none" points="1065.25,-1845.79 1065.25,-1881.29 1325.75,-1881.29 1325.75,-1845.79 1065.25,-1845.79"/>
<polygon fill="none" stroke="#7f8c8d" points="1065.25,-1845.79 1065.25,-1881.29 1325.75,-1881.29 1325.75,-1845.79 1065.25,-1845.79"/>
<text xml:space="preserve" text-anchor="start" x="1076.25" y="-1860.84" font-family="Arial" font-size="11.00"> &#160;&#160;&#160;&#160;&#160;&#160;&#160;&#160;&#160;</text>
<text xml:space="preserve" text-anchor="start" x="1106.25" y="-1860.84" font-family="Arial" font-weight="bold" font-size="10.00" fill="#7b241c">★ Pure LLM Call</text>
<text xml:space="preserve" text-anchor="start" x="1191.75" y="-1860.84" font-family="Arial" font-size="10.00" fill="#7b241c"> (bypasses dispatcher)</text>
<text xml:space="preserve" text-anchor="start" x="1290.75" y="-1860.84" font-family="Arial" font-size="11.00"> &#160;&#160;&#160;&#160;&#160;&#160;&#160;</text>
<polygon fill="#d5f5e3" stroke="none" points="1325.75,-1845.79 1325.75,-1881.29 1477.5,-1881.29 1477.5,-1845.79 1325.75,-1845.79"/>
<polygon fill="none" stroke="#7f8c8d" points="1325.75,-1845.79 1325.75,-1881.29 1477.5,-1881.29 1477.5,-1845.79 1325.75,-1845.79"/>
<text xml:space="preserve" text-anchor="start" x="1336.75" y="-1860.84" font-family="Arial" font-size="11.00"> &#160;&#160;&#160;&#160;&#160;&#160;&#160;&#160;&#160;</text>
<text xml:space="preserve" text-anchor="start" x="1366.75" y="-1860.84" font-family="Arial" font-size="10.00" fill="#145a32">▪ Utility / No LLM</text>
<text xml:space="preserve" text-anchor="start" x="1442.5" y="-1860.84" font-family="Arial" font-size="11.00"> &#160;&#160;&#160;&#160;&#160;&#160;&#160;</text>
<polygon fill="none" stroke="#7f8c8d" stroke-width="2" points="409.5,-1844.79 409.5,-1918.54 1478.5,-1918.54 1478.5,-1844.79 409.5,-1844.79"/>
</g>
<!-- User -->
<g id="node2" class="node">
<title>User</title>
<ellipse fill="#2c3e50" stroke="black" stroke-width="0" cx="1671" cy="-1881.66" rx="47.71" ry="47.71"/>
<text xml:space="preserve" text-anchor="middle" x="1671" y="-1876.24" font-family="Arial" font-size="14.00" fill="#ffffff">User</text>
</g>
<!-- PopupHTML -->
<g id="node3" class="node">
<title>PopupHTML</title>
<path fill="#aed6f1" stroke="black" stroke-width="1.5" d="M1745.4,-1675.95C1745.4,-1675.95 1596.6,-1675.95 1596.6,-1675.95 1590.6,-1675.95 1584.6,-1669.95 1584.6,-1663.95 1584.6,-1663.95 1584.6,-1632.15 1584.6,-1632.15 1584.6,-1626.15 1590.6,-1620.15 1596.6,-1620.15 1596.6,-1620.15 1745.4,-1620.15 1745.4,-1620.15 1751.4,-1620.15 1757.4,-1626.15 1757.4,-1632.15 1757.4,-1632.15 1757.4,-1663.95 1757.4,-1663.95 1757.4,-1669.95 1751.4,-1675.95 1745.4,-1675.95"/>
<text xml:space="preserve" text-anchor="middle" x="1671" y="-1651.1" font-family="Arial" font-size="11.00" fill="#1a5276">popup.html</text>
<text xml:space="preserve" text-anchor="middle" x="1671" y="-1637.6" font-family="Arial" font-size="11.00" fill="#1a5276">UI Shell</text>
</g>
<!-- User&#45;&gt;PopupHTML -->
<g id="edge1" class="edge">
<title>User&#45;&gt;PopupHTML</title>
<path fill="none" stroke="#566573" stroke-width="1.6" d="M1671,-1834.11C1671,-1834.11 1671,-1686.89 1671,-1686.89"/>
<polygon fill="#566573" stroke="#566573" stroke-width="1.6" points="1671,-1678.39 1674.83,-1686.89 1671.3,-1680.7 1671.3,-1686.89 1671,-1686.89 1670.7,-1686.89 1670.7,-1680.7 1667.18,-1686.89 1671,-1678.39"/>
<text xml:space="preserve" text-anchor="middle" x="1643.25" y="-1763" font-family="Arial" font-size="10.00" fill="#566573">opens popup</text>
</g>
<!-- PopupJS -->
<g id="node4" class="node">
<title>PopupJS</title>
<path fill="#2e86c1" stroke="black" stroke-width="1.5" d="M1810.2,-1462.15C1810.2,-1462.15 1531.8,-1462.15 1531.8,-1462.15 1525.8,-1462.15 1519.8,-1456.15 1519.8,-1450.15 1519.8,-1450.15 1519.8,-1404.85 1519.8,-1404.85 1519.8,-1398.85 1525.8,-1392.85 1531.8,-1392.85 1531.8,-1392.85 1810.2,-1392.85 1810.2,-1392.85 1816.2,-1392.85 1822.2,-1398.85 1822.2,-1404.85 1822.2,-1404.85 1822.2,-1450.15 1822.2,-1450.15 1822.2,-1456.15 1816.2,-1462.15 1810.2,-1462.15"/>
<text xml:space="preserve" text-anchor="middle" x="1671" y="-1437.3" font-family="Arial" font-size="11.00" fill="#ffffff">popup.js</text>
<text xml:space="preserve" text-anchor="middle" x="1671" y="-1423.8" font-family="Arial" font-size="11.00" fill="#ffffff">UI Controller &#160;&amp; &#160;Orchestrator</text>
<text xml:space="preserve" text-anchor="middle" x="1671" y="-1410.3" font-family="Arial" font-size="11.00" fill="#ffffff">Compare btn &#160;&#160;| &#160;&#160;Summarize btn &#160;&#160;| &#160;&#160;API Key panel</text>
</g>
<!-- PopupHTML&#45;&gt;PopupJS -->
<g id="edge2" class="edge">
<title>PopupHTML&#45;&gt;PopupJS</title>
<path fill="none" stroke="#2e86c1" stroke-width="1.6" d="M1671,-1619.67C1671,-1619.67 1671,-1473.14 1671,-1473.14"/>
<polygon fill="#2e86c1" stroke="#2e86c1" stroke-width="1.6" points="1671,-1464.64 1674.83,-1473.14 1671.3,-1466.94 1671.3,-1473.14 1671,-1473.14 1670.7,-1473.14 1670.7,-1466.94 1667.18,-1473.14 1671,-1464.64"/>
<text xml:space="preserve" text-anchor="middle" x="1643.25" y="-1548.9" font-family="Arial" font-size="10.00" fill="#2e86c1">DOM events</text>
</g>
<!-- ChromeTabs -->
<g id="node6" class="node">
<title>ChromeTabs</title>
<path fill="#bdc3c7" stroke="black" stroke-width="1.5" d="M1989.4,-1234.85C1989.4,-1234.85 1840.6,-1234.85 1840.6,-1234.85 1834.6,-1234.85 1828.6,-1228.85 1828.6,-1222.85 1828.6,-1222.85 1828.6,-1191.05 1828.6,-1191.05 1828.6,-1185.05 1834.6,-1179.05 1840.6,-1179.05 1840.6,-1179.05 1989.4,-1179.05 1989.4,-1179.05 1995.4,-1179.05 2001.4,-1185.05 2001.4,-1191.05 2001.4,-1191.05 2001.4,-1222.85 2001.4,-1222.85 2001.4,-1228.85 1995.4,-1234.85 1989.4,-1234.85"/>
<text xml:space="preserve" text-anchor="middle" x="1915" y="-1210" font-family="Arial" font-size="11.00" fill="#2c3e50">chrome.tabs</text>
<text xml:space="preserve" text-anchor="middle" x="1915" y="-1196.5" font-family="Arial" font-size="11.00" fill="#2c3e50">tabs.query()</text>
</g>
<!-- PopupJS&#45;&gt;ChromeTabs -->
<g id="edge3" class="edge">
<title>PopupJS&#45;&gt;ChromeTabs</title>
<path fill="none" stroke="#7f8c8d" stroke-width="1.6" stroke-dasharray="5,2" d="M1805.7,-1392.56C1805.7,-1330.39 1805.7,-1207 1805.7,-1207 1805.7,-1207 1817.63,-1207 1817.63,-1207"/>
<polygon fill="#7f8c8d" stroke="#7f8c8d" stroke-width="1.6" points="1826.13,-1207 1817.63,-1210.83 1823.83,-1207.3 1817.63,-1207.3 1817.63,-1207 1817.63,-1206.7 1823.83,-1206.7 1817.63,-1203.18 1826.13,-1207"/>
<text xml:space="preserve" text-anchor="middle" x="1779.83" y="-1296.31" font-family="Arial" font-size="10.00" fill="#7f8c8d">tabs.query()</text>
</g>
<!-- ChromeScripting -->
<g id="node7" class="node">
<title>ChromeScripting</title>
<path fill="#bdc3c7" stroke="black" stroke-width="1.5" d="M2306.4,-1234.85C2306.4,-1234.85 2157.6,-1234.85 2157.6,-1234.85 2151.6,-1234.85 2145.6,-1228.85 2145.6,-1222.85 2145.6,-1222.85 2145.6,-1191.05 2145.6,-1191.05 2145.6,-1185.05 2151.6,-1179.05 2157.6,-1179.05 2157.6,-1179.05 2306.4,-1179.05 2306.4,-1179.05 2312.4,-1179.05 2318.4,-1185.05 2318.4,-1191.05 2318.4,-1191.05 2318.4,-1222.85 2318.4,-1222.85 2318.4,-1228.85 2312.4,-1234.85 2306.4,-1234.85"/>
<text xml:space="preserve" text-anchor="middle" x="2232" y="-1210" font-family="Arial" font-size="11.00" fill="#2c3e50">chrome.scripting</text>
<text xml:space="preserve" text-anchor="middle" x="2232" y="-1196.5" font-family="Arial" font-size="11.00" fill="#2c3e50">executeScript()</text>
</g>
<!-- PopupJS&#45;&gt;ChromeScripting -->
<g id="edge4" class="edge">
<title>PopupJS&#45;&gt;ChromeScripting</title>
<path fill="none" stroke="#7f8c8d" stroke-width="1.6" stroke-dasharray="5,2" d="M1822.81,-1439C1988.96,-1439 2232,-1439 2232,-1439 2232,-1439 2232,-1245.85 2232,-1245.85"/>
<polygon fill="#7f8c8d" stroke="#7f8c8d" stroke-width="1.6" points="2232,-1237.35 2235.83,-1245.85 2232.3,-1239.65 2232.3,-1245.85 2232,-1245.85 2231.7,-1245.85 2231.7,-1239.65 2228.18,-1245.85 2232,-1237.35"/>
<text xml:space="preserve" text-anchor="middle" x="2090.98" y="-1441.5" font-family="Arial" font-size="10.00" fill="#7f8c8d">executeScript()</text>
</g>
<!-- PortListener -->
<g id="node9" class="node">
<title>PortListener</title>
<path fill="#d7bde2" stroke="black" stroke-width="1.5" d="M1524,-1234.85C1524,-1234.85 1332,-1234.85 1332,-1234.85 1326,-1234.85 1320,-1228.85 1320,-1222.85 1320,-1222.85 1320,-1191.05 1320,-1191.05 1320,-1185.05 1326,-1179.05 1332,-1179.05 1332,-1179.05 1524,-1179.05 1524,-1179.05 1530,-1179.05 1536,-1185.05 1536,-1191.05 1536,-1191.05 1536,-1222.85 1536,-1222.85 1536,-1228.85 1530,-1234.85 1524,-1234.85"/>
<text xml:space="preserve" text-anchor="middle" x="1428" y="-1210" font-family="Arial" font-size="11.00" fill="#4a235a">onConnect Listener</text>
<text xml:space="preserve" text-anchor="middle" x="1428" y="-1196.5" font-family="Arial" font-size="11.00" fill="#4a235a">Port: &#39;compareProgress&#39;</text>
</g>
<!-- PopupJS&#45;&gt;PortListener -->
<g id="edge9" class="edge">
<title>PopupJS&#45;&gt;PortListener</title>
<path fill="none" stroke="#7d3c98" stroke-width="2.8" d="M1527.9,-1380.64C1527.9,-1380.64 1527.9,-1247.33 1527.9,-1247.33"/>
<polygon fill="#7d3c98" stroke="#7d3c98" stroke-width="2.8" points="1527.9,-1389.14 1524.08,-1380.64 1527,-1388.3 1527,-1380.64 1527.9,-1380.64 1528.8,-1380.64 1528.8,-1388.3 1531.73,-1380.64 1527.9,-1389.14"/>
<polygon fill="#7d3c98" stroke="#7d3c98" stroke-width="2.8" points="1527.9,-1238.83 1531.73,-1247.33 1528.8,-1239.67 1528.8,-1247.33 1527.9,-1247.33 1527,-1247.33 1527,-1239.67 1524.08,-1247.33 1527.9,-1238.83"/>
<text xml:space="preserve" text-anchor="middle" x="1448.78" y="-1316.49" font-family="Arial" font-size="10.00" fill="#7d3c98">runtime.connect() &#160;compareProgress</text>
</g>
<!-- MsgListener -->
<g id="node10" class="node">
<title>MsgListener</title>
<path fill="#d7bde2" stroke="black" stroke-width="1.5" d="M1163.95,-1234.85C1163.95,-1234.85 830.05,-1234.85 830.05,-1234.85 824.05,-1234.85 818.05,-1228.85 818.05,-1222.85 818.05,-1222.85 818.05,-1191.05 818.05,-1191.05 818.05,-1185.05 824.05,-1179.05 830.05,-1179.05 830.05,-1179.05 1163.95,-1179.05 1163.95,-1179.05 1169.95,-1179.05 1175.95,-1185.05 1175.95,-1191.05 1175.95,-1191.05 1175.95,-1222.85 1175.95,-1222.85 1175.95,-1228.85 1169.95,-1234.85 1163.95,-1234.85"/>
<text xml:space="preserve" text-anchor="middle" x="997" y="-1210" font-family="Arial" font-size="11.00" fill="#4a235a">onMessage Listener</text>
<text xml:space="preserve" text-anchor="middle" x="997" y="-1196.5" font-family="Arial" font-size="11.00" fill="#4a235a">summarizeProducts &#160;· &#160;productDetected &#160;· &#160;getDetectedProducts</text>
</g>
<!-- PopupJS&#45;&gt;MsgListener -->
<g id="edge11" class="edge">
<title>PopupJS&#45;&gt;MsgListener</title>
<path fill="none" stroke="#c0392b" stroke-width="2.8" d="M1507.42,-1439C1507.42,-1439 1140.47,-1439 1140.47,-1439 1140.47,-1439 1140.47,-1247.32 1140.47,-1247.32"/>
<polygon fill="#c0392b" stroke="#c0392b" stroke-width="2.8" points="1515.92,-1439 1507.42,-1442.83 1515.08,-1439.9 1507.42,-1439.9 1507.42,-1439 1507.42,-1438.1 1515.08,-1438.1 1507.42,-1435.18 1515.92,-1439"/>
<polygon fill="#c0392b" stroke="#c0392b" stroke-width="2.8" points="1140.48,-1238.82 1144.3,-1247.32 1141.38,-1239.65 1141.38,-1247.32 1140.48,-1247.32 1139.58,-1247.32 1139.58,-1239.65 1136.65,-1247.32 1140.48,-1238.82"/>
<text xml:space="preserve" text-anchor="middle" x="1304.98" y="-1441.5" font-family="Arial" font-size="10.00" fill="#c0392b">sendMessage: summarizeProducts</text>
</g>
<!-- ContentJS -->
<g id="node5" class="node">
<title>ContentJS</title>
<path fill="#27ae60" stroke="black" stroke-width="1.5" d="M1093,-1462.15C1093,-1462.15 901,-1462.15 901,-1462.15 895,-1462.15 889,-1456.15 889,-1450.15 889,-1450.15 889,-1404.85 889,-1404.85 889,-1398.85 895,-1392.85 901,-1392.85 901,-1392.85 1093,-1392.85 1093,-1392.85 1099,-1392.85 1105,-1398.85 1105,-1404.85 1105,-1404.85 1105,-1450.15 1105,-1450.15 1105,-1456.15 1099,-1462.15 1093,-1462.15"/>
<text xml:space="preserve" text-anchor="middle" x="997" y="-1437.3" font-family="Arial" font-size="11.00" fill="#ffffff">content.js</text>
<text xml:space="preserve" text-anchor="middle" x="997" y="-1423.8" font-family="Arial" font-size="11.00" fill="#ffffff">Passive Product Detector</text>
<text xml:space="preserve" text-anchor="middle" x="997" y="-1410.3" font-family="Arial" font-size="11.00" fill="#ffffff">(auto&#45;injected on all pages)</text>
</g>
<!-- WebPages -->
<g id="node8" class="node">
<title>WebPages</title>
<path fill="#fae5d3" stroke="#ca6f1e" stroke-width="1.5" d="M2347.2,-1005.64C2347.2,-1009.49 2295.57,-1012.61 2232,-1012.61 2168.43,-1012.61 2116.8,-1009.49 2116.8,-1005.64 2116.8,-1005.64 2116.8,-942.86 2116.8,-942.86 2116.8,-939.01 2168.43,-935.89 2232,-935.89 2295.57,-935.89 2347.2,-939.01 2347.2,-942.86 2347.2,-942.86 2347.2,-1005.64 2347.2,-1005.64"/>
<path fill="none" stroke="#ca6f1e" stroke-width="1.5" d="M2347.2,-1005.64C2347.2,-1001.79 2295.57,-998.66 2232,-998.66 2168.43,-998.66 2116.8,-1001.79 2116.8,-1005.64"/>
<text xml:space="preserve" text-anchor="middle" x="2232" y="-977.3" font-family="Arial" font-size="11.00" fill="#784212">Web Pages &#160;/ &#160;DOM</text>
<text xml:space="preserve" text-anchor="middle" x="2232" y="-963.8" font-family="Arial" font-size="11.00" fill="#784212">Amazon &#160;· &#160;eBay &#160;· &#160;any product site</text>
</g>
<!-- ContentJS&#45;&gt;WebPages -->
<g id="edge7" class="edge">
<title>ContentJS&#45;&gt;WebPages</title>
<path fill="none" stroke="#27ae60" stroke-width="1.6" stroke-dasharray="5,2" d="M1116.49,-1416C1116.49,-1416 1283.1,-1416 1283.1,-1416 1283.1,-1416 1283.1,-974 1283.1,-974 1283.1,-974 1862.99,-974 2116.12,-974"/>
<polygon fill="#27ae60" stroke="#27ae60" stroke-width="1.6" points="1116.49,-1413.03 1107.99,-1416 1116.49,-1418.98 1116.49,-1413.03"/>
<text xml:space="preserve" text-anchor="middle" x="1352.93" y="-976.5" font-family="Arial" font-size="10.00" fill="#27ae60">reads DOM on load</text>
</g>
<!-- ContentJS&#45;&gt;MsgListener -->
<g id="edge8" class="edge">
<title>ContentJS&#45;&gt;MsgListener</title>
<path fill="none" stroke="#27ae60" stroke-width="1.6" d="M997,-1392.55C997,-1392.55 997,-1245.87 997,-1245.87"/>
<polygon fill="#27ae60" stroke="#27ae60" stroke-width="1.6" points="997,-1237.37 1000.83,-1245.87 997.3,-1239.67 997.3,-1245.87 997,-1245.87 996.7,-1245.87 996.7,-1239.67 993.18,-1245.87 997,-1237.37"/>
<text xml:space="preserve" text-anchor="middle" x="961" y="-1321.71" font-family="Arial" font-size="10.00" fill="#27ae60">productDetected</text>
</g>
<!-- ChromeScripting&#45;&gt;WebPages -->
<g id="edge5" class="edge">
<title>ChromeScripting&#45;&gt;WebPages</title>
<path fill="none" stroke="#ca6f1e" stroke-width="1.6" stroke-dasharray="5,2" d="M2232,-1178.42C2232,-1178.42 2232,-1023.55 2232,-1023.55"/>
<polygon fill="#ca6f1e" stroke="#ca6f1e" stroke-width="1.6" points="2232,-1015.05 2235.83,-1023.55 2232.3,-1017.35 2232.3,-1023.55 2232,-1023.55 2231.7,-1023.55 2231.7,-1017.35 2228.18,-1023.55 2232,-1015.05"/>
<text xml:space="preserve" text-anchor="middle" x="2199.75" y="-1103.48" font-family="Arial" font-size="10.00" fill="#ca6f1e">inject extractor</text>
</g>
<!-- WebPages&#45;&gt;PopupJS -->
<g id="edge6" class="edge">
<title>WebPages&#45;&gt;PopupJS</title>
<path fill="none" stroke="#ca6f1e" stroke-width="1.6" stroke-dasharray="5,2" d="M2131.2,-1010.78C2131.2,-1116.61 2131.2,-1416 2131.2,-1416 2131.2,-1416 1833.09,-1416 1833.09,-1416"/>
<polygon fill="#ca6f1e" stroke="#ca6f1e" stroke-width="1.6" points="1824.59,-1416 1833.09,-1412.18 1826.89,-1415.7 1833.09,-1415.7 1833.09,-1416 1833.09,-1416.3 1826.89,-1416.3 1833.09,-1419.83 1824.59,-1416"/>
<text xml:space="preserve" text-anchor="middle" x="2091.45" y="-1364.94" font-family="Arial" font-size="10.00" fill="#ca6f1e">{ name, price, url }</text>
</g>
<!-- Dispatcher -->
<g id="node11" class="node">
<title>Dispatcher</title>
<path fill="#6c3483" stroke="black" stroke-width="2.5" d="M1119.88,-1016.53C1119.88,-1016.53 1026.92,-978.77 1026.92,-978.77 1021.36,-976.51 1021.36,-971.99 1026.92,-969.73 1026.92,-969.73 1119.88,-931.97 1119.88,-931.97 1125.44,-929.71 1136.56,-929.71 1142.12,-931.97 1142.12,-931.97 1235.08,-969.73 1235.08,-969.73 1240.64,-971.99 1240.64,-976.51 1235.08,-978.77 1235.08,-978.77 1142.12,-1016.53 1142.12,-1016.53 1136.56,-1018.79 1125.44,-1018.79 1119.88,-1016.53"/>
<text xml:space="preserve" text-anchor="middle" x="1131" y="-977.1" font-family="Arial" font-size="12.00" fill="#ffffff">invokeTool()</text>
<text xml:space="preserve" text-anchor="middle" x="1131" y="-962.85" font-family="Arial" font-size="12.00" fill="#ffffff">Dispatcher</text>
</g>
<!-- PortListener&#45;&gt;Dispatcher -->
<g id="edge10" class="edge">
<title>PortListener&#45;&gt;Dispatcher</title>
<path fill="none" stroke="#5b2c6f" stroke-width="2" d="M1367.4,-1178.51C1367.4,-1125.52 1367.4,-1017 1367.4,-1017 1367.4,-1017 1154.98,-1017 1154.98,-1017"/>
<polygon fill="#5b2c6f" stroke="#5b2c6f" stroke-width="2" points="1146.48,-1017 1154.98,-1013.18 1148.3,-1016.5 1154.98,-1016.5 1154.98,-1017 1154.98,-1017.5 1148.3,-1017.5 1154.98,-1020.83 1146.48,-1017"/>
<text xml:space="preserve" text-anchor="middle" x="1440.57" y="-1019.5" font-family="Arial" font-size="10.00" fill="#5b2c6f">invokeTool &#45;&gt; compareProductsWithProgress</text>
</g>
<!-- ToolSummarize -->
<g id="node15" class="node">
<title>ToolSummarize</title>
<path fill="#8e44ad" stroke="black" stroke-width="1.5" d="M351.8,-769.45C351.8,-769.45 174.2,-769.45 174.2,-769.45 168.2,-769.45 162.2,-763.45 162.2,-757.45 162.2,-757.45 162.2,-725.65 162.2,-725.65 162.2,-719.65 168.2,-713.65 174.2,-713.65 174.2,-713.65 351.8,-713.65 351.8,-713.65 357.8,-713.65 363.8,-719.65 363.8,-725.65 363.8,-725.65 363.8,-757.45 363.8,-757.45 363.8,-763.45 357.8,-769.45 351.8,-769.45"/>
<text xml:space="preserve" text-anchor="middle" x="263" y="-744.6" font-family="Arial" font-size="11.00" fill="#ffffff">summarizeProducts</text>
<text xml:space="preserve" text-anchor="middle" x="263" y="-731.1" font-family="Arial" font-size="11.00" fill="#ffffff">Tool wrapper</text>
</g>
<!-- MsgListener&#45;&gt;ToolSummarize -->
<g id="edge12" class="edge">
<title>MsgListener&#45;&gt;ToolSummarize</title>
<path fill="none" stroke="#c0392b" stroke-width="2" d="M817.44,-1207C600.14,-1207 263,-1207 263,-1207 263,-1207 263,-780.9 263,-780.9"/>
<polygon fill="#c0392b" stroke="#c0392b" stroke-width="2" points="263,-772.4 266.83,-780.9 263.5,-774.22 263.5,-780.9 263,-780.9 262.5,-780.9 262.5,-774.22 259.18,-780.9 263,-772.4"/>
<text xml:space="preserve" text-anchor="middle" x="270.17" y="-1209.5" font-family="Arial" font-size="10.00" fill="#c0392b">tool_summarizeProducts()</text>
</g>
<!-- ToolOrch -->
<g id="node12" class="node">
<title>ToolOrch</title>
<path fill="#8e44ad" stroke="black" stroke-width="1.5" d="M740.4,-769.45C740.4,-769.45 519.6,-769.45 519.6,-769.45 513.6,-769.45 507.6,-763.45 507.6,-757.45 507.6,-757.45 507.6,-725.65 507.6,-725.65 507.6,-719.65 513.6,-713.65 519.6,-713.65 519.6,-713.65 740.4,-713.65 740.4,-713.65 746.4,-713.65 752.4,-719.65 752.4,-725.65 752.4,-725.65 752.4,-757.45 752.4,-757.45 752.4,-763.45 746.4,-769.45 740.4,-769.45"/>
<text xml:space="preserve" text-anchor="middle" x="630" y="-744.6" font-family="Arial" font-size="11.00" fill="#ffffff">compareProductsWithProgress</text>
<text xml:space="preserve" text-anchor="middle" x="630" y="-731.1" font-family="Arial" font-size="11.00" fill="#ffffff">Orchestrator Tool</text>
</g>
<!-- Dispatcher&#45;&gt;ToolOrch -->
<g id="edge13" class="edge">
<title>Dispatcher&#45;&gt;ToolOrch</title>
<path fill="none" stroke="#7d3c98" stroke-width="2" d="M1050.23,-959C908.52,-959 630,-959 630,-959 630,-959 630,-780.91 630,-780.91"/>
<polygon fill="#7d3c98" stroke="#7d3c98" stroke-width="2" points="630,-772.41 633.83,-780.91 630.5,-774.23 630.5,-780.91 630,-780.91 629.5,-780.91 629.5,-774.23 626.18,-780.91 630,-772.41"/>
</g>
<!-- ToolGemini -->
<g id="node17" class="node">
<title>ToolGemini</title>
<path fill="#e67e22" stroke="#7d3c00" stroke-width="4" d="M387.4,-314.85C387.4,-314.85 166.6,-314.85 166.6,-314.85 160.6,-314.85 154.6,-308.85 154.6,-302.85 154.6,-302.85 154.6,-255.3 154.6,-255.3 154.6,-249.3 160.6,-243.3 166.6,-243.3 166.6,-243.3 387.4,-243.3 387.4,-243.3 393.4,-243.3 399.4,-249.3 399.4,-255.3 399.4,-255.3 399.4,-302.85 399.4,-302.85 399.4,-308.85 393.4,-314.85 387.4,-314.85"/>
<text xml:space="preserve" text-anchor="middle" x="277" y="-289.05" font-family="Arial" font-size="12.00" fill="#ffffff">callGemini</text>
<text xml:space="preserve" text-anchor="middle" x="277" y="-274.8" font-family="Arial" font-size="12.00" fill="#ffffff">★ LLM GATEWAY</text>
<text xml:space="preserve" text-anchor="middle" x="277" y="-260.55" font-family="Arial" font-size="12.00" fill="#ffffff">All Gemini calls pass through here</text>
</g>
<!-- Dispatcher&#45;&gt;ToolGemini -->
<g id="edge14" class="edge">
<title>Dispatcher&#45;&gt;ToolGemini</title>
<path fill="none" stroke="#e67e22" stroke-width="2.8" d="M1051.27,-990C860.94,-990 395.8,-990 395.8,-990 395.8,-990 395.8,-328.71 395.8,-328.71"/>
<polygon fill="#e67e22" stroke="#e67e22" stroke-width="2.8" points="395.8,-320.21 399.63,-328.71 396.7,-321.05 396.7,-328.71 395.8,-328.71 394.9,-328.71 394.9,-321.05 391.98,-328.71 395.8,-320.21"/>
<text xml:space="preserve" text-anchor="middle" x="368.42" y="-989.59" font-family="Arial" font-size="10.00" fill="#e67e22">LLM via Tool</text>
</g>
<!-- ToolCsv -->
<g id="node18" class="node">
<title>ToolCsv</title>
<path fill="#8e44ad" stroke="black" stroke-width="1.5" d="M1057.4,-769.45C1057.4,-769.45 908.6,-769.45 908.6,-769.45 902.6,-769.45 896.6,-763.45 896.6,-757.45 896.6,-757.45 896.6,-725.65 896.6,-725.65 896.6,-719.65 902.6,-713.65 908.6,-713.65 908.6,-713.65 1057.4,-713.65 1057.4,-713.65 1063.4,-713.65 1069.4,-719.65 1069.4,-725.65 1069.4,-725.65 1069.4,-757.45 1069.4,-757.45 1069.4,-763.45 1063.4,-769.45 1057.4,-769.45"/>
<text xml:space="preserve" text-anchor="middle" x="983" y="-744.6" font-family="Arial" font-size="11.00" fill="#ffffff">generateCsv</text>
<text xml:space="preserve" text-anchor="middle" x="983" y="-731.1" font-family="Arial" font-size="11.00" fill="#ffffff">Formatter</text>
</g>
<!-- Dispatcher&#45;&gt;ToolCsv -->
<g id="edge15" class="edge">
<title>Dispatcher&#45;&gt;ToolCsv</title>
<path fill="none" stroke="#7d3c98" stroke-width="1.6" d="M1042.6,-962.07C1042.6,-962.07 1042.6,-780.52 1042.6,-780.52"/>
<polygon fill="#7d3c98" stroke="#7d3c98" stroke-width="1.6" points="1042.6,-772.02 1046.43,-780.52 1042.9,-774.32 1042.9,-780.52 1042.6,-780.52 1042.3,-780.52 1042.3,-774.32 1038.78,-780.52 1042.6,-772.02"/>
</g>
<!-- ToolDownload -->
<g id="node19" class="node">
<title>ToolDownload</title>
<path fill="#8e44ad" stroke="black" stroke-width="1.5" d="M1402.8,-769.45C1402.8,-769.45 1225.2,-769.45 1225.2,-769.45 1219.2,-769.45 1213.2,-763.45 1213.2,-757.45 1213.2,-757.45 1213.2,-725.65 1213.2,-725.65 1213.2,-719.65 1219.2,-713.65 1225.2,-713.65 1225.2,-713.65 1402.8,-713.65 1402.8,-713.65 1408.8,-713.65 1414.8,-719.65 1414.8,-725.65 1414.8,-725.65 1414.8,-757.45 1414.8,-757.45 1414.8,-763.45 1408.8,-769.45 1402.8,-769.45"/>
<text xml:space="preserve" text-anchor="middle" x="1314" y="-744.6" font-family="Arial" font-size="11.00" fill="#ffffff">downloadCsv</text>
<text xml:space="preserve" text-anchor="middle" x="1314" y="-731.1" font-family="Arial" font-size="11.00" fill="#ffffff">Chrome Download Trigger</text>
</g>
<!-- Dispatcher&#45;&gt;ToolDownload -->
<g id="edge16" class="edge">
<title>Dispatcher&#45;&gt;ToolDownload</title>
<path fill="none" stroke="#7d3c98" stroke-width="1.6" d="M1229.7,-966.24C1229.7,-966.24 1229.7,-780.52 1229.7,-780.52"/>
<polygon fill="#7d3c98" stroke="#7d3c98" stroke-width="1.6" points="1229.7,-772.02 1233.53,-780.52 1230,-774.32 1230,-780.52 1229.7,-780.52 1229.4,-780.52 1229.4,-774.32 1225.88,-780.52 1229.7,-772.02"/>
</g>
<!-- ToolSummary -->
<g id="node20" class="node">
<title>ToolSummary</title>
<path fill="#8e44ad" stroke="black" stroke-width="1.5" d="M1777.2,-769.45C1777.2,-769.45 1570.8,-769.45 1570.8,-769.45 1564.8,-769.45 1558.8,-763.45 1558.8,-757.45 1558.8,-757.45 1558.8,-725.65 1558.8,-725.65 1558.8,-719.65 1564.8,-713.65 1570.8,-713.65 1570.8,-713.65 1777.2,-713.65 1777.2,-713.65 1783.2,-713.65 1789.2,-719.65 1789.2,-725.65 1789.2,-725.65 1789.2,-757.45 1789.2,-757.45 1789.2,-763.45 1783.2,-769.45 1777.2,-769.45"/>
<text xml:space="preserve" text-anchor="middle" x="1674" y="-744.6" font-family="Arial" font-size="11.00" fill="#ffffff">generateComparisonSummary</text>
<text xml:space="preserve" text-anchor="middle" x="1674" y="-731.1" font-family="Arial" font-size="11.00" fill="#ffffff">Text Formatter</text>
</g>
<!-- Dispatcher&#45;&gt;ToolSummary -->
<g id="edge17" class="edge">
<title>Dispatcher&#45;&gt;ToolSummary</title>
<path fill="none" stroke="#7d3c98" stroke-width="1.6" d="M1145.24,-932C1230.92,-932 1674,-932 1674,-932 1674,-932 1674,-780.51 1674,-780.51"/>
<polygon fill="#7d3c98" stroke="#7d3c98" stroke-width="1.6" points="1674,-772.01 1677.83,-780.51 1674.3,-774.31 1674.3,-780.51 1674,-780.51 1673.7,-780.51 1673.7,-774.31 1670.18,-780.51 1674,-772.01"/>
</g>
<!-- ToolPair -->
<g id="node13" class="node">
<title>ToolPair</title>
<path fill="#8e44ad" stroke="black" stroke-width="1.5" d="M754.2,-542.15C754.2,-542.15 547.8,-542.15 547.8,-542.15 541.8,-542.15 535.8,-536.15 535.8,-530.15 535.8,-530.15 535.8,-498.35 535.8,-498.35 535.8,-492.35 541.8,-486.35 547.8,-486.35 547.8,-486.35 754.2,-486.35 754.2,-486.35 760.2,-486.35 766.2,-492.35 766.2,-498.35 766.2,-498.35 766.2,-530.15 766.2,-530.15 766.2,-536.15 760.2,-542.15 754.2,-542.15"/>
<text xml:space="preserve" text-anchor="middle" x="651" y="-517.3" font-family="Arial" font-size="11.00" fill="#ffffff">compareProductPair</text>
<text xml:space="preserve" text-anchor="middle" x="651" y="-503.8" font-family="Arial" font-size="11.00" fill="#ffffff">Heuristic &#160;+ &#160;LLM Fallback</text>
</g>
<!-- ToolOrch&#45;&gt;ToolPair -->
<g id="edge18" class="edge">
<title>ToolOrch&#45;&gt;ToolPair</title>
<path fill="none" stroke="#9b59b6" stroke-width="1.6" stroke-dasharray="5,2" d="M644.1,-713.22C644.1,-713.22 644.1,-553.03 644.1,-553.03"/>
<polygon fill="#9b59b6" stroke="#9b59b6" stroke-width="1.6" points="644.1,-544.53 647.93,-553.03 644.4,-546.83 644.4,-553.03 644.1,-553.03 643.8,-553.03 643.8,-546.83 640.28,-553.03 644.1,-544.53"/>
<text xml:space="preserve" text-anchor="middle" x="591.6" y="-635.62" font-family="Arial" font-size="10.00" fill="#9b59b6">each pair via invokeTool</text>
</g>
<!-- ToolHeuristic -->
<g id="node14" class="node">
<title>ToolHeuristic</title>
<path fill="#d7bde2" stroke="black" stroke-dasharray="5,2" d="M747,-306.97C747,-306.97 555,-306.97 555,-306.97 549,-306.97 543,-300.97 543,-294.97 543,-294.97 543,-263.17 543,-263.17 543,-257.17 549,-251.17 555,-251.17 555,-251.17 747,-251.17 747,-251.17 753,-251.17 759,-257.17 759,-263.17 759,-263.17 759,-294.97 759,-294.97 759,-300.97 753,-306.97 747,-306.97"/>
<text xml:space="preserve" text-anchor="middle" x="651" y="-282.12" font-family="Arial" font-size="11.00" fill="#4a235a">hasSharedProductType()</text>
<text xml:space="preserve" text-anchor="middle" x="651" y="-268.62" font-family="Arial" font-size="11.00" fill="#4a235a">Keyword Heuristic &#160;(no LLM)</text>
</g>
<!-- ToolPair&#45;&gt;ToolHeuristic -->
<g id="edge19" class="edge">
<title>ToolPair&#45;&gt;ToolHeuristic</title>
<path fill="none" stroke="#2e86c1" stroke-width="1.6" d="M651,-485.88C651,-485.88 651,-317.63 651,-317.63"/>
<polygon fill="#2e86c1" stroke="#2e86c1" stroke-width="1.6" points="651,-309.13 654.83,-317.63 651.3,-311.43 651.3,-317.63 651,-317.63 650.7,-317.63 650.7,-311.43 647.18,-317.63 651,-309.13"/>
<text xml:space="preserve" text-anchor="middle" x="607.88" y="-404.25" font-family="Arial" font-size="10.00" fill="#2e86c1">1st: keyword match</text>
</g>
<!-- ToolPair&#45;&gt;ToolGemini -->
<g id="edge20" class="edge">
<title>ToolPair&#45;&gt;ToolGemini</title>
<path fill="none" stroke="#e67e22" stroke-width="2.5" stroke-dasharray="5,2" d="M539.4,-485.99C539.4,-430.14 539.4,-311 539.4,-311 539.4,-311 412.83,-311 412.83,-311"/>
<polygon fill="#e67e22" stroke="#e67e22" stroke-width="2.5" points="404.33,-311 412.83,-307.18 405.53,-310.25 412.83,-310.25 412.83,-311 412.83,-311.75 405.53,-311.75 412.83,-314.83 404.33,-311"/>
<text xml:space="preserve" text-anchor="middle" x="500.77" y="-337.71" font-family="Arial" font-size="10.00" fill="#e67e22">2nd: LLM fallback</text>
</g>
<!-- SummarizeProduct -->
<g id="node16" class="node">
<title>SummarizeProduct</title>
<path fill="#c0392b" stroke="#7b241c" stroke-width="3.5" d="M380.2,-555.65C380.2,-555.65 173.8,-555.65 173.8,-555.65 167.8,-555.65 161.8,-549.65 161.8,-543.65 161.8,-543.65 161.8,-484.85 161.8,-484.85 161.8,-478.85 167.8,-472.85 173.8,-472.85 173.8,-472.85 380.2,-472.85 380.2,-472.85 386.2,-472.85 392.2,-478.85 392.2,-484.85 392.2,-484.85 392.2,-543.65 392.2,-543.65 392.2,-549.65 386.2,-555.65 380.2,-555.65"/>
<text xml:space="preserve" text-anchor="middle" x="277" y="-530.8" font-family="Arial" font-size="11.00" fill="#ffffff">summarizeProduct()</text>
<text xml:space="preserve" text-anchor="middle" x="277" y="-517.3" font-family="Arial" font-size="11.00" fill="#ffffff">★ PURE LLM CALL</text>
<text xml:space="preserve" text-anchor="middle" x="277" y="-503.8" font-family="Arial" font-size="11.00" fill="#ffffff">Calls callGemini() directly</text>
<text xml:space="preserve" text-anchor="middle" x="277" y="-490.3" font-family="Arial" font-size="11.00" fill="#ffffff">(bypasses invokeTool dispatcher)</text>
</g>
<!-- ToolSummarize&#45;&gt;SummarizeProduct -->
<g id="edge21" class="edge">
<title>ToolSummarize&#45;&gt;SummarizeProduct</title>
<path fill="none" stroke="#c0392b" stroke-width="1.6" d="M263,-713.22C263,-713.22 263,-567.78 263,-567.78"/>
<polygon fill="#c0392b" stroke="#c0392b" stroke-width="1.6" points="263,-559.28 266.83,-567.78 263.3,-561.58 263.3,-567.78 263,-567.78 262.7,-567.78 262.7,-561.58 259.18,-567.78 263,-559.28"/>
<text xml:space="preserve" text-anchor="middle" x="238.62" y="-643" font-family="Arial" font-size="10.00" fill="#c0392b">per product</text>
</g>
<!-- SummarizeProduct&#45;&gt;ToolGemini -->
<g id="edge22" class="edge">
<title>SummarizeProduct&#45;&gt;ToolGemini</title>
<path fill="none" stroke="#c0392b" stroke-width="3.5" d="M277,-471.12C277,-471.12 277,-329.17 277,-329.17"/>
<polygon fill="#c0392b" stroke="#c0392b" stroke-width="3.5" points="277,-320.67 280.94,-329.17 278.25,-320.76 278.25,-329.17 277,-329.17 275.75,-329.17 275.75,-320.76 273.06,-329.17 277,-320.67"/>
<text xml:space="preserve" text-anchor="middle" x="199" y="-402.64" font-family="Arial" font-size="10.00" fill="#c0392b">PURE LLM: tool_callGemini() direct</text>
</g>
<!-- GeminiAPI -->
<g id="node21" class="node">
<title>GeminiAPI</title>
<path fill="#e74c3c" stroke="#922b21" stroke-width="2.5" d="M394.6,-85.3C394.6,-85.3 159.4,-85.3 159.4,-85.3 153.4,-85.3 147.4,-79.3 147.4,-73.3 147.4,-73.3 147.4,-28 147.4,-28 147.4,-22 153.4,-16 159.4,-16 159.4,-16 394.6,-16 394.6,-16 400.6,-16 406.6,-22 406.6,-28 406.6,-28 406.6,-73.3 406.6,-73.3 406.6,-79.3 400.6,-85.3 394.6,-85.3"/>
<text xml:space="preserve" text-anchor="middle" x="277" y="-60.45" font-family="Arial" font-size="11.00" fill="#ffffff">Google Gemini API</text>
<text xml:space="preserve" text-anchor="middle" x="277" y="-46.95" font-family="Arial" font-size="11.00" fill="#ffffff">gemini&#45;2.5&#45;flash</text>
<text xml:space="preserve" text-anchor="middle" x="277" y="-33.45" font-family="Arial" font-size="11.00" fill="#ffffff">generativelanguage.googleapis.com</text>
</g>
<!-- ToolGemini&#45;&gt;GeminiAPI -->
<g id="edge23" class="edge">
<title>ToolGemini&#45;&gt;GeminiAPI</title>
<path fill="none" stroke="#922b21" stroke-width="3.5" d="M277,-228.69C277,-228.69 277,-99.21 277,-99.21"/>
<polygon fill="#922b21" stroke="#922b21" stroke-width="3.5" points="277,-237.19 273.06,-228.69 275.75,-237.11 275.75,-228.69 277,-228.69 278.25,-228.69 278.25,-237.11 280.94,-228.69 277,-237.19"/>
<polygon fill="#922b21" stroke="#922b21" stroke-width="3.5" points="277,-90.71 280.94,-99.2 278.25,-90.79 278.25,-99.21 277,-99.21 275.75,-99.21 275.75,-90.79 273.06,-99.21 277,-90.71"/>
<text xml:space="preserve" text-anchor="middle" x="164.5" y="-166.45" font-family="Arial" font-size="10.00" fill="#922b21">POST /v1/models/gemini&#45;2.5&#45;flash:generateContent</text>
</g>
<!-- ChromeDownloads -->
<g id="node22" class="node">
<title>ChromeDownloads</title>
<path fill="#bdc3c7" stroke="black" stroke-width="1.5" d="M2004.6,-542.15C2004.6,-542.15 1841.4,-542.15 1841.4,-542.15 1835.4,-542.15 1829.4,-536.15 1829.4,-530.15 1829.4,-530.15 1829.4,-498.35 1829.4,-498.35 1829.4,-492.35 1835.4,-486.35 1841.4,-486.35 1841.4,-486.35 2004.6,-486.35 2004.6,-486.35 2010.6,-486.35 2016.6,-492.35 2016.6,-498.35 2016.6,-498.35 2016.6,-530.15 2016.6,-530.15 2016.6,-536.15 2010.6,-542.15 2004.6,-542.15"/>
<text xml:space="preserve" text-anchor="middle" x="1923" y="-517.3" font-family="Arial" font-size="11.00" fill="#2c3e50">chrome.downloads</text>
<text xml:space="preserve" text-anchor="middle" x="1923" y="-503.8" font-family="Arial" font-size="11.00" fill="#2c3e50">download()</text>
</g>
<!-- ToolDownload&#45;&gt;ChromeDownloads -->
<g id="edge24" class="edge">
<title>ToolDownload&#45;&gt;ChromeDownloads</title>
<path fill="none" stroke="#7f8c8d" stroke-width="1.6" stroke-dasharray="5,2" d="M1314,-713.19C1314,-652.19 1314,-514 1314,-514 1314,-514 1818.4,-514 1818.4,-514"/>
<polygon fill="#7f8c8d" stroke="#7f8c8d" stroke-width="1.6" points="1826.9,-514 1818.4,-517.83 1824.6,-514.3 1818.4,-514.3 1818.4,-514 1818.4,-513.7 1824.6,-513.7 1818.4,-510.18 1826.9,-514"/>
<text xml:space="preserve" text-anchor="middle" x="1400.6" y="-516.5" font-family="Arial" font-size="10.00" fill="#7f8c8d">chrome.downloads.download()</text>
</g>
<!-- CSVOutput -->
<g id="node23" class="node">
<title>CSVOutput</title>
<polygon fill="#a9dfbf" stroke="#1e8449" stroke-width="1.5" points="2017.8,-306.97 1822.2,-306.97 1822.2,-251.17 2023.8,-251.17 2023.8,-300.97 2017.8,-306.97"/>
<polyline fill="none" stroke="#1e8449" stroke-width="1.5" points="2017.8,-306.97 2017.8,-300.97"/>
<polyline fill="none" stroke="#1e8449" stroke-width="1.5" points="2023.8,-300.97 2017.8,-300.97"/>
<text xml:space="preserve" text-anchor="middle" x="1923" y="-282.12" font-family="Arial" font-size="11.00" fill="#145a32">product_comparison.csv</text>
<text xml:space="preserve" text-anchor="middle" x="1923" y="-268.62" font-family="Arial" font-size="11.00" fill="#145a32">Downloads Folder</text>
</g>
<!-- ChromeDownloads&#45;&gt;CSVOutput -->
<g id="edge25" class="edge">
<title>ChromeDownloads&#45;&gt;CSVOutput</title>
<path fill="none" stroke="#1e8449" stroke-width="1.6" d="M1923,-485.88C1923,-485.88 1923,-317.99 1923,-317.99"/>
<polygon fill="#1e8449" stroke="#1e8449" stroke-width="1.6" points="1923,-309.49 1926.83,-317.99 1923.3,-311.79 1923.3,-317.99 1923,-317.99 1922.7,-317.99 1922.7,-311.79 1919.18,-317.99 1923,-309.49"/>
<text xml:space="preserve" text-anchor="middle" x="1902" y="-404.44" font-family="Arial" font-size="10.00" fill="#1e8449">saves file</text>
</g>
</g>
</svg>
