<?xml version="1.0" encoding="UTF-8" standalone="no"?>
<!DOCTYPE svg PUBLIC "-//W3C//DTD SVG 1.1//EN"
 "http://www.w3.org/Graphics/SVG/1.1/DTD/svg11.dtd">
<!-- Generated by graphviz version 14.1.5 (20260411.2331)
 -->
<!-- Title: EcommercePlugin Pages: 1 -->
<svg width="1412pt" height="810pt"
 viewBox="0.00 0.00 1412.00 810.00" xmlns="http://www.w3.org/2000/svg" xmlns:xlink="http://www.w3.org/1999/xlink">
<g id="graph0" class="graph" transform="scale(0.410286 0.410286) rotate(0) translate(43.2 1931.03)">
<title>EcommercePlugin</title>
<polygon fill="#f8fafc" stroke="none" points="-43.2,43.2 -43.2,-1931.03 3399.35,-1931.03 3399.35,43.2 -43.2,43.2"/>
<g id="clust1" class="cluster">
<title>cluster_popup</title>
<path fill="#ebf5fb" stroke="#2980b9" stroke-width="2.5" d="M148.2,-906.7C148.2,-906.7 515.5,-906.7 515.5,-906.7 521.5,-906.7 527.5,-912.7 527.5,-918.7 527.5,-918.7 527.5,-1324.37 527.5,-1324.37 527.5,-1330.37 521.5,-1336.37 515.5,-1336.37 515.5,-1336.37 148.2,-1336.37 148.2,-1336.37 142.2,-1336.37 136.2,-1330.37 136.2,-1324.37 136.2,-1324.37 136.2,-918.7 136.2,-918.7 136.2,-912.7 142.2,-906.7 148.2,-906.7"/>
<text xml:space="preserve" text-anchor="middle" x="331.85" y="-1320.97" font-family="Arial Bold" font-size="12.00" fill="#1a5276">Popup &#160;(popup.html + popup.js)</text>
</g>
<g id="clust2" class="cluster">
<title>cluster_scan</title>
<path fill="#f2f3f4" stroke="#7f8c8d" stroke-width="1.5" d="M606.5,-1305.92C606.5,-1305.92 778.5,-1305.92 778.5,-1305.92 784.5,-1305.92 790.5,-1311.92 790.5,-1317.92 790.5,-1317.92 790.5,-1848.77 790.5,-1848.77 790.5,-1854.77 784.5,-1860.77 778.5,-1860.77 778.5,-1860.77 606.5,-1860.77 606.5,-1860.77 600.5,-1860.77 594.5,-1854.77 594.5,-1848.77 594.5,-1848.77 594.5,-1317.92 594.5,-1317.92 594.5,-1311.92 600.5,-1305.92 606.5,-1305.92"/>
<text xml:space="preserve" text-anchor="middle" x="692.5" y="-1846.32" font-family="Arial Bold" font-size="11.00">Browser APIs &#160;(Scan flow only)</text>
</g>
<g id="clust3" class="cluster">
<title>cluster_background</title>
<path fill="#f4ecf7" stroke="#6c3483" stroke-width="3" d="M588.5,-27.07C588.5,-27.07 2025.8,-27.07 2025.8,-27.07 2031.8,-27.07 2037.8,-33.07 2037.8,-39.07 2037.8,-39.07 2037.8,-965.75 2037.8,-965.75 2037.8,-971.75 2031.8,-977.75 2025.8,-977.75 2025.8,-977.75 588.5,-977.75 588.5,-977.75 582.5,-977.75 576.5,-971.75 576.5,-965.75 576.5,-965.75 576.5,-39.07 576.5,-39.07 576.5,-33.07 582.5,-27.07 588.5,-27.07"/>
<text xml:space="preserve" text-anchor="middle" x="1307.15" y="-961.4" font-family="Arial Bold" font-size="13.00" fill="#4a235a">Background Service Worker &#160;(background.js)</text>
</g>
<g id="clust4" class="cluster">
<title>cluster_external</title>
<path fill="#fdedec" stroke="#c0392b" stroke-width="2.5" d="M2351,-588.68C2351,-588.68 2573.4,-588.68 2573.4,-588.68 2579.4,-588.68 2585.4,-594.68 2585.4,-600.68 2585.4,-600.68 2585.4,-887.94 2585.4,-887.94 2585.4,-893.94 2579.4,-899.94 2573.4,-899.94 2573.4,-899.94 2351,-899.94 2351,-899.94 2345,-899.94 2339,-893.94 2339,-887.94 2339,-887.94 2339,-600.68 2339,-600.68 2339,-594.68 2345,-588.68 2351,-588.68"/>
<text xml:space="preserve" text-anchor="middle" x="2462.2" y="-884.54" font-family="Arial Bold" font-size="12.00" fill="#7b241c">External Services</text>
</g>
<!-- Legend -->
<g id="node1" class="node">
<title>Legend</title>
<path fill="lightgrey" stroke="none" stroke-width="1.5" d="M3344.03,-526.12C3344.03,-526.12 2654.28,-526.12 2654.28,-526.12 2648.28,-526.12 2642.28,-520.12 2642.28,-514.12 2642.28,-514.12 2642.28,-459.88 2642.28,-459.88 2642.28,-453.88 2648.28,-447.88 2654.28,-447.88 2654.28,-447.88 3344.03,-447.88 3344.03,-447.88 3350.03,-447.88 3356.03,-453.88 3356.03,-459.88 3356.03,-459.88 3356.03,-514.12 3356.03,-514.12 3356.03,-520.12 3350.03,-526.12 3344.03,-526.12"/>
<polygon fill="#ffffff" stroke="none" points="2642.28,-447.88 2642.28,-526.12 3356.03,-526.12 3356.03,-447.88 2642.28,-447.88"/>
<polygon fill="#2c3e50" stroke="none" points="2644.28,-489.88 2644.28,-524.12 3354.03,-524.12 3354.03,-489.88 2644.28,-489.88"/>
<polygon fill="none" stroke="#7f8c8d" points="2644.28,-489.88 2644.28,-524.12 3354.03,-524.12 3354.03,-489.88 2644.28,-489.88"/>
<text xml:space="preserve" text-anchor="start" x="2940.65" y="-503.73" font-family="Arial" font-size="10.00"> &#160;&#160;&#160;&#160;&#160;&#160;&#160;&#160;&#160;</text>
<text xml:space="preserve" text-anchor="start" x="2970.65" y="-503.73" font-family="Arial" font-weight="bold" font-size="12.00" fill="#ffffff"> &#160;LEGEND &#160;</text>
<text xml:space="preserve" text-anchor="start" x="3033.65" y="-503.73" font-family="Arial" font-size="10.00"> &#160;&#160;&#160;&#160;&#160;&#160;&#160;</text>
<polygon fill="#e8e8e8" stroke="none" points="2644.28,-449.88 2644.28,-489.88 2791.78,-489.88 2791.78,-449.88 2644.28,-449.88"/>
<polygon fill="none" stroke="#7f8c8d" points="2644.28,-449.88 2644.28,-489.88 2791.78,-489.88 2791.78,-449.88 2644.28,-449.88"/>
<text xml:space="preserve" text-anchor="start" x="2654.28" y="-467.38" font-family="Arial" font-size="10.00"> &#160;&#160;&#160;&#160;&#160;&#160;&#160;&#160;&#160;</text>
<text xml:space="preserve" text-anchor="start" x="2684.28" y="-467.38" font-family="Arial" font-size="9.00" fill="#2c3e50">▪  Chrome API call</text>
<text xml:space="preserve" text-anchor="start" x="2757.78" y="-467.38" font-family="Arial" font-size="10.00"> &#160;&#160;&#160;&#160;&#160;&#160;&#160;</text>
<polygon fill="#d9eaf5" stroke="none" points="2791.78,-449.88 2791.78,-489.88 2920.53,-489.88 2920.53,-449.88 2791.78,-449.88"/>
<polygon fill="none" stroke="#7f8c8d" points="2791.78,-449.88 2791.78,-489.88 2920.53,-489.88 2920.53,-449.88 2791.78,-449.88"/>
<text xml:space="preserve" text-anchor="start" x="2808.15" y="-471.38" font-family="Arial" font-size="10.00"> &#160;&#160;&#160;&#160;&#160;&#160;&#160;&#160;&#160;</text>
<text xml:space="preserve" text-anchor="start" x="2838.15" y="-471.38" font-family="Arial" font-size="9.00" fill="#1a5276">▪  Persistent port</text>
<text xml:space="preserve" text-anchor="start" x="2801.78" y="-461.38" font-family="Arial" font-size="9.00" fill="#1a5276">(streaming progress)</text>
<text xml:space="preserve" text-anchor="start" x="2886.53" y="-461.38" font-family="Arial" font-size="10.00"> &#160;&#160;&#160;&#160;&#160;&#160;&#160;</text>
<polygon fill="#fad7a0" stroke="none" points="2920.53,-449.88 2920.53,-489.88 3074.78,-489.88 3074.78,-449.88 2920.53,-449.88"/>
<polygon fill="none" stroke="#7f8c8d" points="2920.53,-449.88 2920.53,-489.88 3074.78,-489.88 3074.78,-449.88 2920.53,-449.88"/>
<text xml:space="preserve" text-anchor="start" x="2930.53" y="-471.38" font-family="Arial" font-size="10.00"> &#160;&#160;&#160;&#160;&#160;&#160;&#160;&#160;&#160;</text>
<text xml:space="preserve" text-anchor="start" x="2960.53" y="-471.38" font-family="Arial" font-weight="bold" font-size="9.00" fill="#784212">★  LLM via Tool Router</text>
<text xml:space="preserve" text-anchor="start" x="2932.4" y="-461.38" font-family="Arial" font-size="9.00" fill="#784212">(goes through invokeTool)</text>
<text xml:space="preserve" text-anchor="start" x="3038.9" y="-461.38" font-family="Arial" font-size="10.00"> &#160;&#160;&#160;&#160;&#160;&#160;&#160;</text>
<polygon fill="#fadbd8" stroke="none" points="3074.78,-449.88 3074.78,-489.88 3213.28,-489.88 3213.28,-449.88 3074.78,-449.88"/>
<polygon fill="none" stroke="#7f8c8d" points="3074.78,-449.88 3074.78,-489.88 3213.28,-489.88 3213.28,-449.88 3074.78,-449.88"/>
<text xml:space="preserve" text-anchor="start" x="3087.03" y="-471.38" font-family="Arial" font-size="10.00"> &#160;&#160;&#160;&#160;&#160;&#160;&#160;&#160;&#160;</text>
<text xml:space="preserve" text-anchor="start" x="3117.03" y="-471.38" font-family="Arial" font-weight="bold" font-size="9.00" fill="#7b241c">★  Direct LLM call</text>
<text xml:space="preserve" text-anchor="start" x="3084.78" y="-461.38" font-family="Arial" font-size="9.00" fill="#7b241c">(bypasses Tool Router)</text>
<text xml:space="preserve" text-anchor="start" x="3179.28" y="-461.38" font-family="Arial" font-size="10.00"> &#160;&#160;&#160;&#160;&#160;&#160;&#160;</text>
<polygon fill="#d5f5e3" stroke="none" points="3213.28,-449.88 3213.28,-489.88 3354.03,-489.88 3354.03,-449.88 3213.28,-449.88"/>
<polygon fill="none" stroke="#7f8c8d" points="3213.28,-449.88 3213.28,-489.88 3354.03,-489.88 3354.03,-449.88 3213.28,-449.88"/>
<text xml:space="preserve" text-anchor="start" x="3223.28" y="-467.38" font-family="Arial" font-size="10.00"> &#160;&#160;&#160;&#160;&#160;&#160;&#160;&#160;&#160;</text>
<text xml:space="preserve" text-anchor="start" x="3253.28" y="-467.38" font-family="Arial" font-size="9.00" fill="#145a32">▪  No AI involved</text>
<text xml:space="preserve" text-anchor="start" x="3320.03" y="-467.38" font-family="Arial" font-size="10.00"> &#160;&#160;&#160;&#160;&#160;&#160;&#160;</text>
<polygon fill="none" stroke="#7f8c8d" stroke-width="2" points="2643.28,-448.88 2643.28,-525.12 3355.03,-525.12 3355.03,-448.88 2643.28,-448.88"/>
</g>
<!-- User -->
<g id="node2" class="node">
<title>User</title>
<ellipse fill="#2c3e50" stroke="black" stroke-width="0" cx="39.15" cy="-1083" rx="39.6" ry="39.6"/>
<text xml:space="preserve" text-anchor="middle" x="39.15" y="-1078.15" font-family="Arial" font-size="13.00" fill="#ffffff">User</text>
</g>
<!-- Popup -->
<g id="node3" class="node">
<title>Popup</title>
<path fill="#2e86c1" stroke="black" stroke-width="1.5" d="M507.8,-1127.27C507.8,-1127.27 156.5,-1127.27 156.5,-1127.27 150.5,-1127.27 144.5,-1121.27 144.5,-1115.27 144.5,-1115.27 144.5,-1050.73 144.5,-1050.73 144.5,-1044.73 150.5,-1038.73 156.5,-1038.73 156.5,-1038.73 507.8,-1038.73 507.8,-1038.73 513.8,-1038.73 519.8,-1044.73 519.8,-1050.73 519.8,-1050.73 519.8,-1115.27 519.8,-1115.27 519.8,-1121.27 513.8,-1127.27 507.8,-1127.27"/>
<text xml:space="preserve" text-anchor="middle" x="332.15" y="-1109.12" font-family="Arial" font-size="10.00" fill="#ffffff">Popup UI &amp; Controller</text>
<text xml:space="preserve" text-anchor="middle" x="332.15" y="-1097.12" font-family="Arial" font-size="10.00" fill="#ffffff">━━━━━━━━━━━━━━━━━━━━━━</text>
<text xml:space="preserve" text-anchor="middle" x="332.15" y="-1085.88" font-family="Arial" font-size="10.00" fill="#ffffff">Scan Tabs button</text>
<text xml:space="preserve" text-anchor="middle" x="332.15" y="-1073.88" font-family="Arial" font-size="10.00" fill="#ffffff">Compare &amp; CSV button</text>
<text xml:space="preserve" text-anchor="middle" x="332.15" y="-1061.88" font-family="Arial" font-size="10.00" fill="#ffffff">Summarize button</text>
<text xml:space="preserve" text-anchor="middle" x="332.15" y="-1049.88" font-family="Arial" font-size="10.00" fill="#ffffff">API Key settings panel</text>
</g>
<!-- User&#45;&gt;Popup -->
<g id="edge3" class="edge">
<title>User&#45;&gt;Popup</title>
<path fill="none" stroke="#566573" stroke-width="1.5" d="M78.67,-1083C78.67,-1083 134.18,-1083 134.18,-1083"/>
<polygon fill="#566573" stroke="#566573" stroke-width="1.5" points="142.18,-1083 134.18,-1086.6 140,-1083.25 134.18,-1083.25 134.18,-1083 134.18,-1082.75 140,-1082.75 134.18,-1079.4 142.18,-1083"/>
<text xml:space="preserve" text-anchor="middle" x="133.42" y="-1074.45" font-family="Arial" font-size="9.00" fill="#566573">opens popup</text>
</g>
<!-- ChromeTabs -->
<g id="node4" class="node">
<title>ChromeTabs</title>
<path fill="#bdc3c7" stroke="black" stroke-width="1.5" d="M759.35,-1424.64C759.35,-1424.64 624.95,-1424.64 624.95,-1424.64 618.95,-1424.64 612.95,-1418.64 612.95,-1412.64 612.95,-1412.64 612.95,-1395.36 612.95,-1395.36 612.95,-1389.36 618.95,-1383.36 624.95,-1383.36 624.95,-1383.36 759.35,-1383.36 759.35,-1383.36 765.35,-1383.36 771.35,-1389.36 771.35,-1395.36 771.35,-1395.36 771.35,-1412.64 771.35,-1412.64 771.35,-1418.64 765.35,-1424.64 759.35,-1424.64"/>
<text xml:space="preserve" text-anchor="middle" x="692.15" y="-1406.5" font-family="Arial" font-size="10.00" fill="#2c3e50">chrome.tabs</text>
<text xml:space="preserve" text-anchor="middle" x="692.15" y="-1394.5" font-family="Arial" font-size="10.00" fill="#2c3e50">Find all open tabs</text>
</g>
<!-- Popup&#45;&gt;ChromeTabs -->
<g id="edge4" class="edge">
<title>Popup&#45;&gt;ChromeTabs</title>
<path fill="none" stroke="#7f8c8d" stroke-width="1.5" stroke-dasharray="5,2" d="M395.15,-1127.97C395.15,-1216.32 395.15,-1404 395.15,-1404 395.15,-1404 602.73,-1404 602.73,-1404"/>
<polygon fill="#7f8c8d" stroke="#7f8c8d" stroke-width="1.5" points="610.73,-1404 602.73,-1407.6 608.56,-1404.25 602.73,-1404.25 602.73,-1404 602.73,-1403.75 608.56,-1403.75 602.73,-1400.4 610.73,-1404"/>
<text xml:space="preserve" text-anchor="middle" x="357.28" y="-1361.23" font-family="Arial" font-size="9.00" fill="#7f8c8d">1. query open tabs</text>
</g>
<!-- ChromeScripting -->
<g id="node5" class="node">
<title>ChromeScripting</title>
<path fill="#bdc3c7" stroke="black" stroke-width="1.5" d="M770.15,-1697.64C770.15,-1697.64 614.15,-1697.64 614.15,-1697.64 608.15,-1697.64 602.15,-1691.64 602.15,-1685.64 602.15,-1685.64 602.15,-1656.36 602.15,-1656.36 602.15,-1650.36 608.15,-1644.36 614.15,-1644.36 614.15,-1644.36 770.15,-1644.36 770.15,-1644.36 776.15,-1644.36 782.15,-1650.36 782.15,-1656.36 782.15,-1656.36 782.15,-1685.64 782.15,-1685.64 782.15,-1691.64 776.15,-1697.64 770.15,-1697.64"/>
<text xml:space="preserve" text-anchor="middle" x="692.15" y="-1679.5" font-family="Arial" font-size="10.00" fill="#2c3e50">chrome.scripting</text>
<text xml:space="preserve" text-anchor="middle" x="692.15" y="-1667.5" font-family="Arial" font-size="10.00" fill="#2c3e50">Inject extractor script</text>
<text xml:space="preserve" text-anchor="middle" x="692.15" y="-1655.5" font-family="Arial" font-size="10.00" fill="#2c3e50">into each product tab</text>
</g>
<!-- Popup&#45;&gt;ChromeScripting -->
<g id="edge5" class="edge">
<title>Popup&#45;&gt;ChromeScripting</title>
<path fill="none" stroke="#7f8c8d" stroke-width="1.5" stroke-dasharray="5,2" d="M269.15,-1127.68C269.15,-1264.9 269.15,-1671 269.15,-1671 269.15,-1671 591.58,-1671 591.58,-1671"/>
<polygon fill="#7f8c8d" stroke="#7f8c8d" stroke-width="1.5" points="599.58,-1671 591.58,-1674.6 597.41,-1671.25 591.58,-1671.25 591.58,-1671 591.58,-1670.75 597.41,-1670.75 591.58,-1667.4 599.58,-1671"/>
<text xml:space="preserve" text-anchor="middle" x="234.65" y="-1552" font-family="Arial" font-size="9.00" fill="#7f8c8d">2. inject extractor</text>
</g>
<!-- PortListener -->
<g id="node8" class="node">
<title>PortListener</title>
<path fill="#d7bde2" stroke="black" stroke-width="1.5" d="M788.15,-793.64C788.15,-793.64 596.15,-793.64 596.15,-793.64 590.15,-793.64 584.15,-787.64 584.15,-781.64 584.15,-781.64 584.15,-740.36 584.15,-740.36 584.15,-734.36 590.15,-728.36 596.15,-728.36 596.15,-728.36 788.15,-728.36 788.15,-728.36 794.15,-728.36 800.15,-734.36 800.15,-740.36 800.15,-740.36 800.15,-781.64 800.15,-781.64 800.15,-787.64 794.15,-793.64 788.15,-793.64"/>
<text xml:space="preserve" text-anchor="middle" x="692.15" y="-775.5" font-family="Arial" font-size="10.00" fill="#4a235a">Port Listener</text>
<text xml:space="preserve" text-anchor="middle" x="692.15" y="-763.5" font-family="Arial" font-size="10.00" fill="#4a235a">&#39;compareProgress&#39; channel</text>
<text xml:space="preserve" text-anchor="middle" x="692.15" y="-751.5" font-family="Arial" font-size="10.00" fill="#4a235a">Receives the compare request;</text>
<text xml:space="preserve" text-anchor="middle" x="692.15" y="-739.5" font-family="Arial" font-size="10.00" fill="#4a235a">streams progress events back</text>
</g>
<!-- Popup&#45;&gt;PortListener -->
<g id="edge9" class="edge">
<title>Popup&#45;&gt;PortListener</title>
<path fill="none" stroke="#7d3c98" stroke-width="2.5" d="M531.26,-1053.61C531.26,-1053.61 588.15,-1053.61 588.15,-1053.61 588.15,-1053.61 588.15,-805.33 588.15,-805.33"/>
<polygon fill="#7d3c98" stroke="#7d3c98" stroke-width="2.5" points="523.26,-1053.61 531.26,-1050.01 524.22,-1052.86 531.26,-1052.86 531.26,-1053.61 531.26,-1054.36 524.22,-1054.36 531.26,-1057.21 523.26,-1053.61"/>
<polygon fill="#7d3c98" stroke="#7d3c98" stroke-width="2.5" points="588.15,-797.33 591.75,-805.33 588.9,-798.28 588.9,-805.33 588.15,-805.33 587.4,-805.33 587.4,-798.28 584.55,-805.33 588.15,-797.33"/>
<text xml:space="preserve" text-anchor="middle" x="503.4" y="-949.36" font-family="Arial" font-size="9.00" fill="#7d3c98">runtime.connect() &#160;&#39;compareProgress&#39; port</text>
</g>
<!-- MsgListener -->
<g id="node9" class="node">
<title>MsgListener</title>
<path fill="#d7bde2" stroke="black" stroke-width="1.5" d="M1100.15,-790.64C1100.15,-790.64 908.15,-790.64 908.15,-790.64 902.15,-790.64 896.15,-784.64 896.15,-778.64 896.15,-778.64 896.15,-737.36 896.15,-737.36 896.15,-731.36 902.15,-725.36 908.15,-725.36 908.15,-725.36 1100.15,-725.36 1100.15,-725.36 1106.15,-725.36 1112.15,-731.36 1112.15,-737.36 1112.15,-737.36 1112.15,-778.64 1112.15,-778.64 1112.15,-784.64 1106.15,-790.64 1100.15,-790.64"/>
<text xml:space="preserve" text-anchor="middle" x="1004.15" y="-772.5" font-family="Arial" font-size="10.00" fill="#4a235a">Message Listener</text>
<text xml:space="preserve" text-anchor="middle" x="1004.15" y="-760.5" font-family="Arial" font-size="10.00" fill="#4a235a">Handles: summarizeProducts</text>
<text xml:space="preserve" text-anchor="middle" x="1004.15" y="-748.5" font-family="Arial" font-size="10.00" fill="#4a235a">productDetected</text>
<text xml:space="preserve" text-anchor="middle" x="1004.15" y="-736.5" font-family="Arial" font-size="10.00" fill="#4a235a">getDetectedProducts</text>
</g>
<!-- Popup&#45;&gt;MsgListener -->
<g id="edge19" class="edge">
<title>Popup&#45;&gt;MsgListener</title>
<path fill="none" stroke="#c0392b" stroke-width="2.5" d="M531.44,-1068.48C531.44,-1068.48 968.15,-1068.48 968.15,-1068.48 968.15,-1068.48 968.15,-802.27 968.15,-802.27"/>
<polygon fill="#c0392b" stroke="#c0392b" stroke-width="2.5" points="523.44,-1068.49 531.44,-1064.89 524.39,-1067.74 531.44,-1067.74 531.44,-1068.49 531.44,-1069.24 524.39,-1069.24 531.44,-1072.09 523.44,-1068.49"/>
<polygon fill="#c0392b" stroke="#c0392b" stroke-width="2.5" points="968.15,-794.27 971.75,-802.27 968.9,-795.23 968.9,-802.27 968.15,-802.27 967.4,-802.27 967.4,-795.23 964.55,-802.27 968.15,-794.27"/>
<text xml:space="preserve" text-anchor="middle" x="811.27" y="-1059.93" font-family="Arial" font-size="9.00" fill="#c0392b">sendMessage &#160;summarizeProducts</text>
</g>
<!-- WebPages -->
<g id="node6" class="node">
<title>WebPages</title>
<path fill="#fae5d3" stroke="#ca6f1e" stroke-width="1.5" d="M1112.15,-1450.72C1112.15,-1455.22 1063.74,-1458.88 1004.15,-1458.88 944.56,-1458.88 896.15,-1455.22 896.15,-1450.72 896.15,-1450.72 896.15,-1377.28 896.15,-1377.28 896.15,-1372.78 944.56,-1369.12 1004.15,-1369.12 1063.74,-1369.12 1112.15,-1372.78 1112.15,-1377.28 1112.15,-1377.28 1112.15,-1450.72 1112.15,-1450.72"/>
<path fill="none" stroke="#ca6f1e" stroke-width="1.5" d="M1112.15,-1450.72C1112.15,-1446.22 1063.74,-1442.56 1004.15,-1442.56 944.56,-1442.56 896.15,-1446.22 896.15,-1450.72"/>
<text xml:space="preserve" text-anchor="middle" x="1004.15" y="-1428.5" font-family="Arial" font-size="10.00" fill="#784212">Product Page DOM</text>
<text xml:space="preserve" text-anchor="middle" x="1004.15" y="-1416.5" font-family="Arial" font-size="10.00" fill="#784212">(Amazon · eBay · any site)</text>
<text xml:space="preserve" text-anchor="middle" x="1004.15" y="-1404.5" font-family="Arial" font-size="10.00" fill="#784212">Script extracts: name, price,</text>
<text xml:space="preserve" text-anchor="middle" x="1004.15" y="-1392.5" font-family="Arial" font-size="10.00" fill="#784212">category, URL — returns to Popup</text>
</g>
<!-- ChromeScripting&#45;&gt;WebPages -->
<g id="edge6" class="edge">
<title>ChromeScripting&#45;&gt;WebPages</title>
<path fill="none" stroke="#ca6f1e" stroke-width="1.5" stroke-dasharray="5,2" d="M777.15,-1633.53C777.15,-1633.53 777.15,-1441.76 777.15,-1441.76 777.15,-1441.76 885.81,-1441.76 885.81,-1441.76"/>
<polygon fill="#ca6f1e" stroke="#ca6f1e" stroke-width="1.5" points="774.35,-1633.53 777.15,-1641.53 779.95,-1633.53 774.35,-1633.53"/>
<polygon fill="#ca6f1e" stroke="#ca6f1e" stroke-width="1.5" points="893.81,-1441.76 885.81,-1445.36 891.64,-1442.01 885.81,-1442.01 885.81,-1441.76 885.81,-1441.51 891.64,-1441.51 885.81,-1438.16 893.81,-1441.76"/>
<text xml:space="preserve" text-anchor="middle" x="708.53" y="-1474.77" font-family="Arial" font-size="9.00" fill="#ca6f1e">runs script → returns product data</text>
</g>
<!-- ContentJS -->
<g id="node7" class="node">
<title>ContentJS</title>
<path fill="#1e8449" stroke="black" stroke-width="1.5" d="M780.95,-1148.64C780.95,-1148.64 603.35,-1148.64 603.35,-1148.64 597.35,-1148.64 591.35,-1142.64 591.35,-1136.64 591.35,-1136.64 591.35,-1095.36 591.35,-1095.36 591.35,-1089.36 597.35,-1083.36 603.35,-1083.36 603.35,-1083.36 780.95,-1083.36 780.95,-1083.36 786.95,-1083.36 792.95,-1089.36 792.95,-1095.36 792.95,-1095.36 792.95,-1136.64 792.95,-1136.64 792.95,-1142.64 786.95,-1148.64 780.95,-1148.64"/>
<text xml:space="preserve" text-anchor="middle" x="692.15" y="-1130.5" font-family="Arial" font-size="10.00" fill="#ffffff">content.js</text>
<text xml:space="preserve" text-anchor="middle" x="692.15" y="-1118.5" font-family="Arial" font-size="10.00" fill="#ffffff">Passive product detector</text>
<text xml:space="preserve" text-anchor="middle" x="692.15" y="-1106.5" font-family="Arial" font-size="10.00" fill="#ffffff">Runs automatically on every</text>
<text xml:space="preserve" text-anchor="middle" x="692.15" y="-1094.5" font-family="Arial" font-size="10.00" fill="#ffffff">page load &#160;(no user action)</text>
</g>
<!-- ContentJS&#45;&gt;WebPages -->
<g id="edge7" class="edge">
<title>ContentJS&#45;&gt;WebPages</title>
<path fill="none" stroke="#1e8449" stroke-width="1.5" stroke-dasharray="5,2" d="M787.15,-1149.22C787.15,-1219.38 787.15,-1376.24 787.15,-1376.24 787.15,-1376.24 885.82,-1376.24 885.82,-1376.24"/>
<polygon fill="#1e8449" stroke="#1e8449" stroke-width="1.5" points="893.82,-1376.24 885.82,-1379.84 891.65,-1376.49 885.82,-1376.49 885.82,-1376.24 885.82,-1375.99 891.65,-1375.99 885.82,-1372.64 893.82,-1376.24"/>
<text xml:space="preserve" text-anchor="middle" x="747.4" y="-1303.52" font-family="Arial" font-size="9.00" fill="#1e8449">reads DOM on load</text>
</g>
<!-- ContentJS&#45;&gt;MsgListener -->
<g id="edge8" class="edge">
<title>ContentJS&#45;&gt;MsgListener</title>
<path fill="none" stroke="#27ae60" stroke-width="1.5" d="M793.27,-1116C896.02,-1116 1040.15,-1116 1040.15,-1116 1040.15,-1116 1040.15,-801.19 1040.15,-801.19"/>
<polygon fill="#27ae60" stroke="#27ae60" stroke-width="1.5" points="1040.15,-793.19 1043.75,-801.19 1040.4,-795.36 1040.4,-801.19 1040.15,-801.19 1039.9,-801.19 1039.9,-795.36 1036.55,-801.19 1040.15,-793.19"/>
<text xml:space="preserve" text-anchor="middle" x="992.9" y="-1073.48" font-family="Arial" font-size="9.00" fill="#27ae60">sends productDetected</text>
</g>
<!-- Dispatcher -->
<g id="node10" class="node">
<title>Dispatcher</title>
<path fill="#6c3483" stroke="black" stroke-width="2.5" d="M993.47,-363.81C993.47,-363.81 875.78,-303.47 875.78,-303.47 870.44,-300.74 870.44,-295.26 875.78,-292.53 875.78,-292.53 993.47,-232.19 993.47,-232.19 998.81,-229.46 1009.49,-229.46 1014.83,-232.19 1014.83,-232.19 1132.52,-292.53 1132.52,-292.53 1137.86,-295.26 1137.86,-300.74 1132.52,-303.47 1132.52,-303.47 1014.83,-363.81 1014.83,-363.81 1009.49,-366.54 998.81,-366.54 993.47,-363.81"/>
<text xml:space="preserve" text-anchor="middle" x="1004.15" y="-314.55" font-family="Arial" font-size="11.00" fill="#ffffff">Tool Router</text>
<text xml:space="preserve" text-anchor="middle" x="1004.15" y="-301.05" font-family="Arial" font-size="11.00" fill="#ffffff">(invokeTool dispatcher)</text>
<text xml:space="preserve" text-anchor="middle" x="1004.15" y="-287.55" font-family="Arial" font-size="11.00" fill="#ffffff">Looks up tool by name</text>
<text xml:space="preserve" text-anchor="middle" x="1004.15" y="-274.05" font-family="Arial" font-size="11.00" fill="#ffffff">and calls it</text>
</g>
<!-- PortListener&#45;&gt;Dispatcher -->
<g id="edge10" class="edge">
<title>PortListener&#45;&gt;Dispatcher</title>
<path fill="none" stroke="#5b2c6f" stroke-width="2" d="M800.69,-759.5C842.38,-759.5 880.15,-759.5 880.15,-759.5 880.15,-759.5 880.15,-317.24 880.15,-317.24"/>
<polygon fill="#5b2c6f" stroke="#5b2c6f" stroke-width="2" points="880.15,-309.24 883.75,-317.24 880.65,-310.81 880.65,-317.24 880.15,-317.24 879.65,-317.24 879.65,-310.81 876.55,-317.24 880.15,-309.24"/>
<text xml:space="preserve" text-anchor="middle" x="834.78" y="-569.55" font-family="Arial" font-size="9.00" fill="#5b2c6f">routes to compare tool</text>
</g>
<!-- ToolSummarize -->
<g id="node14" class="node">
<title>ToolSummarize</title>
<path fill="#8e44ad" stroke="black" stroke-width="1.5" d="M1412.15,-786.64C1412.15,-786.64 1220.15,-786.64 1220.15,-786.64 1214.15,-786.64 1208.15,-780.64 1208.15,-774.64 1208.15,-774.64 1208.15,-733.36 1208.15,-733.36 1208.15,-727.36 1214.15,-721.36 1220.15,-721.36 1220.15,-721.36 1412.15,-721.36 1412.15,-721.36 1418.15,-721.36 1424.15,-727.36 1424.15,-733.36 1424.15,-733.36 1424.15,-774.64 1424.15,-774.64 1424.15,-780.64 1418.15,-786.64 1412.15,-786.64"/>
<text xml:space="preserve" text-anchor="middle" x="1316.15" y="-768.5" font-family="Arial" font-size="10.00" fill="#ffffff">Summarize Products</text>
<text xml:space="preserve" text-anchor="middle" x="1316.15" y="-756.5" font-family="Arial" font-size="10.00" fill="#ffffff">(entry point)</text>
<text xml:space="preserve" text-anchor="middle" x="1316.15" y="-744.5" font-family="Arial" font-size="10.00" fill="#ffffff">Loops over selected products;</text>
<text xml:space="preserve" text-anchor="middle" x="1316.15" y="-732.5" font-family="Arial" font-size="10.00" fill="#ffffff">collects per&#45;product summaries</text>
</g>
<!-- MsgListener&#45;&gt;ToolSummarize -->
<g id="edge20" class="edge">
<title>MsgListener&#45;&gt;ToolSummarize</title>
<path fill="none" stroke="#c0392b" stroke-width="2" d="M1112.83,-756C1112.83,-756 1197.15,-756 1197.15,-756"/>
<polygon fill="#c0392b" stroke="#c0392b" stroke-width="2" points="1205.15,-756 1197.15,-759.6 1203.59,-756.5 1197.15,-756.5 1197.15,-756 1197.15,-755.5 1203.59,-755.5 1197.15,-752.4 1205.15,-756"/>
<text xml:space="preserve" text-anchor="middle" x="1190.62" y="-747.45" font-family="Arial" font-size="9.00" fill="#c0392b">dispatches to tool</text>
</g>
<!-- ToolOrch -->
<g id="node11" class="node">
<title>ToolOrch</title>
<path fill="#8e44ad" stroke="black" stroke-width="1.5" d="M1412.15,-330.64C1412.15,-330.64 1220.15,-330.64 1220.15,-330.64 1214.15,-330.64 1208.15,-324.64 1208.15,-318.64 1208.15,-318.64 1208.15,-277.36 1208.15,-277.36 1208.15,-271.36 1214.15,-265.36 1220.15,-265.36 1220.15,-265.36 1412.15,-265.36 1412.15,-265.36 1418.15,-265.36 1424.15,-271.36 1424.15,-277.36 1424.15,-277.36 1424.15,-318.64 1424.15,-318.64 1424.15,-324.64 1418.15,-330.64 1412.15,-330.64"/>
<text xml:space="preserve" text-anchor="middle" x="1316.15" y="-312.5" font-family="Arial" font-size="10.00" fill="#ffffff">Compare Products</text>
<text xml:space="preserve" text-anchor="middle" x="1316.15" y="-300.5" font-family="Arial" font-size="10.00" fill="#ffffff">(orchestrator)</text>
<text xml:space="preserve" text-anchor="middle" x="1316.15" y="-288.5" font-family="Arial" font-size="10.00" fill="#ffffff">Loops over every tab pair;</text>
<text xml:space="preserve" text-anchor="middle" x="1316.15" y="-276.5" font-family="Arial" font-size="10.00" fill="#ffffff">collects results then exports</text>
</g>
<!-- Dispatcher&#45;&gt;ToolOrch -->
<g id="edge11" class="edge">
<title>Dispatcher&#45;&gt;ToolOrch</title>
<path fill="none" stroke="#7d3c98" stroke-width="2" d="M1145.54,-298C1145.54,-298 1197.06,-298 1197.06,-298"/>
<polygon fill="#7d3c98" stroke="#7d3c98" stroke-width="2" points="1205.06,-298 1197.06,-301.6 1203.49,-298.5 1197.06,-298.5 1197.06,-298 1197.06,-297.5 1203.49,-297.5 1197.06,-294.4 1205.06,-298"/>
<text xml:space="preserve" text-anchor="middle" x="1234.68" y="-289.45" font-family="Arial" font-size="9.00" fill="#7d3c98">compareProductsWithProgress</text>
</g>
<!-- ToolPair -->
<g id="node12" class="node">
<title>ToolPair</title>
<path fill="#8e44ad" stroke="black" stroke-width="1.5" d="M1708.35,-459.64C1708.35,-459.64 1501.95,-459.64 1501.95,-459.64 1495.95,-459.64 1489.95,-453.64 1489.95,-447.64 1489.95,-447.64 1489.95,-418.36 1489.95,-418.36 1489.95,-412.36 1495.95,-406.36 1501.95,-406.36 1501.95,-406.36 1708.35,-406.36 1708.35,-406.36 1714.35,-406.36 1720.35,-412.36 1720.35,-418.36 1720.35,-418.36 1720.35,-447.64 1720.35,-447.64 1720.35,-453.64 1714.35,-459.64 1708.35,-459.64"/>
<text xml:space="preserve" text-anchor="middle" x="1605.15" y="-441.5" font-family="Arial" font-size="10.00" fill="#ffffff">Compare Pair</text>
<text xml:space="preserve" text-anchor="middle" x="1605.15" y="-429.5" font-family="Arial" font-size="10.00" fill="#ffffff">Step 1 — keyword match &#160;(no LLM)</text>
<text xml:space="preserve" text-anchor="middle" x="1605.15" y="-417.5" font-family="Arial" font-size="10.00" fill="#ffffff">Step 2 — LLM if keywords disagree</text>
</g>
<!-- ToolOrch&#45;&gt;ToolPair -->
<g id="edge12" class="edge">
<title>ToolOrch&#45;&gt;ToolPair</title>
<path fill="none" stroke="#9b59b6" stroke-width="1.5" stroke-dasharray="5,2" d="M1424.84,-311.14C1465.1,-311.14 1501.15,-311.14 1501.15,-311.14 1501.15,-311.14 1501.15,-395.82 1501.15,-395.82"/>
<polygon fill="#9b59b6" stroke="#9b59b6" stroke-width="1.5" points="1501.15,-403.82 1497.55,-395.82 1500.9,-401.65 1500.9,-395.82 1501.15,-395.82 1501.4,-395.82 1501.4,-401.65 1504.75,-395.82 1501.15,-403.82"/>
<text xml:space="preserve" text-anchor="middle" x="1468.15" y="-306.77" font-family="Arial" font-size="9.00" fill="#9b59b6">for each tab pair</text>
</g>
<!-- ToolCsv -->
<g id="node17" class="node">
<title>ToolCsv</title>
<path fill="#8e44ad" stroke="black" stroke-width="1.5" d="M1686.75,-171.64C1686.75,-171.64 1523.55,-171.64 1523.55,-171.64 1517.55,-171.64 1511.55,-165.64 1511.55,-159.64 1511.55,-159.64 1511.55,-130.36 1511.55,-130.36 1511.55,-124.36 1517.55,-118.36 1523.55,-118.36 1523.55,-118.36 1686.75,-118.36 1686.75,-118.36 1692.75,-118.36 1698.75,-124.36 1698.75,-130.36 1698.75,-130.36 1698.75,-159.64 1698.75,-159.64 1698.75,-165.64 1692.75,-171.64 1686.75,-171.64"/>
<text xml:space="preserve" text-anchor="middle" x="1605.15" y="-153.5" font-family="Arial" font-size="10.00" fill="#ffffff">Build CSV</text>
<text xml:space="preserve" text-anchor="middle" x="1605.15" y="-141.5" font-family="Arial" font-size="10.00" fill="#ffffff">Formats comparison results</text>
<text xml:space="preserve" text-anchor="middle" x="1605.15" y="-129.5" font-family="Arial" font-size="10.00" fill="#ffffff">into a .csv string</text>
</g>
<!-- ToolOrch&#45;&gt;ToolCsv -->
<g id="edge15" class="edge">
<title>ToolOrch&#45;&gt;ToolCsv</title>
<path fill="none" stroke="#7d3c98" stroke-width="1.5" d="M1424.59,-278.5C1506.59,-278.5 1605.15,-278.5 1605.15,-278.5 1605.15,-278.5 1605.15,-182.17 1605.15,-182.17"/>
<polygon fill="#7d3c98" stroke="#7d3c98" stroke-width="1.5" points="1605.15,-174.17 1608.75,-182.17 1605.4,-176.34 1605.4,-182.17 1605.15,-182.17 1604.9,-182.17 1604.9,-176.34 1601.55,-182.17 1605.15,-174.17"/>
<text xml:space="preserve" text-anchor="middle" x="1536.78" y="-269.95" font-family="Arial" font-size="9.00" fill="#7d3c98">after all pairs</text>
</g>
<!-- ToolHeuristic -->
<g id="node13" class="node">
<title>ToolHeuristic</title>
<path fill="#d7bde2" stroke="black" stroke-dasharray="5,2" d="M1995.95,-459.64C1995.95,-459.64 1818.35,-459.64 1818.35,-459.64 1812.35,-459.64 1806.35,-453.64 1806.35,-447.64 1806.35,-447.64 1806.35,-418.36 1806.35,-418.36 1806.35,-412.36 1812.35,-406.36 1818.35,-406.36 1818.35,-406.36 1995.95,-406.36 1995.95,-406.36 2001.95,-406.36 2007.95,-412.36 2007.95,-418.36 2007.95,-418.36 2007.95,-447.64 2007.95,-447.64 2007.95,-453.64 2001.95,-459.64 1995.95,-459.64"/>
<text xml:space="preserve" text-anchor="middle" x="1907.15" y="-441.5" font-family="Arial" font-size="10.00" fill="#4a235a">Category Matcher</text>
<text xml:space="preserve" text-anchor="middle" x="1907.15" y="-429.5" font-family="Arial" font-size="10.00" fill="#4a235a">Keyword heuristic &#160;— &#160;no LLM</text>
<text xml:space="preserve" text-anchor="middle" x="1907.15" y="-417.5" font-family="Arial" font-size="10.00" fill="#4a235a">Fast; runs first for every pair</text>
</g>
<!-- ToolPair&#45;&gt;ToolHeuristic -->
<g id="edge13" class="edge">
<title>ToolPair&#45;&gt;ToolHeuristic</title>
<path fill="none" stroke="#2e86c1" stroke-width="1.5" d="M1721.05,-424.12C1721.05,-424.12 1796.03,-424.12 1796.03,-424.12"/>
<polygon fill="#2e86c1" stroke="#2e86c1" stroke-width="1.5" points="1804.03,-424.12 1796.03,-427.72 1801.85,-424.37 1796.03,-424.37 1796.03,-424.12 1796.03,-423.87 1801.85,-423.87 1796.03,-420.52 1804.03,-424.12"/>
<text xml:space="preserve" text-anchor="middle" x="1824.16" y="-415.57" font-family="Arial" font-size="9.00" fill="#2e86c1">step 1: keyword check &#160;(no LLM)</text>
</g>
<!-- ToolGemini -->
<g id="node16" class="node">
<title>ToolGemini</title>
<path fill="#e67e22" stroke="#7d3c00" stroke-width="4" d="M2017.55,-786.64C2017.55,-786.64 1796.75,-786.64 1796.75,-786.64 1790.75,-786.64 1784.75,-780.64 1784.75,-774.64 1784.75,-774.64 1784.75,-727.36 1784.75,-727.36 1784.75,-721.36 1790.75,-715.36 1796.75,-715.36 1796.75,-715.36 2017.55,-715.36 2017.55,-715.36 2023.55,-715.36 2029.55,-721.36 2029.55,-727.36 2029.55,-727.36 2029.55,-774.64 2029.55,-774.64 2029.55,-780.64 2023.55,-786.64 2017.55,-786.64"/>
<text xml:space="preserve" text-anchor="middle" x="1907.15" y="-767.55" font-family="Arial" font-size="11.00" fill="#ffffff">callGemini &#160;— &#160;★ LLM Gateway</text>
<text xml:space="preserve" text-anchor="middle" x="1907.15" y="-754.05" font-family="Arial" font-size="11.00" fill="#ffffff">All AI requests pass through here</text>
<text xml:space="preserve" text-anchor="middle" x="1907.15" y="-740.55" font-family="Arial" font-size="11.00" fill="#ffffff">Reads API key from chrome.storage</text>
<text xml:space="preserve" text-anchor="middle" x="1907.15" y="-727.05" font-family="Arial" font-size="11.00" fill="#ffffff">Calls Gemini REST API</text>
</g>
<!-- ToolPair&#45;&gt;ToolGemini -->
<g id="edge14" class="edge">
<title>ToolPair&#45;&gt;ToolGemini</title>
<path fill="none" stroke="#e67e22" stroke-width="2.8" stroke-dasharray="5,2" d="M1720.87,-441.88C1760.55,-441.88 1795.15,-441.88 1795.15,-441.88 1795.15,-441.88 1795.15,-701.99 1795.15,-701.99"/>
<polygon fill="#e67e22" stroke="#e67e22" stroke-width="2.8" points="1795.15,-709.99 1791.55,-701.99 1794.25,-709.4 1794.25,-701.99 1795.15,-701.99 1796.05,-701.99 1796.05,-709.4 1798.75,-701.99 1795.15,-709.99"/>
<text xml:space="preserve" text-anchor="middle" x="1709.65" y="-526.25" font-family="Arial" font-size="9.00" fill="#e67e22">step 2: ★ LLM fallback &#160;(via Tool Router)</text>
</g>
<!-- SummarizeProduct -->
<g id="node15" class="node">
<title>SummarizeProduct</title>
<path fill="#c0392b" stroke="#7b241c" stroke-width="3.5" d="M1708.35,-786.64C1708.35,-786.64 1501.95,-786.64 1501.95,-786.64 1495.95,-786.64 1489.95,-780.64 1489.95,-774.64 1489.95,-774.64 1489.95,-733.36 1489.95,-733.36 1489.95,-727.36 1495.95,-721.36 1501.95,-721.36 1501.95,-721.36 1708.35,-721.36 1708.35,-721.36 1714.35,-721.36 1720.35,-727.36 1720.35,-733.36 1720.35,-733.36 1720.35,-774.64 1720.35,-774.64 1720.35,-780.64 1714.35,-786.64 1708.35,-786.64"/>
<text xml:space="preserve" text-anchor="middle" x="1605.15" y="-768.5" font-family="Arial" font-size="10.00" fill="#ffffff">Summarize Single Product</text>
<text xml:space="preserve" text-anchor="middle" x="1605.15" y="-756.5" font-family="Arial" font-size="10.00" fill="#ffffff">★ &#160;DIRECT LLM CALL</text>
<text xml:space="preserve" text-anchor="middle" x="1605.15" y="-744.5" font-family="Arial" font-size="10.00" fill="#ffffff">Calls callGemini() directly</text>
<text xml:space="preserve" text-anchor="middle" x="1605.15" y="-732.5" font-family="Arial" font-size="10.00" fill="#ffffff">— skips Tool Router entirely</text>
</g>
<!-- ToolSummarize&#45;&gt;SummarizeProduct -->
<g id="edge21" class="edge">
<title>ToolSummarize&#45;&gt;SummarizeProduct</title>
<path fill="none" stroke="#c0392b" stroke-width="1.5" d="M1424.59,-754C1424.59,-754 1478.54,-754 1478.54,-754"/>
<polygon fill="#c0392b" stroke="#c0392b" stroke-width="1.5" points="1486.54,-754 1478.54,-757.6 1484.37,-754.25 1478.54,-754.25 1478.54,-754 1478.54,-753.75 1484.37,-753.75 1478.54,-750.4 1486.54,-754"/>
<text xml:space="preserve" text-anchor="middle" x="1486.06" y="-755.95" font-family="Arial" font-size="9.00" fill="#c0392b">once per product</text>
</g>
<!-- SummarizeProduct&#45;&gt;ToolGemini -->
<g id="edge22" class="edge">
<title>SummarizeProduct&#45;&gt;ToolGemini</title>
<path fill="none" stroke="#c0392b" stroke-width="3.5" d="M1721.91,-754C1721.91,-754 1770.98,-754 1770.98,-754"/>
<polygon fill="#c0392b" stroke="#c0392b" stroke-width="3.5" points="1778.98,-754 1770.98,-757.94 1778.95,-755.25 1770.98,-755.25 1770.98,-754 1770.98,-752.75 1778.95,-752.75 1770.98,-750.06 1778.98,-754"/>
<text xml:space="preserve" text-anchor="middle" x="1826.7" y="-745.45" font-family="Arial" font-size="9.00" fill="#c0392b">★ Direct call — bypasses Tool Router</text>
</g>
<!-- GeminiAPI -->
<g id="node19" class="node">
<title>GeminiAPI</title>
<path fill="#e74c3c" stroke="#922b21" stroke-width="2.5" d="M2565.35,-733.64C2565.35,-733.64 2358.95,-733.64 2358.95,-733.64 2352.95,-733.64 2346.95,-727.64 2346.95,-721.64 2346.95,-721.64 2346.95,-692.36 2346.95,-692.36 2346.95,-686.36 2352.95,-680.36 2358.95,-680.36 2358.95,-680.36 2565.35,-680.36 2565.35,-680.36 2571.35,-680.36 2577.35,-686.36 2577.35,-692.36 2577.35,-692.36 2577.35,-721.64 2577.35,-721.64 2577.35,-727.64 2571.35,-733.64 2565.35,-733.64"/>
<text xml:space="preserve" text-anchor="middle" x="2462.15" y="-715.5" font-family="Arial" font-size="10.00" fill="#ffffff">Google Gemini API</text>
<text xml:space="preserve" text-anchor="middle" x="2462.15" y="-703.5" font-family="Arial" font-size="10.00" fill="#ffffff">gemini&#45;2.5&#45;flash</text>
<text xml:space="preserve" text-anchor="middle" x="2462.15" y="-691.5" font-family="Arial" font-size="10.00" fill="#ffffff">generativelanguage.googleapis.com</text>
</g>
<!-- ToolGemini&#45;&gt;GeminiAPI -->
<g id="edge23" class="edge">
<title>ToolGemini&#45;&gt;GeminiAPI</title>
<path fill="none" stroke="#922b21" stroke-width="3" d="M2043.01,-724.5C2043.01,-724.5 2334.27,-724.5 2334.27,-724.5"/>
<polygon fill="#922b21" stroke="#922b21" stroke-width="3" points="2035.01,-724.5 2043.01,-720.9 2035.36,-723.5 2043.01,-723.5 2043.01,-724.5 2043.01,-725.5 2035.36,-725.5 2043.01,-728.1 2035.01,-724.5"/>
<polygon fill="#922b21" stroke="#922b21" stroke-width="3" points="2342.27,-724.5 2334.27,-728.1 2341.92,-725.5 2334.27,-725.5 2334.27,-724.5 2334.27,-723.5 2341.92,-723.5 2334.27,-720.9 2342.27,-724.5"/>
<text xml:space="preserve" text-anchor="middle" x="2294.77" y="-726.45" font-family="Arial" font-size="9.00" fill="#922b21">POST &#160;/v1/models/gemini&#45;2.5&#45;flash:generateContent</text>
</g>
<!-- ToolDownload -->
<g id="node18" class="node">
<title>ToolDownload</title>
<path fill="#8e44ad" stroke="black" stroke-width="1.5" d="M1995.95,-171.64C1995.95,-171.64 1818.35,-171.64 1818.35,-171.64 1812.35,-171.64 1806.35,-165.64 1806.35,-159.64 1806.35,-159.64 1806.35,-130.36 1806.35,-130.36 1806.35,-124.36 1812.35,-118.36 1818.35,-118.36 1818.35,-118.36 1995.95,-118.36 1995.95,-118.36 2001.95,-118.36 2007.95,-124.36 2007.95,-130.36 2007.95,-130.36 2007.95,-159.64 2007.95,-159.64 2007.95,-165.64 2001.95,-171.64 1995.95,-171.64"/>
<text xml:space="preserve" text-anchor="middle" x="1907.15" y="-153.5" font-family="Arial" font-size="10.00" fill="#ffffff">Trigger Download</text>
<text xml:space="preserve" text-anchor="middle" x="1907.15" y="-141.5" font-family="Arial" font-size="10.00" fill="#ffffff">Calls chrome.downloads API</text>
<text xml:space="preserve" text-anchor="middle" x="1907.15" y="-129.5" font-family="Arial" font-size="10.00" fill="#ffffff">to save the file to disk</text>
</g>
<!-- ToolCsv&#45;&gt;ToolDownload -->
<g id="edge16" class="edge">
<title>ToolCsv&#45;&gt;ToolDownload</title>
<path fill="none" stroke="#7d3c98" stroke-width="1.5" d="M1699.46,-145C1699.46,-145 1795.88,-145 1795.88,-145"/>
<polygon fill="#7d3c98" stroke="#7d3c98" stroke-width="1.5" points="1803.88,-145 1795.88,-148.6 1801.7,-145.25 1795.88,-145.25 1795.88,-145 1795.88,-144.75 1801.7,-144.75 1795.88,-141.4 1803.88,-145"/>
</g>
<!-- ChromeDownloads -->
<g id="node20" class="node">
<title>ChromeDownloads</title>
<path fill="#bdc3c7" stroke="black" stroke-width="1.5" d="M2269.75,-206.64C2269.75,-206.64 2106.55,-206.64 2106.55,-206.64 2100.55,-206.64 2094.55,-200.64 2094.55,-194.64 2094.55,-194.64 2094.55,-177.36 2094.55,-177.36 2094.55,-171.36 2100.55,-165.36 2106.55,-165.36 2106.55,-165.36 2269.75,-165.36 2269.75,-165.36 2275.75,-165.36 2281.75,-171.36 2281.75,-177.36 2281.75,-177.36 2281.75,-194.64 2281.75,-194.64 2281.75,-200.64 2275.75,-206.64 2269.75,-206.64"/>
<text xml:space="preserve" text-anchor="middle" x="2188.15" y="-188.5" font-family="Arial" font-size="10.00" fill="#2c3e50">chrome.downloads</text>
<text xml:space="preserve" text-anchor="middle" x="2188.15" y="-176.5" font-family="Arial" font-size="10.00" fill="#2c3e50">Saves file to disk</text>
</g>
<!-- ToolDownload&#45;&gt;ChromeDownloads -->
<g id="edge17" class="edge">
<title>ToolDownload&#45;&gt;ChromeDownloads</title>
<path fill="none" stroke="#7f8c8d" stroke-width="1.5" stroke-dasharray="5,2" d="M2008.6,-141.86C2089.09,-141.86 2188.15,-141.86 2188.15,-141.86 2188.15,-141.86 2188.15,-154.88 2188.15,-154.88"/>
<polygon fill="#7f8c8d" stroke="#7f8c8d" stroke-width="1.5" points="2188.15,-162.88 2184.55,-154.88 2187.9,-160.71 2187.9,-154.88 2188.15,-154.88 2188.4,-154.88 2188.4,-160.71 2191.75,-154.88 2188.15,-162.88"/>
<text xml:space="preserve" text-anchor="middle" x="2168.26" y="-133.31" font-family="Arial" font-size="9.00" fill="#7f8c8d">chrome.downloads.download()</text>
</g>
<!-- GeminiAPI&#45;&gt;Legend -->
<!-- CSVOutput -->
<g id="node21" class="node">
<title>CSVOutput</title>
<polygon fill="#a9dfbf" stroke="#1e8449" stroke-width="1.5" points="2556.95,-291.64 2361.35,-291.64 2361.35,-250.36 2562.95,-250.36 2562.95,-285.64 2556.95,-291.64"/>
<polyline fill="none" stroke="#1e8449" stroke-width="1.5" points="2556.95,-291.64 2556.95,-285.64"/>
<polyline fill="none" stroke="#1e8449" stroke-width="1.5" points="2562.95,-285.64 2556.95,-285.64"/>
<text xml:space="preserve" text-anchor="middle" x="2462.15" y="-273.5" font-family="Arial" font-size="10.00" fill="#145a32">product_comparison.csv</text>
<text xml:space="preserve" text-anchor="middle" x="2462.15" y="-261.5" font-family="Arial" font-size="10.00" fill="#145a32">saved to Downloads folder</text>
</g>
<!-- ChromeDownloads&#45;&gt;CSVOutput -->
<g id="edge18" class="edge">
<title>ChromeDownloads&#45;&gt;CSVOutput</title>
<path fill="none" stroke="#1e8449" stroke-width="1.5" d="M2188.15,-207.17C2188.15,-228.37 2188.15,-257.86 2188.15,-257.86 2188.15,-257.86 2351.07,-257.86 2351.07,-257.86"/>
<polygon fill="#1e8449" stroke="#1e8449" stroke-width="1.5" points="2359.07,-257.86 2351.07,-261.46 2356.9,-258.11 2351.07,-258.11 2351.07,-257.86 2351.07,-257.61 2356.9,-257.61 2351.07,-254.26 2359.07,-257.86"/>
<text xml:space="preserve" text-anchor="middle" x="2224.77" y="-249.31" font-family="Arial" font-size="9.00" fill="#1e8449">file saved</text>
</g>
<!-- CSVOutput&#45;&gt;Legend -->
</g>
</svg>
