<?xml version="1.0" encoding="UTF-8" standalone="no"?>
<!DOCTYPE svg PUBLIC "-//W3C//DTD SVG 1.1//EN"
 "http://www.w3.org/Graphics/SVG/1.1/DTD/svg11.dtd">
<!-- Generated by graphviz version 14.1.5 (20260411.2331)
 -->
<!-- Title: EcommercePlugin Pages: 1 -->
<svg width="2957pt" height="2306pt"
 viewBox="0.00 0.00 2957.00 2306.00" xmlns="http://www.w3.org/2000/svg" xmlns:xlink="http://www.w3.org/1999/xlink">
<g id="graph0" class="graph" transform="scale(1 1) rotate(0) translate(129.6 2176.41)">
<title>EcommercePlugin</title>
<polygon fill="#f8fafc" stroke="none" points="-129.6,129.6 -129.6,-2176.41 2827.6,-2176.41 2827.6,129.6 -129.6,129.6"/>
<g id="clust1" class="cluster">
<title>cluster_legend</title>
<path fill="#ffffff" stroke="#bdc3c7" stroke-width="1.5" d="M20,-992.35C20,-992.35 268,-992.35 268,-992.35 274,-992.35 280,-998.35 280,-1004.35 280,-1004.35 280,-2026.81 280,-2026.81 280,-2032.81 274,-2038.81 268,-2038.81 268,-2038.81 20,-2038.81 20,-2038.81 14,-2038.81 8,-2032.81 8,-2026.81 8,-2026.81 8,-1004.35 8,-1004.35 8,-998.35 14,-992.35 20,-992.35"/>
<text xml:space="preserve" text-anchor="middle" x="144" y="-2023.41" font-family="Arial Bold" font-size="12.00">Legend</text>
</g>
<g id="clust2" class="cluster">
<title>cluster_popup</title>
<path fill="#ebf5fb" stroke="#2980b9" stroke-width="2.5" d="M1869,-1461.35C1869,-1461.35 2157,-1461.35 2157,-1461.35 2163,-1461.35 2169,-1467.35 2169,-1473.35 2169,-1473.35 2169,-1786.45 2169,-1786.45 2169,-1792.45 2163,-1798.45 2157,-1798.45 2157,-1798.45 1869,-1798.45 1869,-1798.45 1863,-1798.45 1857,-1792.45 1857,-1786.45 1857,-1786.45 1857,-1473.35 1857,-1473.35 1857,-1467.35 1863,-1461.35 1869,-1461.35"/>
<text xml:space="preserve" text-anchor="middle" x="2013" y="-1782.1" font-family="Arial Bold" font-size="13.00" fill="#1a5276">Popup Layer</text>
</g>
<g id="clust3" class="cluster">
<title>cluster_content</title>
<path fill="#e9f7ef" stroke="#1e8449" stroke-width="2.5" d="M1212,-1461.35C1212,-1461.35 1420,-1461.35 1420,-1461.35 1426,-1461.35 1432,-1467.35 1432,-1473.35 1432,-1473.35 1432,-1557.65 1432,-1557.65 1432,-1563.65 1426,-1569.65 1420,-1569.65 1420,-1569.65 1212,-1569.65 1212,-1569.65 1206,-1569.65 1200,-1563.65 1200,-1557.65 1200,-1557.65 1200,-1473.35 1200,-1473.35 1200,-1467.35 1206,-1461.35 1212,-1461.35"/>
<text xml:space="preserve" text-anchor="middle" x="1316" y="-1553.3" font-family="Arial Bold" font-size="13.00" fill="#145a32">Content Layer</text>
</g>
<g id="clust4" class="cluster">
<title>cluster_scan</title>
<path fill="#f2f3f4" stroke="#7f8c8d" stroke-width="1.5" d="M2183,-1232.55C2183,-1232.55 2678,-1232.55 2678,-1232.55 2684,-1232.55 2690,-1238.55 2690,-1244.55 2690,-1244.55 2690,-1314.6 2690,-1314.6 2690,-1320.6 2684,-1326.6 2678,-1326.6 2678,-1326.6 2183,-1326.6 2183,-1326.6 2177,-1326.6 2171,-1320.6 2171,-1314.6 2171,-1314.6 2171,-1244.55 2171,-1244.55 2171,-1238.55 2177,-1232.55 2183,-1232.55"/>
<text xml:space="preserve" text-anchor="middle" x="2430.5" y="-1311.2" font-family="Arial Bold" font-size="12.00">Scan APIs</text>
</g>
<g id="clust5" class="cluster">
<title>cluster_background</title>
<path fill="#f4ecf7" stroke="#6c3483" stroke-width="3" d="M300,-242.17C300,-242.17 2151,-242.17 2151,-242.17 2157,-242.17 2163,-248.17 2163,-254.17 2163,-254.17 2163,-1346.35 2163,-1346.35 2163,-1352.35 2157,-1358.35 2151,-1358.35 2151,-1358.35 300,-1358.35 300,-1358.35 294,-1358.35 288,-1352.35 288,-1346.35 288,-1346.35 288,-254.17 288,-254.17 288,-248.17 294,-242.17 300,-242.17"/>
<text xml:space="preserve" text-anchor="middle" x="1225.5" y="-1341.05" font-family="Arial Bold" font-size="14.00" fill="#4a235a">Background Service Worker &#160;(background.js)</text>
</g>
<g id="clust6" class="cluster">
<title>cluster_listeners</title>
<path fill="#ead8f5" stroke="#9b59b6" stroke-width="2" d="M1141,-1232.55C1141,-1232.55 1865,-1232.55 1865,-1232.55 1871,-1232.55 1877,-1238.55 1877,-1244.55 1877,-1244.55 1877,-1314.6 1877,-1314.6 1877,-1320.6 1871,-1326.6 1865,-1326.6 1865,-1326.6 1141,-1326.6 1141,-1326.6 1135,-1326.6 1129,-1320.6 1129,-1314.6 1129,-1314.6 1129,-1244.55 1129,-1244.55 1129,-1238.55 1135,-1232.55 1141,-1232.55"/>
<text xml:space="preserve" text-anchor="middle" x="1503" y="-1311.2" font-family="Arial Bold" font-size="12.00" fill="#4a235a">Chrome Runtime Listeners</text>
</g>
<g id="clust7" class="cluster">
<title>cluster_tools</title>
<path fill="#ead8f5" stroke="#5b2c6f" stroke-width="2" d="M452,-250.17C452,-250.17 2143,-250.17 2143,-250.17 2149,-250.17 2155,-256.18 2155,-262.18 2155,-262.18 2155,-848.7 2155,-848.7 2155,-854.7 2149,-860.7 2143,-860.7 2143,-860.7 452,-860.7 452,-860.7 446,-860.7 440,-854.7 440,-848.7 440,-848.7 440,-262.17 440,-262.17 440,-256.17 446,-250.17 452,-250.17"/>
<text xml:space="preserve" text-anchor="middle" x="1297.5" y="-845.3" font-family="Arial Bold" font-size="12.00" fill="#4a235a">Tool Registry</text>
</g>
<g id="clust8" class="cluster">
<title>cluster_cmp_tools</title>
<path fill="#e8daef" stroke="#8e44ad" stroke-width="1.5" d="M820,-258.17C820,-258.17 1056,-258.17 1056,-258.17 1062,-258.17 1068,-264.17 1068,-270.17 1068,-270.17 1068,-818.45 1068,-818.45 1068,-824.45 1062,-830.45 1056,-830.45 1056,-830.45 820,-830.45 820,-830.45 814,-830.45 808,-824.45 808,-818.45 808,-818.45 808,-270.17 808,-270.17 808,-264.17 814,-258.17 820,-258.17"/>
<text xml:space="preserve" text-anchor="middle" x="938" y="-816" font-family="Arial Bold" font-size="11.00" fill="#4a235a">Comparison Flow</text>
</g>
<g id="clust9" class="cluster">
<title>cluster_sum_tools</title>
<path fill="#fadbd8" stroke="#c0392b" stroke-width="1.5" d="M460,-494.85C460,-494.85 668,-494.85 668,-494.85 674,-494.85 680,-500.85 680,-506.85 680,-506.85 680,-818.45 680,-818.45 680,-824.45 674,-830.45 668,-830.45 668,-830.45 460,-830.45 460,-830.45 454,-830.45 448,-824.45 448,-818.45 448,-818.45 448,-506.85 448,-506.85 448,-500.85 454,-494.85 460,-494.85"/>
<text xml:space="preserve" text-anchor="middle" x="564" y="-816" font-family="Arial Bold" font-size="11.00" fill="#4a235a">Summarize Flow</text>
</g>
<g id="clust10" class="cluster">
<title>cluster_util_tools</title>
<path fill="#e8daef" stroke="#8e44ad" stroke-width="1.5" d="M1223,-737.15C1223,-737.15 2135,-737.15 2135,-737.15 2141,-737.15 2147,-743.15 2147,-749.15 2147,-749.15 2147,-818.45 2147,-818.45 2147,-824.45 2141,-830.45 2135,-830.45 2135,-830.45 1223,-830.45 1223,-830.45 1217,-830.45 1211,-824.45 1211,-818.45 1211,-818.45 1211,-749.15 1211,-749.15 1211,-743.15 1217,-737.15 1223,-737.15"/>
<text xml:space="preserve" text-anchor="middle" x="1679" y="-816" font-family="Arial Bold" font-size="11.00" fill="#4a235a">Utility Tools &#160;(no LLM)</text>
</g>
<g id="clust11" class="cluster">
<title>cluster_external</title>
<path fill="#fdedec" stroke="#c0392b" stroke-width="2.5" d="M449,-8C449,-8 685,-8 685,-8 691,-8 697,-14 697,-20 697,-20 697,-104.3 697,-104.3 697,-110.3 691,-116.3 685,-116.3 685,-116.3 449,-116.3 449,-116.3 443,-116.3 437,-110.3 437,-104.3 437,-104.3 437,-20 437,-20 437,-14 443,-8 449,-8"/>
<text xml:space="preserve" text-anchor="middle" x="567" y="-99.95" font-family="Arial Bold" font-size="13.00" fill="#7b241c">External Services</text>
</g>
<g id="clust12" class="cluster">
<title>cluster_dl_api</title>
<path fill="#f2f3f4" stroke="#7f8c8d" stroke-width="1.5" d="M2183,-501.6C2183,-501.6 2363,-501.6 2363,-501.6 2369,-501.6 2375,-507.6 2375,-513.6 2375,-513.6 2375,-583.65 2375,-583.65 2375,-589.65 2369,-595.65 2363,-595.65 2363,-595.65 2183,-595.65 2183,-595.65 2177,-595.65 2171,-589.65 2171,-583.65 2171,-583.65 2171,-513.6 2171,-513.6 2171,-507.6 2177,-501.6 2183,-501.6"/>
<text xml:space="preserve" text-anchor="middle" x="2273" y="-580.25" font-family="Arial Bold" font-size="12.00">Chrome Download API</text>
</g>
<!-- LA -->
<g id="node1" class="node">
<title>LA</title>
<path fill="#e5e8e8" stroke="black" stroke-width="1.5" d="M254.4,-2008.56C254.4,-2008.56 33.6,-2008.56 33.6,-2008.56 27.6,-2008.56 21.6,-2002.56 21.6,-1996.56 21.6,-1996.56 21.6,-1979.76 21.6,-1979.76 21.6,-1973.76 27.6,-1967.76 33.6,-1967.76 33.6,-1967.76 254.4,-1967.76 254.4,-1967.76 260.4,-1967.76 266.4,-1973.76 266.4,-1979.76 266.4,-1979.76 266.4,-1996.56 266.4,-1996.56 266.4,-2002.56 260.4,-2008.56 254.4,-2008.56"/>
<text xml:space="preserve" text-anchor="middle" x="144" y="-1984.66" font-family="Arial" font-size="10.00" fill="#2c3e50">Chrome API / message</text>
</g>
<!-- LB -->
<g id="node2" class="node">
<title>LB</title>
<path fill="#ead8f5" stroke="#7d3c98" stroke-width="2.5" d="M254.4,-1759.95C254.4,-1759.95 33.6,-1759.95 33.6,-1759.95 27.6,-1759.95 21.6,-1753.95 21.6,-1747.95 21.6,-1747.95 21.6,-1731.15 21.6,-1731.15 21.6,-1725.15 27.6,-1719.15 33.6,-1719.15 33.6,-1719.15 254.4,-1719.15 254.4,-1719.15 260.4,-1719.15 266.4,-1725.15 266.4,-1731.15 266.4,-1731.15 266.4,-1747.95 266.4,-1747.95 266.4,-1753.95 260.4,-1759.95 254.4,-1759.95"/>
<text xml:space="preserve" text-anchor="middle" x="144" y="-1736.05" font-family="Arial" font-size="10.00" fill="#4a235a">Long&#45;lived Port &#160;(bidirectional)</text>
</g>
<!-- LA&#45;&gt;LB -->
<!-- LC -->
<g id="node3" class="node">
<title>LC</title>
<path fill="#fad7a0" stroke="#e67e22" stroke-width="2.5" d="M255.45,-1524.4C255.45,-1524.4 32.55,-1524.4 32.55,-1524.4 26.55,-1524.4 20.55,-1518.4 20.55,-1512.4 20.55,-1512.4 20.55,-1495.6 20.55,-1495.6 20.55,-1489.6 26.55,-1483.6 32.55,-1483.6 32.55,-1483.6 255.45,-1483.6 255.45,-1483.6 261.45,-1483.6 267.45,-1489.6 267.45,-1495.6 267.45,-1495.6 267.45,-1512.4 267.45,-1512.4 267.45,-1518.4 261.45,-1524.4 255.45,-1524.4"/>
<text xml:space="preserve" text-anchor="middle" x="144" y="-1500.5" font-family="Arial" font-size="10.00" fill="#784212">LLM via Tool &#160;(through invokeTool dispatcher)</text>
</g>
<!-- LB&#45;&gt;LC -->
<!-- LD -->
<g id="node4" class="node">
<title>LD</title>
<path fill="#fadbd8" stroke="#c0392b" stroke-width="3" d="M259.95,-1288.85C259.95,-1288.85 28.05,-1288.85 28.05,-1288.85 22.05,-1288.85 16.05,-1282.85 16.05,-1276.85 16.05,-1276.85 16.05,-1260.05 16.05,-1260.05 16.05,-1254.05 22.05,-1248.05 28.05,-1248.05 28.05,-1248.05 259.95,-1248.05 259.95,-1248.05 265.95,-1248.05 271.95,-1254.05 271.95,-1260.05 271.95,-1260.05 271.95,-1276.85 271.95,-1276.85 271.95,-1282.85 265.95,-1288.85 259.95,-1288.85"/>
<text xml:space="preserve" text-anchor="middle" x="144" y="-1264.95" font-family="Arial" font-size="10.00" fill="#7b241c">Pure LLM Call &#160;(direct fn, bypasses dispatcher)</text>
</g>
<!-- LC&#45;&gt;LD -->
<!-- LE -->
<g id="node5" class="node">
<title>LE</title>
<path fill="#d5f5e3" stroke="#1e8449" d="M254.4,-1041.15C254.4,-1041.15 33.6,-1041.15 33.6,-1041.15 27.6,-1041.15 21.6,-1035.15 21.6,-1029.15 21.6,-1029.15 21.6,-1012.35 21.6,-1012.35 21.6,-1006.35 27.6,-1000.35 33.6,-1000.35 33.6,-1000.35 254.4,-1000.35 254.4,-1000.35 260.4,-1000.35 266.4,-1006.35 266.4,-1012.35 266.4,-1012.35 266.4,-1029.15 266.4,-1029.15 266.4,-1035.15 260.4,-1041.15 254.4,-1041.15"/>
<text xml:space="preserve" text-anchor="middle" x="144" y="-1017.25" font-family="Arial" font-size="10.00" fill="#145a32">Utility &#160;/ &#160;No LLM</text>
</g>
<!-- LD&#45;&gt;LE -->
<!-- User -->
<g id="node6" class="node">
<title>User</title>
<ellipse fill="#2c3e50" stroke="black" stroke-width="0" cx="2013" cy="-1988.16" rx="47.71" ry="47.71"/>
<text xml:space="preserve" text-anchor="middle" x="2013" y="-1982.74" font-family="Arial" font-size="14.00" fill="#ffffff">User</text>
</g>
<!-- PopupHTML -->
<g id="node7" class="node">
<title>PopupHTML</title>
<path fill="#aed6f1" stroke="black" stroke-width="1.5" d="M2087.4,-1767.45C2087.4,-1767.45 1938.6,-1767.45 1938.6,-1767.45 1932.6,-1767.45 1926.6,-1761.45 1926.6,-1755.45 1926.6,-1755.45 1926.6,-1723.65 1926.6,-1723.65 1926.6,-1717.65 1932.6,-1711.65 1938.6,-1711.65 1938.6,-1711.65 2087.4,-1711.65 2087.4,-1711.65 2093.4,-1711.65 2099.4,-1717.65 2099.4,-1723.65 2099.4,-1723.65 2099.4,-1755.45 2099.4,-1755.45 2099.4,-1761.45 2093.4,-1767.45 2087.4,-1767.45"/>
<text xml:space="preserve" text-anchor="middle" x="2013" y="-1742.6" font-family="Arial" font-size="11.00" fill="#1a5276">popup.html</text>
<text xml:space="preserve" text-anchor="middle" x="2013" y="-1729.1" font-family="Arial" font-size="11.00" fill="#1a5276">UI Shell</text>
</g>
<!-- User&#45;&gt;PopupHTML -->
<g id="edge5" class="edge">
<title>User&#45;&gt;PopupHTML</title>
<path fill="none" stroke="#566573" stroke-width="1.6" d="M2013,-1940.52C2013,-1940.52 2013,-1778.5 2013,-1778.5"/>
<polygon fill="#566573" stroke="#566573" stroke-width="1.6" points="2013,-1770 2016.83,-1778.5 2013.3,-1772.3 2013.3,-1778.5 2013,-1778.5 2012.7,-1778.5 2012.7,-1772.3 2009.18,-1778.5 2013,-1770"/>
<text xml:space="preserve" text-anchor="middle" x="1985.25" y="-1862.01" font-family="Arial" font-size="10.00" fill="#566573">opens popup</text>
</g>
<!-- PopupJS -->
<g id="node8" class="node">
<title>PopupJS</title>
<path fill="#2e86c1" stroke="black" stroke-width="1.5" d="M2149.2,-1538.65C2149.2,-1538.65 1876.8,-1538.65 1876.8,-1538.65 1870.8,-1538.65 1864.8,-1532.65 1864.8,-1526.65 1864.8,-1526.65 1864.8,-1481.35 1864.8,-1481.35 1864.8,-1475.35 1870.8,-1469.35 1876.8,-1469.35 1876.8,-1469.35 2149.2,-1469.35 2149.2,-1469.35 2155.2,-1469.35 2161.2,-1475.35 2161.2,-1481.35 2161.2,-1481.35 2161.2,-1526.65 2161.2,-1526.65 2161.2,-1532.65 2155.2,-1538.65 2149.2,-1538.65"/>
<text xml:space="preserve" text-anchor="middle" x="2013" y="-1513.8" font-family="Arial" font-size="11.00" fill="#ffffff">popup.js</text>
<text xml:space="preserve" text-anchor="middle" x="2013" y="-1500.3" font-family="Arial" font-size="11.00" fill="#ffffff">UI Controller &#160;&amp; &#160;Orchestrator</text>
<text xml:space="preserve" text-anchor="middle" x="2013" y="-1486.8" font-family="Arial" font-size="11.00" fill="#ffffff">Compare btn &#160;&#160;| &#160;&#160;Summarize btn &#160;&#160;| &#160;&#160;API Key panel</text>
</g>
<!-- PopupHTML&#45;&gt;PopupJS -->
<g id="edge6" class="edge">
<title>PopupHTML&#45;&gt;PopupJS</title>
<path fill="none" stroke="#2e86c1" stroke-width="1.6" d="M2013,-1711.14C2013,-1711.14 2013,-1549.47 2013,-1549.47"/>
<polygon fill="#2e86c1" stroke="#2e86c1" stroke-width="1.6" points="2013,-1540.97 2016.83,-1549.47 2013.3,-1543.27 2013.3,-1549.47 2013,-1549.47 2012.7,-1549.47 2012.7,-1543.27 2009.18,-1549.47 2013,-1540.97"/>
<text xml:space="preserve" text-anchor="middle" x="1985.25" y="-1632.81" font-family="Arial" font-size="10.00" fill="#2e86c1">DOM events</text>
</g>
<!-- ChromeTabs -->
<g id="node10" class="node">
<title>ChromeTabs</title>
<path fill="#bdc3c7" stroke="black" stroke-width="1.5" d="M2670.4,-1296.35C2670.4,-1296.35 2521.6,-1296.35 2521.6,-1296.35 2515.6,-1296.35 2509.6,-1290.35 2509.6,-1284.35 2509.6,-1284.35 2509.6,-1252.55 2509.6,-1252.55 2509.6,-1246.55 2515.6,-1240.55 2521.6,-1240.55 2521.6,-1240.55 2670.4,-1240.55 2670.4,-1240.55 2676.4,-1240.55 2682.4,-1246.55 2682.4,-1252.55 2682.4,-1252.55 2682.4,-1284.35 2682.4,-1284.35 2682.4,-1290.35 2676.4,-1296.35 2670.4,-1296.35"/>
<text xml:space="preserve" text-anchor="middle" x="2596" y="-1271.5" font-family="Arial" font-size="11.00" fill="#2c3e50">chrome.tabs</text>
<text xml:space="preserve" text-anchor="middle" x="2596" y="-1258" font-family="Arial" font-size="11.00" fill="#2c3e50">tabs.query()</text>
</g>
<!-- PopupJS&#45;&gt;ChromeTabs -->
<g id="edge7" class="edge">
<title>PopupJS&#45;&gt;ChromeTabs</title>
<path fill="none" stroke="#7f8c8d" stroke-width="1.6" stroke-dasharray="5,2" d="M2161.62,-1516C2334.35,-1516 2596,-1516 2596,-1516 2596,-1516 2596,-1307.3 2596,-1307.3"/>
<polygon fill="#7f8c8d" stroke="#7f8c8d" stroke-width="1.6" points="2596,-1298.8 2599.83,-1307.3 2596.3,-1301.1 2596.3,-1307.3 2596,-1307.3 2595.7,-1307.3 2595.7,-1301.1 2592.18,-1307.3 2596,-1298.8"/>
<text xml:space="preserve" text-anchor="middle" x="2457.29" y="-1518.5" font-family="Arial" font-size="10.00" fill="#7f8c8d">tabs.query()</text>
</g>
<!-- ChromeScripting -->
<g id="node11" class="node">
<title>ChromeScripting</title>
<path fill="#bdc3c7" stroke="black" stroke-width="1.5" d="M2339.4,-1296.35C2339.4,-1296.35 2190.6,-1296.35 2190.6,-1296.35 2184.6,-1296.35 2178.6,-1290.35 2178.6,-1284.35 2178.6,-1284.35 2178.6,-1252.55 2178.6,-1252.55 2178.6,-1246.55 2184.6,-1240.55 2190.6,-1240.55 2190.6,-1240.55 2339.4,-1240.55 2339.4,-1240.55 2345.4,-1240.55 2351.4,-1246.55 2351.4,-1252.55 2351.4,-1252.55 2351.4,-1284.35 2351.4,-1284.35 2351.4,-1290.35 2345.4,-1296.35 2339.4,-1296.35"/>
<text xml:space="preserve" text-anchor="middle" x="2265" y="-1271.5" font-family="Arial" font-size="11.00" fill="#2c3e50">chrome.scripting</text>
<text xml:space="preserve" text-anchor="middle" x="2265" y="-1258" font-family="Arial" font-size="11.00" fill="#2c3e50">executeScript()</text>
</g>
<!-- PopupJS&#45;&gt;ChromeScripting -->
<g id="edge8" class="edge">
<title>PopupJS&#45;&gt;ChromeScripting</title>
<path fill="none" stroke="#7f8c8d" stroke-width="1.6" stroke-dasharray="5,2" d="M2150.2,-1468.69C2150.2,-1405.12 2150.2,-1278 2150.2,-1278 2150.2,-1278 2167.54,-1278 2167.54,-1278"/>
<polygon fill="#7f8c8d" stroke="#7f8c8d" stroke-width="1.6" points="2176.04,-1278 2167.54,-1281.83 2173.74,-1278.3 2167.54,-1278.3 2167.54,-1278 2167.54,-1277.7 2173.74,-1277.7 2167.54,-1274.18 2176.04,-1278"/>
<text xml:space="preserve" text-anchor="middle" x="2117.2" y="-1367.17" font-family="Arial" font-size="10.00" fill="#7f8c8d">executeScript()</text>
</g>
<!-- PortListener -->
<g id="node13" class="node">
<title>PortListener</title>
<path fill="#d7bde2" stroke="black" stroke-width="1.5" d="M1857,-1296.35C1857,-1296.35 1665,-1296.35 1665,-1296.35 1659,-1296.35 1653,-1290.35 1653,-1284.35 1653,-1284.35 1653,-1252.55 1653,-1252.55 1653,-1246.55 1659,-1240.55 1665,-1240.55 1665,-1240.55 1857,-1240.55 1857,-1240.55 1863,-1240.55 1869,-1246.55 1869,-1252.55 1869,-1252.55 1869,-1284.35 1869,-1284.35 1869,-1290.35 1863,-1296.35 1857,-1296.35"/>
<text xml:space="preserve" text-anchor="middle" x="1761" y="-1271.5" font-family="Arial" font-size="11.00" fill="#4a235a">onConnect Listener</text>
<text xml:space="preserve" text-anchor="middle" x="1761" y="-1258" font-family="Arial" font-size="11.00" fill="#4a235a">Port: &#39;compareProgress&#39;</text>
</g>
<!-- PopupJS&#45;&gt;PortListener -->
<g id="edge13" class="edge">
<title>PopupJS&#45;&gt;PortListener</title>
<path fill="none" stroke="#7d3c98" stroke-width="2.8" d="M1888.9,-1456.72C1888.9,-1456.72 1888.9,-1259 1888.9,-1259 1888.9,-1259 1881.39,-1259 1881.39,-1259"/>
<polygon fill="#7d3c98" stroke="#7d3c98" stroke-width="2.8" points="1888.9,-1465.22 1885.08,-1456.72 1888,-1464.39 1888,-1456.72 1888.9,-1456.72 1889.8,-1456.72 1889.8,-1464.39 1892.73,-1456.72 1888.9,-1465.22"/>
<polygon fill="#7d3c98" stroke="#7d3c98" stroke-width="2.8" points="1872.89,-1259 1881.39,-1255.18 1873.72,-1258.1 1881.39,-1258.1 1881.39,-1259 1881.39,-1259.9 1873.72,-1259.9 1881.39,-1262.83 1872.89,-1259"/>
<text xml:space="preserve" text-anchor="middle" x="1808.28" y="-1356.61" font-family="Arial" font-size="10.00" fill="#7d3c98">runtime.connect() &#160;&#160;compareProgress</text>
</g>
<!-- MsgListener -->
<g id="node14" class="node">
<title>MsgListener</title>
<path fill="#d7bde2" stroke="black" stroke-width="1.5" d="M1482.95,-1296.35C1482.95,-1296.35 1149.05,-1296.35 1149.05,-1296.35 1143.05,-1296.35 1137.05,-1290.35 1137.05,-1284.35 1137.05,-1284.35 1137.05,-1252.55 1137.05,-1252.55 1137.05,-1246.55 1143.05,-1240.55 1149.05,-1240.55 1149.05,-1240.55 1482.95,-1240.55 1482.95,-1240.55 1488.95,-1240.55 1494.95,-1246.55 1494.95,-1252.55 1494.95,-1252.55 1494.95,-1284.35 1494.95,-1284.35 1494.95,-1290.35 1488.95,-1296.35 1482.95,-1296.35"/>
<text xml:space="preserve" text-anchor="middle" x="1316" y="-1271.5" font-family="Arial" font-size="11.00" fill="#4a235a">onMessage Listener</text>
<text xml:space="preserve" text-anchor="middle" x="1316" y="-1258" font-family="Arial" font-size="11.00" fill="#4a235a">summarizeProducts &#160;· &#160;productDetected &#160;· &#160;getDetectedProducts</text>
</g>
<!-- PopupJS&#45;&gt;MsgListener -->
<g id="edge15" class="edge">
<title>PopupJS&#45;&gt;MsgListener</title>
<path fill="none" stroke="#c0392b" stroke-width="2.8" d="M1852.39,-1516C1852.39,-1516 1459.47,-1516 1459.47,-1516 1459.47,-1516 1459.47,-1308.76 1459.47,-1308.76"/>
<polygon fill="#c0392b" stroke="#c0392b" stroke-width="2.8" points="1860.89,-1516 1852.39,-1519.83 1860.05,-1516.9 1852.39,-1516.9 1852.39,-1516 1852.39,-1515.1 1860.05,-1515.1 1852.39,-1512.18 1860.89,-1516"/>
<polygon fill="#c0392b" stroke="#c0392b" stroke-width="2.8" points="1459.48,-1300.26 1463.3,-1308.76 1460.38,-1301.1 1460.38,-1308.76 1459.48,-1308.76 1458.58,-1308.76 1458.58,-1301.1 1455.65,-1308.76 1459.48,-1300.26"/>
<text xml:space="preserve" text-anchor="middle" x="1629.19" y="-1518.5" font-family="Arial" font-size="10.00" fill="#c0392b">sendMessage: summarizeProducts</text>
</g>
<!-- ContentJS -->
<g id="node9" class="node">
<title>ContentJS</title>
<path fill="#27ae60" stroke="black" stroke-width="1.5" d="M1412,-1538.65C1412,-1538.65 1220,-1538.65 1220,-1538.65 1214,-1538.65 1208,-1532.65 1208,-1526.65 1208,-1526.65 1208,-1481.35 1208,-1481.35 1208,-1475.35 1214,-1469.35 1220,-1469.35 1220,-1469.35 1412,-1469.35 1412,-1469.35 1418,-1469.35 1424,-1475.35 1424,-1481.35 1424,-1481.35 1424,-1526.65 1424,-1526.65 1424,-1532.65 1418,-1538.65 1412,-1538.65"/>
<text xml:space="preserve" text-anchor="middle" x="1316" y="-1513.8" font-family="Arial" font-size="11.00" fill="#ffffff">content.js</text>
<text xml:space="preserve" text-anchor="middle" x="1316" y="-1500.3" font-family="Arial" font-size="11.00" fill="#ffffff">Passive Product Detector</text>
<text xml:space="preserve" text-anchor="middle" x="1316" y="-1486.8" font-family="Arial" font-size="11.00" fill="#ffffff">(auto&#45;injected on all pages)</text>
</g>
<!-- WebPages -->
<g id="node12" class="node">
<title>WebPages</title>
<path fill="#fae5d3" stroke="#ca6f1e" stroke-width="1.5" d="M2401.2,-1052.14C2401.2,-1055.99 2349.57,-1059.11 2286,-1059.11 2222.43,-1059.11 2170.8,-1055.99 2170.8,-1052.14 2170.8,-1052.14 2170.8,-989.36 2170.8,-989.36 2170.8,-985.51 2222.43,-982.39 2286,-982.39 2349.57,-982.39 2401.2,-985.51 2401.2,-989.36 2401.2,-989.36 2401.2,-1052.14 2401.2,-1052.14"/>
<path fill="none" stroke="#ca6f1e" stroke-width="1.5" d="M2401.2,-1052.14C2401.2,-1048.29 2349.57,-1045.16 2286,-1045.16 2222.43,-1045.16 2170.8,-1048.29 2170.8,-1052.14"/>
<text xml:space="preserve" text-anchor="middle" x="2286" y="-1023.8" font-family="Arial" font-size="11.00" fill="#784212">Web Pages &#160;/ &#160;DOM</text>
<text xml:space="preserve" text-anchor="middle" x="2286" y="-1010.3" font-family="Arial" font-size="11.00" fill="#784212">Amazon &#160;· &#160;eBay &#160;· &#160;any product site</text>
</g>
<!-- ContentJS&#45;&gt;WebPages -->
<g id="edge11" class="edge">
<title>ContentJS&#45;&gt;WebPages</title>
<path fill="none" stroke="#27ae60" stroke-width="1.6" stroke-dasharray="5,2" d="M1435.26,-1492C1435.26,-1492 1612.6,-1492 1612.6,-1492 1612.6,-1492 1612.6,-1021 1612.6,-1021 1612.6,-1021 1977.7,-1021 2170.24,-1021"/>
<polygon fill="#27ae60" stroke="#27ae60" stroke-width="1.6" points="1435.26,-1489.03 1426.76,-1492 1435.26,-1494.98 1435.26,-1489.03"/>
<text xml:space="preserve" text-anchor="middle" x="1654.97" y="-1068.85" font-family="Arial" font-size="10.00" fill="#27ae60">reads DOM on load</text>
</g>
<!-- ContentJS&#45;&gt;MsgListener -->
<g id="edge12" class="edge">
<title>ContentJS&#45;&gt;MsgListener</title>
<path fill="none" stroke="#27ae60" stroke-width="1.6" d="M1316,-1468.74C1316,-1468.74 1316,-1307.36 1316,-1307.36"/>
<polygon fill="#27ae60" stroke="#27ae60" stroke-width="1.6" points="1316,-1298.86 1319.83,-1307.36 1316.3,-1301.17 1316.3,-1307.36 1316,-1307.36 1315.7,-1307.36 1315.7,-1301.17 1312.18,-1307.36 1316,-1298.86"/>
<text xml:space="preserve" text-anchor="middle" x="1280" y="-1390.55" font-family="Arial" font-size="10.00" fill="#27ae60">productDetected</text>
</g>
<!-- ChromeScripting&#45;&gt;WebPages -->
<g id="edge9" class="edge">
<title>ChromeScripting&#45;&gt;WebPages</title>
<path fill="none" stroke="#ca6f1e" stroke-width="1.6" stroke-dasharray="5,2" d="M2265,-1240.04C2265,-1240.04 2265,-1070.24 2265,-1070.24"/>
<polygon fill="#ca6f1e" stroke="#ca6f1e" stroke-width="1.6" points="2265,-1061.74 2268.83,-1070.24 2265.3,-1064.04 2265.3,-1070.24 2265,-1070.24 2264.7,-1070.24 2264.7,-1064.04 2261.18,-1070.24 2265,-1061.74"/>
<text xml:space="preserve" text-anchor="middle" x="2232.75" y="-1157.64" font-family="Arial" font-size="10.00" fill="#ca6f1e">inject extractor</text>
</g>
<!-- WebPages&#45;&gt;PopupJS -->
<g id="edge10" class="edge">
<title>WebPages&#45;&gt;PopupJS</title>
<path fill="none" stroke="#ca6f1e" stroke-width="1.6" stroke-dasharray="5,2" d="M2174.7,-1056.95C2174.7,-1167.29 2174.7,-1492 2174.7,-1492 2174.7,-1492 2172.19,-1492 2172.19,-1492"/>
<polygon fill="#ca6f1e" stroke="#ca6f1e" stroke-width="1.6" points="2163.69,-1492 2172.19,-1488.18 2165.99,-1491.7 2172.19,-1491.7 2172.19,-1492 2172.19,-1492.3 2165.99,-1492.3 2172.19,-1495.83 2163.69,-1492"/>
<text xml:space="preserve" text-anchor="middle" x="2134.95" y="-1278.23" font-family="Arial" font-size="10.00" fill="#ca6f1e">{ name, price, url }</text>
</g>
<!-- Dispatcher -->
<g id="node15" class="node">
<title>Dispatcher</title>
<path fill="#6c3483" stroke="black" stroke-width="2.5" d="M1445.88,-1063.03C1445.88,-1063.03 1352.92,-1025.27 1352.92,-1025.27 1347.36,-1023.01 1347.36,-1018.49 1352.92,-1016.23 1352.92,-1016.23 1445.88,-978.47 1445.88,-978.47 1451.44,-976.21 1462.56,-976.21 1468.12,-978.47 1468.12,-978.47 1561.08,-1016.23 1561.08,-1016.23 1566.64,-1018.49 1566.64,-1023.01 1561.08,-1025.27 1561.08,-1025.27 1468.12,-1063.03 1468.12,-1063.03 1462.56,-1065.29 1451.44,-1065.29 1445.88,-1063.03"/>
<text xml:space="preserve" text-anchor="middle" x="1457" y="-1023.6" font-family="Arial" font-size="12.00" fill="#ffffff">invokeTool()</text>
<text xml:space="preserve" text-anchor="middle" x="1457" y="-1009.35" font-family="Arial" font-size="12.00" fill="#ffffff">Dispatcher</text>
</g>
<!-- PortListener&#45;&gt;Dispatcher -->
<g id="edge14" class="edge">
<title>PortListener&#45;&gt;Dispatcher</title>
<path fill="none" stroke="#5b2c6f" stroke-width="2" d="M1701.9,-1239.88C1701.9,-1183.43 1701.9,-1063 1701.9,-1063 1701.9,-1063 1482.16,-1063 1482.16,-1063"/>
<polygon fill="#5b2c6f" stroke="#5b2c6f" stroke-width="2" points="1473.66,-1063 1482.16,-1059.18 1475.48,-1062.5 1482.16,-1062.5 1482.16,-1063 1482.16,-1063.5 1475.48,-1063.5 1482.16,-1066.83 1473.66,-1063"/>
<text xml:space="preserve" text-anchor="middle" x="1779.47" y="-1053.5" font-family="Arial" font-size="10.00" fill="#5b2c6f">invokeTool → compareProductsWithProgress</text>
</g>
<!-- ToolSummarize -->
<g id="node19" class="node">
<title>ToolSummarize</title>
<path fill="#8e44ad" stroke="black" stroke-width="1.5" d="M645.8,-800.95C645.8,-800.95 468.2,-800.95 468.2,-800.95 462.2,-800.95 456.2,-794.95 456.2,-788.95 456.2,-788.95 456.2,-757.15 456.2,-757.15 456.2,-751.15 462.2,-745.15 468.2,-745.15 468.2,-745.15 645.8,-745.15 645.8,-745.15 651.8,-745.15 657.8,-751.15 657.8,-757.15 657.8,-757.15 657.8,-788.95 657.8,-788.95 657.8,-794.95 651.8,-800.95 645.8,-800.95"/>
<text xml:space="preserve" text-anchor="middle" x="557" y="-776.1" font-family="Arial" font-size="11.00" fill="#ffffff">summarizeProducts</text>
<text xml:space="preserve" text-anchor="middle" x="557" y="-762.6" font-family="Arial" font-size="11.00" fill="#ffffff">Tool wrapper</text>
</g>
<!-- MsgListener&#45;&gt;ToolSummarize -->
<g id="edge16" class="edge">
<title>MsgListener&#45;&gt;ToolSummarize</title>
<path fill="none" stroke="#c0392b" stroke-width="2" d="M1136.61,-1244C912.19,-1244 557,-1244 557,-1244 557,-1244 557,-812.39 557,-812.39"/>
<polygon fill="#c0392b" stroke="#c0392b" stroke-width="2" points="557,-803.89 560.83,-812.39 557.5,-805.7 557.5,-812.39 557,-812.39 556.5,-812.39 556.5,-805.7 553.18,-812.39 557,-803.89"/>
<text xml:space="preserve" text-anchor="middle" x="574" y="-1246.5" font-family="Arial" font-size="10.00" fill="#c0392b">tool_summarizeProducts()</text>
</g>
<!-- ToolOrch -->
<g id="node16" class="node">
<title>ToolOrch</title>
<path fill="#8e44ad" stroke="black" stroke-width="1.5" d="M1048.4,-800.95C1048.4,-800.95 827.6,-800.95 827.6,-800.95 821.6,-800.95 815.6,-794.95 815.6,-788.95 815.6,-788.95 815.6,-757.15 815.6,-757.15 815.6,-751.15 821.6,-745.15 827.6,-745.15 827.6,-745.15 1048.4,-745.15 1048.4,-745.15 1054.4,-745.15 1060.4,-751.15 1060.4,-757.15 1060.4,-757.15 1060.4,-788.95 1060.4,-788.95 1060.4,-794.95 1054.4,-800.95 1048.4,-800.95"/>
<text xml:space="preserve" text-anchor="middle" x="938" y="-776.1" font-family="Arial" font-size="11.00" fill="#ffffff">compareProductsWithProgress</text>
<text xml:space="preserve" text-anchor="middle" x="938" y="-762.6" font-family="Arial" font-size="11.00" fill="#ffffff">Orchestrator Tool</text>
</g>
<!-- Dispatcher&#45;&gt;ToolOrch -->
<g id="edge17" class="edge">
<title>Dispatcher&#45;&gt;ToolOrch</title>
<path fill="none" stroke="#7d3c98" stroke-width="2" d="M1431.62,-983C1327.42,-983 938,-983 938,-983 938,-983 938,-812.3 938,-812.3"/>
<polygon fill="#7d3c98" stroke="#7d3c98" stroke-width="2" points="938,-803.8 941.83,-812.3 938.5,-805.61 938.5,-812.3 938,-812.3 937.5,-812.3 937.5,-805.61 934.18,-812.3 938,-803.8"/>
</g>
<!-- ToolGemini -->
<g id="node21" class="node">
<title>ToolGemini</title>
<path fill="#e67e22" stroke="#a04000" stroke-width="3" d="M673.58,-329.85C673.58,-329.85 460.42,-329.85 460.42,-329.85 454.42,-329.85 448.42,-323.85 448.42,-317.85 448.42,-317.85 448.42,-270.3 448.42,-270.3 448.42,-264.3 454.42,-258.3 460.42,-258.3 460.42,-258.3 673.58,-258.3 673.58,-258.3 679.58,-258.3 685.58,-264.3 685.58,-270.3 685.58,-270.3 685.58,-317.85 685.58,-317.85 685.58,-323.85 679.58,-329.85 673.58,-329.85"/>
<text xml:space="preserve" text-anchor="middle" x="567" y="-304.05" font-family="Arial" font-size="12.00" fill="#ffffff">callGemini</text>
<text xml:space="preserve" text-anchor="middle" x="567" y="-289.8" font-family="Arial" font-size="12.00" fill="#ffffff">LLM Gateway</text>
<text xml:space="preserve" text-anchor="middle" x="567" y="-275.55" font-family="Arial" font-size="12.00" fill="#ffffff">342230205 Gemini REST endpoint</text>
</g>
<!-- Dispatcher&#45;&gt;ToolGemini -->
<g id="edge18" class="edge">
<title>Dispatcher&#45;&gt;ToolGemini</title>
<path fill="none" stroke="#e67e22" stroke-width="2.8" d="M1409.49,-992C1240.53,-992 678.79,-992 678.79,-992 678.79,-992 678.79,-343.02 678.79,-343.02"/>
<polygon fill="#e67e22" stroke="#e67e22" stroke-width="2.8" points="678.79,-334.52 682.61,-343.02 679.69,-335.36 679.69,-343.02 678.79,-343.02 677.89,-343.02 677.89,-335.36 674.96,-343.02 678.79,-334.52"/>
<text xml:space="preserve" text-anchor="middle" x="692.27" y="-994.5" font-family="Arial" font-size="10.00" fill="#e67e22">LLM via Tool</text>
</g>
<!-- ToolCsv -->
<g id="node22" class="node">
<title>ToolCsv</title>
<path fill="#8e44ad" stroke="black" stroke-width="1.5" d="M1379.4,-800.95C1379.4,-800.95 1230.6,-800.95 1230.6,-800.95 1224.6,-800.95 1218.6,-794.95 1218.6,-788.95 1218.6,-788.95 1218.6,-757.15 1218.6,-757.15 1218.6,-751.15 1224.6,-745.15 1230.6,-745.15 1230.6,-745.15 1379.4,-745.15 1379.4,-745.15 1385.4,-745.15 1391.4,-751.15 1391.4,-757.15 1391.4,-757.15 1391.4,-788.95 1391.4,-788.95 1391.4,-794.95 1385.4,-800.95 1379.4,-800.95"/>
<text xml:space="preserve" text-anchor="middle" x="1305" y="-776.1" font-family="Arial" font-size="11.00" fill="#ffffff">generateCsv</text>
<text xml:space="preserve" text-anchor="middle" x="1305" y="-762.6" font-family="Arial" font-size="11.00" fill="#ffffff">Formatter</text>
</g>
<!-- Dispatcher&#45;&gt;ToolCsv -->
<g id="edge19" class="edge">
<title>Dispatcher&#45;&gt;ToolCsv</title>
<path fill="none" stroke="#7d3c98" stroke-width="1.6" d="M1366.6,-1009.46C1366.6,-1009.46 1366.6,-811.92 1366.6,-811.92"/>
<polygon fill="#7d3c98" stroke="#7d3c98" stroke-width="1.6" points="1366.6,-803.42 1370.43,-811.92 1366.9,-805.72 1366.9,-811.92 1366.6,-811.92 1366.3,-811.92 1366.3,-805.72 1362.78,-811.92 1366.6,-803.42"/>
</g>
<!-- ToolDownload -->
<g id="node23" class="node">
<title>ToolDownload</title>
<path fill="#8e44ad" stroke="black" stroke-width="1.5" d="M1738.8,-800.95C1738.8,-800.95 1561.2,-800.95 1561.2,-800.95 1555.2,-800.95 1549.2,-794.95 1549.2,-788.95 1549.2,-788.95 1549.2,-757.15 1549.2,-757.15 1549.2,-751.15 1555.2,-745.15 1561.2,-745.15 1561.2,-745.15 1738.8,-745.15 1738.8,-745.15 1744.8,-745.15 1750.8,-751.15 1750.8,-757.15 1750.8,-757.15 1750.8,-788.95 1750.8,-788.95 1750.8,-794.95 1744.8,-800.95 1738.8,-800.95"/>
<text xml:space="preserve" text-anchor="middle" x="1650" y="-776.1" font-family="Arial" font-size="11.00" fill="#ffffff">downloadCsv</text>
<text xml:space="preserve" text-anchor="middle" x="1650" y="-762.6" font-family="Arial" font-size="11.00" fill="#ffffff">Chrome Download Trigger</text>
</g>
<!-- Dispatcher&#45;&gt;ToolDownload -->
<g id="edge20" class="edge">
<title>Dispatcher&#45;&gt;ToolDownload</title>
<path fill="none" stroke="#7d3c98" stroke-width="1.6" d="M1560.7,-1015.11C1560.7,-1015.11 1560.7,-812.06 1560.7,-812.06"/>
<polygon fill="#7d3c98" stroke="#7d3c98" stroke-width="1.6" points="1560.7,-803.56 1564.53,-812.06 1561,-805.86 1561,-812.06 1560.7,-812.06 1560.4,-812.06 1560.4,-805.86 1556.88,-812.06 1560.7,-803.56"/>
</g>
<!-- ToolSummary -->
<g id="node24" class="node">
<title>ToolSummary</title>
<path fill="#8e44ad" stroke="black" stroke-width="1.5" d="M2127.2,-800.95C2127.2,-800.95 1920.8,-800.95 1920.8,-800.95 1914.8,-800.95 1908.8,-794.95 1908.8,-788.95 1908.8,-788.95 1908.8,-757.15 1908.8,-757.15 1908.8,-751.15 1914.8,-745.15 1920.8,-745.15 1920.8,-745.15 2127.2,-745.15 2127.2,-745.15 2133.2,-745.15 2139.2,-751.15 2139.2,-757.15 2139.2,-757.15 2139.2,-788.95 2139.2,-788.95 2139.2,-794.95 2133.2,-800.95 2127.2,-800.95"/>
<text xml:space="preserve" text-anchor="middle" x="2024" y="-776.1" font-family="Arial" font-size="11.00" fill="#ffffff">generateComparisonSummary</text>
<text xml:space="preserve" text-anchor="middle" x="2024" y="-762.6" font-family="Arial" font-size="11.00" fill="#ffffff">Text Formatter</text>
</g>
<!-- Dispatcher&#45;&gt;ToolSummary -->
<g id="edge21" class="edge">
<title>Dispatcher&#45;&gt;ToolSummary</title>
<path fill="none" stroke="#7d3c98" stroke-width="1.6" d="M1470.18,-978C1555.31,-978 2024,-978 2024,-978 2024,-978 2024,-812 2024,-812"/>
<polygon fill="#7d3c98" stroke="#7d3c98" stroke-width="1.6" points="2024,-803.5 2027.83,-812 2024.3,-805.8 2024.3,-812 2024,-812 2023.7,-812 2023.7,-805.8 2020.18,-812 2024,-803.5"/>
</g>
<!-- ToolPair -->
<g id="node17" class="node">
<title>ToolPair</title>
<path fill="#8e44ad" stroke="black" stroke-width="1.5" d="M1048.2,-565.4C1048.2,-565.4 841.8,-565.4 841.8,-565.4 835.8,-565.4 829.8,-559.4 829.8,-553.4 829.8,-553.4 829.8,-521.6 829.8,-521.6 829.8,-515.6 835.8,-509.6 841.8,-509.6 841.8,-509.6 1048.2,-509.6 1048.2,-509.6 1054.2,-509.6 1060.2,-515.6 1060.2,-521.6 1060.2,-521.6 1060.2,-553.4 1060.2,-553.4 1060.2,-559.4 1054.2,-565.4 1048.2,-565.4"/>
<text xml:space="preserve" text-anchor="middle" x="945" y="-540.55" font-family="Arial" font-size="11.00" fill="#ffffff">compareProductPair</text>
<text xml:space="preserve" text-anchor="middle" x="945" y="-527.05" font-family="Arial" font-size="11.00" fill="#ffffff">Heuristic &#160;+ &#160;LLM Fallback</text>
</g>
<!-- ToolOrch&#45;&gt;ToolPair -->
<g id="edge22" class="edge">
<title>ToolOrch&#45;&gt;ToolPair</title>
<path fill="none" stroke="#9b59b6" stroke-width="1.6" stroke-dasharray="5,2" d="M945,-744.64C945,-744.64 945,-576.46 945,-576.46"/>
<polygon fill="#9b59b6" stroke="#9b59b6" stroke-width="1.6" points="945,-567.96 948.83,-576.46 945.3,-570.26 945.3,-576.46 945,-576.46 944.7,-576.46 944.7,-570.26 941.18,-576.46 945,-567.96"/>
<text xml:space="preserve" text-anchor="middle" x="892.5" y="-663.05" font-family="Arial" font-size="10.00" fill="#9b59b6">each pair via invokeTool</text>
</g>
<!-- ToolHeuristic -->
<g id="node18" class="node">
<title>ToolHeuristic</title>
<path fill="#d7bde2" stroke="black" stroke-dasharray="5,2" d="M1048,-321.97C1048,-321.97 856,-321.97 856,-321.97 850,-321.97 844,-315.97 844,-309.97 844,-309.97 844,-278.18 844,-278.18 844,-272.18 850,-266.18 856,-266.18 856,-266.18 1048,-266.18 1048,-266.18 1054,-266.18 1060,-272.18 1060,-278.18 1060,-278.18 1060,-309.97 1060,-309.97 1060,-315.97 1054,-321.97 1048,-321.97"/>
<text xml:space="preserve" text-anchor="middle" x="952" y="-297.12" font-family="Arial" font-size="11.00" fill="#4a235a">hasSharedProductType()</text>
<text xml:space="preserve" text-anchor="middle" x="952" y="-283.62" font-family="Arial" font-size="11.00" fill="#4a235a">Keyword Heuristic &#160;(no LLM)</text>
</g>
<!-- ToolPair&#45;&gt;ToolHeuristic -->
<g id="edge23" class="edge">
<title>ToolPair&#45;&gt;ToolHeuristic</title>
<path fill="none" stroke="#2e86c1" stroke-width="1.6" d="M952,-509.1C952,-509.1 952,-332.74 952,-332.74"/>
<polygon fill="#2e86c1" stroke="#2e86c1" stroke-width="1.6" points="952,-324.24 955.83,-332.74 952.3,-326.54 952.3,-332.74 952,-332.74 951.7,-332.74 951.7,-326.54 948.18,-332.74 952,-324.24"/>
<text xml:space="preserve" text-anchor="middle" x="908.88" y="-423.42" font-family="Arial" font-size="10.00" fill="#2e86c1">1st: keyword match</text>
</g>
<!-- ToolPair&#45;&gt;ToolGemini -->
<g id="edge24" class="edge">
<title>ToolPair&#45;&gt;ToolGemini</title>
<path fill="none" stroke="#e67e22" stroke-width="1.6" stroke-dasharray="5,2" d="M836.9,-508.98C836.9,-451.25 836.9,-326 836.9,-326 836.9,-326 697.4,-326 697.4,-326"/>
<polygon fill="#e67e22" stroke="#e67e22" stroke-width="1.6" points="688.9,-326 697.4,-322.18 691.2,-325.7 697.4,-325.7 697.4,-326 697.4,-326.3 691.2,-326.3 697.4,-329.83 688.9,-326"/>
<text xml:space="preserve" text-anchor="middle" x="798.27" y="-350.24" font-family="Arial" font-size="10.00" fill="#e67e22">2nd: LLM fallback</text>
</g>
<!-- SummarizeProduct -->
<g id="node20" class="node">
<title>SummarizeProduct</title>
<path fill="#c0392b" stroke="#7b241c" stroke-width="3" d="M660,-572.15C660,-572.15 468,-572.15 468,-572.15 462,-572.15 456,-566.15 456,-560.15 456,-560.15 456,-514.85 456,-514.85 456,-508.85 462,-502.85 468,-502.85 468,-502.85 660,-502.85 660,-502.85 666,-502.85 672,-508.85 672,-514.85 672,-514.85 672,-560.15 672,-560.15 672,-566.15 666,-572.15 660,-572.15"/>
<text xml:space="preserve" text-anchor="middle" x="564" y="-547.3" font-family="Arial" font-size="11.00" fill="#ffffff">summarizeProduct()</text>
<text xml:space="preserve" text-anchor="middle" x="564" y="-533.8" font-family="Arial" font-size="11.00" fill="#ffffff">Pure LLM Helper</text>
<text xml:space="preserve" text-anchor="middle" x="564" y="-520.3" font-family="Arial" font-size="11.00" fill="#ffffff">Bypasses invokeTool dispatcher</text>
</g>
<!-- ToolSummarize&#45;&gt;SummarizeProduct -->
<g id="edge25" class="edge">
<title>ToolSummarize&#45;&gt;SummarizeProduct</title>
<path fill="none" stroke="#c0392b" stroke-width="1.6" d="M557,-744.64C557,-744.64 557,-583.77 557,-583.77"/>
<polygon fill="#c0392b" stroke="#c0392b" stroke-width="1.6" points="557,-575.27 560.83,-583.77 557.3,-577.57 557.3,-583.77 557,-583.77 556.7,-583.77 556.7,-577.57 553.18,-583.77 557,-575.27"/>
<text xml:space="preserve" text-anchor="middle" x="532.62" y="-666.71" font-family="Arial" font-size="10.00" fill="#c0392b">per product</text>
</g>
<!-- SummarizeProduct&#45;&gt;ToolGemini -->
<g id="edge26" class="edge">
<title>SummarizeProduct&#45;&gt;ToolGemini</title>
<path fill="none" stroke="#c0392b" stroke-width="3.2" d="M564,-501.58C564,-501.58 564,-343.74 564,-343.74"/>
<polygon fill="#c0392b" stroke="#c0392b" stroke-width="3.2" points="564,-335.24 567.83,-343.74 565.1,-335.59 565.1,-343.74 564,-343.74 562.9,-343.74 562.9,-335.59 560.18,-343.74 564,-335.24"/>
<text xml:space="preserve" text-anchor="middle" x="486" y="-425.16" font-family="Arial" font-size="10.00" fill="#c0392b">PURE LLM: tool_callGemini() direct</text>
</g>
<!-- GeminiAPI -->
<g id="node25" class="node">
<title>GeminiAPI</title>
<path fill="#e74c3c" stroke="#922b21" stroke-width="2.5" d="M677.4,-85.3C677.4,-85.3 456.6,-85.3 456.6,-85.3 450.6,-85.3 444.6,-79.3 444.6,-73.3 444.6,-73.3 444.6,-28 444.6,-28 444.6,-22 450.6,-16 456.6,-16 456.6,-16 677.4,-16 677.4,-16 683.4,-16 689.4,-22 689.4,-28 689.4,-28 689.4,-73.3 689.4,-73.3 689.4,-79.3 683.4,-85.3 677.4,-85.3"/>
<text xml:space="preserve" text-anchor="middle" x="567" y="-60.45" font-family="Arial" font-size="11.00" fill="#ffffff">Google Gemini API</text>
<text xml:space="preserve" text-anchor="middle" x="567" y="-46.95" font-family="Arial" font-size="11.00" fill="#ffffff">gemini&#45;2.5&#45;flash</text>
<text xml:space="preserve" text-anchor="middle" x="567" y="-33.45" font-family="Arial" font-size="11.00" fill="#ffffff">generativelanguage.googleapis.com</text>
</g>
<!-- ToolGemini&#45;&gt;GeminiAPI -->
<g id="edge27" class="edge">
<title>ToolGemini&#45;&gt;GeminiAPI</title>
<path fill="none" stroke="#a04000" stroke-width="3.2" d="M567,-244.44C567,-244.44 567,-98.7 567,-98.7"/>
<polygon fill="#a04000" stroke="#a04000" stroke-width="3.2" points="567,-252.94 563.18,-244.44 565.9,-252.59 565.9,-244.44 567,-244.44 568.1,-244.44 568.1,-252.59 570.83,-244.44 567,-252.94"/>
<polygon fill="#a04000" stroke="#a04000" stroke-width="3.2" points="567,-90.2 570.83,-98.7 568.1,-90.55 568.1,-98.7 567,-98.7 565.9,-98.7 565.9,-90.55 563.18,-98.7 567,-90.2"/>
<text xml:space="preserve" text-anchor="middle" x="454.5" y="-174.07" font-family="Arial" font-size="10.00" fill="#a04000">POST /v1/models/gemini&#45;2.5&#45;flash:generateContent</text>
</g>
<!-- ChromeDownloads -->
<g id="node26" class="node">
<title>ChromeDownloads</title>
<path fill="#bdc3c7" stroke="black" stroke-width="1.5" d="M2354.6,-565.4C2354.6,-565.4 2191.4,-565.4 2191.4,-565.4 2185.4,-565.4 2179.4,-559.4 2179.4,-553.4 2179.4,-553.4 2179.4,-521.6 2179.4,-521.6 2179.4,-515.6 2185.4,-509.6 2191.4,-509.6 2191.4,-509.6 2354.6,-509.6 2354.6,-509.6 2360.6,-509.6 2366.6,-515.6 2366.6,-521.6 2366.6,-521.6 2366.6,-553.4 2366.6,-553.4 2366.6,-559.4 2360.6,-565.4 2354.6,-565.4"/>
<text xml:space="preserve" text-anchor="middle" x="2273" y="-540.55" font-family="Arial" font-size="11.00" fill="#2c3e50">chrome.downloads</text>
<text xml:space="preserve" text-anchor="middle" x="2273" y="-527.05" font-family="Arial" font-size="11.00" fill="#2c3e50">download()</text>
</g>
<!-- ToolDownload&#45;&gt;ChromeDownloads -->
<g id="edge28" class="edge">
<title>ToolDownload&#45;&gt;ChromeDownloads</title>
<path fill="none" stroke="#7f8c8d" stroke-width="1.6" stroke-dasharray="5,2" d="M1650,-744.7C1650,-682.18 1650,-538 1650,-538 1650,-538 2168.27,-538 2168.27,-538"/>
<polygon fill="#7f8c8d" stroke="#7f8c8d" stroke-width="1.6" points="2176.77,-538 2168.27,-541.83 2174.47,-538.3 2168.27,-538.3 2168.27,-538 2168.27,-537.7 2174.47,-537.7 2168.27,-534.18 2176.77,-538"/>
<text xml:space="preserve" text-anchor="middle" x="1739.79" y="-540.5" font-family="Arial" font-size="10.00" fill="#7f8c8d">chrome.downloads.download()</text>
</g>
<!-- CSVOutput -->
<g id="node27" class="node">
<title>CSVOutput</title>
<polygon fill="#a9dfbf" stroke="#1e8449" stroke-width="1.5" points="2367.8,-321.97 2172.2,-321.97 2172.2,-266.18 2373.8,-266.18 2373.8,-315.97 2367.8,-321.97"/>
<polyline fill="none" stroke="#1e8449" stroke-width="1.5" points="2367.8,-321.97 2367.8,-315.97"/>
<polyline fill="none" stroke="#1e8449" stroke-width="1.5" points="2373.8,-315.97 2367.8,-315.97"/>
<text xml:space="preserve" text-anchor="middle" x="2273" y="-297.12" font-family="Arial" font-size="11.00" fill="#145a32">product_comparison.csv</text>
<text xml:space="preserve" text-anchor="middle" x="2273" y="-283.62" font-family="Arial" font-size="11.00" fill="#145a32">Downloads Folder</text>
</g>
<!-- ChromeDownloads&#45;&gt;CSVOutput -->
<g id="edge29" class="edge">
<title>ChromeDownloads&#45;&gt;CSVOutput</title>
<path fill="none" stroke="#1e8449" stroke-width="1.6" d="M2273,-509.1C2273,-509.1 2273,-333.12 2273,-333.12"/>
<polygon fill="#1e8449" stroke="#1e8449" stroke-width="1.6" points="2273,-324.62 2276.83,-333.12 2273.3,-326.92 2273.3,-333.12 2273,-333.12 2272.7,-333.12 2272.7,-326.92 2269.18,-333.12 2273,-324.62"/>
<text xml:space="preserve" text-anchor="middle" x="2252" y="-423.61" font-family="Arial" font-size="10.00" fill="#1e8449">saves file</text>
</g>
</g>
</svg>
